<svg width="37" height="37" viewBox="0 0 37 37" fill="none" xmlns="http://www.w3.org/2000/svg">
<path d="M18.1843 3.54639C19.6343 3.54639 20.8099 4.72155 20.8099 6.1714C20.8099 7.2187 20.1965 8.12264 19.3093 8.54388L19.3093 12.5464H27.9386C29.3738 12.5464 30.5401 13.6982 30.5632 15.128L30.5636 15.1714V30.1714C30.5636 31.6066 29.4117 32.7729 27.982 32.796L27.9386 32.7964H8.43002C6.99476 32.7964 5.82853 31.6445 5.80536 30.2148L5.80501 30.1714V15.1714C5.80501 13.7361 6.95687 12.5699 8.3866 12.5467L8.43002 12.5464H17.0593V8.54388C16.1844 8.12848 15.5758 7.24363 15.5591 6.21478L15.5587 6.1714C15.5587 4.72155 16.7343 3.54639 18.1843 3.54639ZM21.1854 24.1714H15.1831C14.3544 24.1714 13.6826 24.843 13.6826 25.6714C13.6826 26.4916 14.3411 27.158 15.1583 27.1712L15.1831 27.1714H21.1854C22.0142 27.1714 22.686 26.4998 22.686 25.6714C22.686 24.8512 22.0275 24.1848 21.2103 24.1716L21.1854 24.1714ZM3.17859 18.5464C3.79368 18.5464 4.2935 19.04 4.30341 19.6528L4.30359 19.6714V25.6714C4.30359 26.2927 3.79991 26.7964 3.17859 26.7964C2.56346 26.7964 2.06368 26.3027 2.05373 25.69L2.05359 25.6714V19.6714C2.05359 19.0501 2.55727 18.5464 3.17859 18.5464ZM33.19 18.5464C33.8051 18.5464 34.3049 19.04 34.3149 19.6528L34.315 19.6714V25.6714C34.315 26.2927 33.8113 26.7964 33.19 26.7964C32.5749 26.7964 32.0751 26.3027 32.0652 25.69L32.065 25.6714V19.6714C32.065 19.0501 32.5687 18.5464 33.19 18.5464ZM12.9323 18.1714C12.1036 18.1714 11.4318 18.843 11.4318 19.6714C11.4318 20.4998 12.1036 21.1714 12.9323 21.1714C13.7611 21.1714 14.4329 20.4998 14.4329 19.6714C14.4329 18.843 13.7611 18.1714 12.9323 18.1714H12.9323ZM23.4363 18.1714C22.6076 18.1714 21.9357 18.843 21.9357 19.6714C21.9357 20.4998 22.6076 21.1714 23.4363 21.1714C24.2651 21.1714 24.9369 20.4998 24.9369 19.6714C24.9369 18.843 24.2651 18.1714 23.4363 18.1714ZM18.1843 5.79639C17.9768 5.79639 17.8087 5.96436 17.8087 6.1714C17.8087 6.3784 17.9768 6.54637 18.1843 6.54637C18.3918 6.54637 18.5599 6.3784 18.5599 6.1714C18.5599 5.96436 18.3918 5.79639 18.1843 5.79639Z" fill="white"/>
</svg>
