<svg width="50" height="51" viewBox="0 0 50 51" fill="none" xmlns="http://www.w3.org/2000/svg">
<rect y="0.171387" width="50" height="50" rx="25" fill="white"/>
<path d="M20.9252 33.1708C22.6484 33.1708 24.0453 31.7739 24.0453 30.0508C24.0453 28.3276 22.6484 26.9307 20.9252 26.9307C19.2021 26.9307 17.8052 28.3276 17.8052 30.0508C17.8052 31.7739 19.2021 33.1708 20.9252 33.1708Z" fill="#201D1D"/>
<path d="M29.0783 33.1708C30.8015 33.1708 32.1984 31.7739 32.1984 30.0508C32.1984 28.3276 30.8015 26.9307 29.0783 26.9307C27.3551 26.9307 25.9582 28.3276 25.9582 30.0508C25.9582 31.7739 27.3551 33.1708 29.0783 33.1708Z" fill="#201D1D"/>
<path d="M24.9999 17.1719C16.5283 17.1719 9.65983 24.1712 9.66205 32.8026H13.5804C13.5804 26.334 18.6527 21.0895 24.9999 21.0895C31.3473 21.0895 36.4195 26.334 36.4195 32.8026H40.3379C40.3394 24.1712 33.4709 17.1719 24.9999 17.1719Z" fill="#201D1D"/>
</svg>
