<svg width="33" height="33" viewBox="0 0 33 33" fill="none" xmlns="http://www.w3.org/2000/svg">
<path d="M27.4999 6.15803L25.5532 5.95803C19.7286 5.35806 13.8578 5.35806 8.0332 5.95803L6.16654 6.15803C5.05421 6.28376 4.02848 6.81895 3.28907 7.65941C2.54967 8.49986 2.14952 9.58542 2.16654 10.7047V21.638C2.14952 22.7573 2.54967 23.8429 3.28907 24.6833C4.02848 25.5238 5.05421 26.059 6.16654 26.1847L8.1132 26.3847C13.9378 26.9847 19.8086 26.9847 25.6332 26.3847L27.4999 26.1847C28.6122 26.059 29.6379 25.5238 30.3773 24.6833C31.1167 23.8429 31.5169 22.7573 31.4999 21.638V10.7047C31.5169 9.58542 31.1167 8.49986 30.3773 7.65941C29.6379 6.81895 28.6122 6.28376 27.4999 6.15803ZM20.8332 16.998L15.6465 20.4647C15.498 20.5463 15.3311 20.5887 15.1616 20.5881C14.9922 20.5875 14.8256 20.5438 14.6776 20.4612C14.5297 20.3785 14.4051 20.2596 14.3157 20.1156C14.2263 19.9716 14.175 19.8073 14.1665 19.638V12.7047C14.1669 12.5233 14.2165 12.3454 14.3102 12.1901C14.4039 12.0348 14.538 11.9079 14.6983 11.8229C14.8586 11.738 15.0389 11.6983 15.2201 11.708C15.4012 11.7177 15.5763 11.7765 15.7265 11.878L20.9132 15.3447C21.0508 15.4343 21.1638 15.5569 21.242 15.7012C21.3203 15.8456 21.3612 16.0072 21.3612 16.1714C21.3612 16.3356 21.3203 16.4972 21.242 16.6415C21.1638 16.7859 21.0508 16.9084 20.9132 16.998H20.8332Z" fill="white"/>
</svg>
