<svg width="25" height="25" viewBox="0 0 25 25" fill="none" xmlns="http://www.w3.org/2000/svg">
<g clip-path="url(#clip0_100_494)">
<rect x="6.5" y="6.06152" width="13" height="11" fill="black"/>
<path fill-rule="evenodd" clip-rule="evenodd" d="M12.5 22.0615C18.023 22.0615 22.5 17.5845 22.5 12.0615C22.5 6.53852 18.023 2.06152 12.5 2.06152C6.977 2.06152 2.5 6.53852 2.5 12.0615C2.5 17.5845 6.977 22.0615 12.5 22.0615ZM12.505 7.81952C12.3175 8.00705 12.2122 8.26136 12.2122 8.52652C12.2122 8.79169 12.3175 9.046 12.505 9.23352L14.333 11.0615H8.257C7.99178 11.0615 7.73743 11.1669 7.54989 11.3544C7.36236 11.542 7.257 11.7963 7.257 12.0615C7.257 12.3267 7.36236 12.5811 7.54989 12.7686C7.73743 12.9562 7.99178 13.0615 8.257 13.0615H14.333L12.505 14.8905C12.3228 15.0791 12.222 15.3317 12.2243 15.5939C12.2266 15.8561 12.3318 16.1069 12.5172 16.2923C12.7026 16.4777 12.9534 16.5829 13.2156 16.5852C13.4778 16.5875 13.7304 16.4867 13.919 16.3045L17.454 12.7685C17.6415 12.581 17.7468 12.3267 17.7468 12.0615C17.7468 11.7964 17.6415 11.5421 17.454 11.3545L13.92 7.81952C13.7325 7.63205 13.4782 7.52674 13.213 7.52674C12.9478 7.52674 12.6925 7.63205 12.505 7.81952Z" fill="white"/>
</g>
<defs>
<clipPath id="clip0_100_494">
<rect width="24" height="24" fill="white" transform="translate(0.5 0.0615234)"/>
</clipPath>
</defs>
</svg>
