<svg width="24" height="25" viewBox="0 0 24 25" fill="none" xmlns="http://www.w3.org/2000/svg">
<g clip-path="url(#clip0_9_3182)">
<path fill-rule="evenodd" clip-rule="evenodd" d="M12 22.1714C17.523 22.1714 22 17.6944 22 12.1714C22 6.64839 17.523 2.17139 12 2.17139C6.477 2.17139 2 6.64839 2 12.1714C2 17.6944 6.477 22.1714 12 22.1714ZM9.003 9.16839C9.003 9.4336 9.10836 9.68796 9.29589 9.87549C9.48343 10.063 9.73778 10.1684 10.003 10.1684H12.589L8.293 14.4644C8.19749 14.5566 8.12131 14.667 8.0689 14.789C8.01649 14.911 7.9889 15.0422 7.98775 15.175C7.9866 15.3078 8.0119 15.4394 8.06218 15.5623C8.11246 15.6852 8.18671 15.7969 8.28061 15.8908C8.3745 15.9847 8.48615 16.0589 8.60905 16.1092C8.73194 16.1595 8.86362 16.1848 8.9964 16.1836C9.12918 16.1825 9.2604 16.1549 9.3824 16.1025C9.50441 16.0501 9.61475 15.9739 9.707 15.8784L14.003 11.5824V14.1684C14.003 14.4336 14.1084 14.688 14.2959 14.8755C14.4834 15.063 14.7378 15.1684 15.003 15.1684C15.2682 15.1684 15.5226 15.063 15.7101 14.8755C15.8976 14.688 16.003 14.4336 16.003 14.1684V9.16839C16.003 8.90317 15.8976 8.64882 15.7101 8.46128C15.5226 8.27374 15.2682 8.16839 15.003 8.16839H10.003C9.73778 8.16839 9.48343 8.27374 9.29589 8.46128C9.10836 8.64882 9.003 8.90317 9.003 9.16839Z" fill="white"/>
</g>
<defs>
<clipPath id="clip0_9_3182">
<rect width="24" height="24" fill="white" transform="translate(0 0.171387)"/>
</clipPath>
</defs>
</svg>
