<svg width="25" height="25" viewBox="0 0 25 25" fill="none" xmlns="http://www.w3.org/2000/svg">
<g clip-path="url(#clip0_3002_21)">
<rect x="6.66663" y="6.05457" width="13" height="11" fill="black"/>
<path fill-rule="evenodd" clip-rule="evenodd" d="M12.6666 22.0546C18.1896 22.0546 22.6666 17.5776 22.6666 12.0546C22.6666 6.53157 18.1896 2.05457 12.6666 2.05457C7.14363 2.05457 2.66663 6.53157 2.66663 12.0546C2.66663 17.5776 7.14363 22.0546 12.6666 22.0546ZM12.6716 7.81257C12.4842 8.00009 12.3788 8.2544 12.3788 8.51957C12.3788 8.78473 12.4842 9.03904 12.6716 9.22657L14.4996 11.0546H8.42363C8.15841 11.0546 7.90406 11.1599 7.71652 11.3475C7.52898 11.535 7.42363 11.7893 7.42363 12.0546C7.42363 12.3198 7.52898 12.5741 7.71652 12.7617C7.90406 12.9492 8.15841 13.0546 8.42363 13.0546H14.4996L12.6716 14.8836C12.4895 15.0722 12.3887 15.3248 12.391 15.587C12.3932 15.8492 12.4984 16.1 12.6838 16.2854C12.8692 16.4708 13.12 16.576 13.3822 16.5782C13.6444 16.5805 13.897 16.4797 14.0856 16.2976L17.6206 12.7616C17.8081 12.574 17.9134 12.3197 17.9134 12.0546C17.9134 11.7894 17.8081 11.5351 17.6206 11.3476L14.0866 7.81257C13.8991 7.62509 13.6448 7.51978 13.3796 7.51978C13.1145 7.51978 12.8592 7.62509 12.6716 7.81257Z" fill="white"/>
</g>
<defs>
<clipPath id="clip0_3002_21">
<rect width="24" height="24" fill="white" transform="translate(0.666626 0.0545654)"/>
</clipPath>
</defs>
</svg>
