<svg width="24" height="25" viewBox="0 0 24 25" fill="none" xmlns="http://www.w3.org/2000/svg">
<g clip-path="url(#clip0_9_2388)">
<path fill-rule="evenodd" clip-rule="evenodd" d="M12 22.0547C17.523 22.0547 22 17.5777 22 12.0547C22 6.53169 17.523 2.05469 12 2.05469C6.477 2.05469 2 6.53169 2 12.0547C2 17.5777 6.477 22.0547 12 22.0547ZM9.003 9.05169C9.003 9.3169 9.10836 9.57126 9.29589 9.75879C9.48343 9.94633 9.73778 10.0517 10.003 10.0517H12.589L8.293 14.3477C8.19749 14.4399 8.12131 14.5503 8.0689 14.6723C8.01649 14.7943 7.9889 14.9255 7.98775 15.0583C7.9866 15.1911 8.0119 15.3227 8.06218 15.4456C8.11246 15.5685 8.18671 15.6802 8.28061 15.7741C8.3745 15.868 8.48615 15.9422 8.60905 15.9925C8.73194 16.0428 8.86362 16.0681 8.9964 16.0669C9.12918 16.0658 9.2604 16.0382 9.3824 15.9858C9.50441 15.9334 9.61475 15.8572 9.707 15.7617L14.003 11.4657V14.0517C14.003 14.3169 14.1084 14.5713 14.2959 14.7588C14.4834 14.9463 14.7378 15.0517 15.003 15.0517C15.2682 15.0517 15.5226 14.9463 15.7101 14.7588C15.8976 14.5713 16.003 14.3169 16.003 14.0517V9.05169C16.003 8.78647 15.8976 8.53212 15.7101 8.34458C15.5226 8.15704 15.2682 8.05169 15.003 8.05169H10.003C9.73778 8.05169 9.48343 8.15704 9.29589 8.34458C9.10836 8.53212 9.003 8.78647 9.003 9.05169Z" fill="white"/>
</g>
<defs>
<clipPath id="clip0_9_2388">
<rect width="24" height="24" fill="white" transform="translate(0 0.0546875)"/>
</clipPath>
</defs>
</svg>
