<svg width="41" height="41" viewBox="0 0 41 41" fill="none" xmlns="http://www.w3.org/2000/svg">
<g clip-path="url(#clip0_74_998)">
<path d="M12.5694 16.8621L20.3381 9.09651L28.11 16.8684L32.6278 12.3474L20.3381 0.0545654L8.0484 12.3443L12.5694 16.8621Z" fill="#F3BA2F"/>
<path d="M0.333374 20.0561L4.85118 15.5352L9.37215 20.0561L4.85118 24.5739L0.333374 20.0561Z" fill="#F3BA2F"/>
<path d="M12.5694 23.2471L20.3381 31.0158L28.11 23.2439L32.631 27.7585L20.3413 40.0514L8.0484 27.768L12.5694 23.2471Z" fill="#F3BA2F"/>
<path d="M31.2946 20.0561L35.8124 15.5352L40.3334 20.053L35.8124 24.5771L31.2946 20.0561Z" fill="#F3BA2F"/>
<path d="M24.9223 20.053L20.3381 15.4657L16.9482 18.8556L16.5564 19.2442L15.754 20.0467L20.3381 24.6277L24.9223 20.0562V20.053Z" fill="#F3BA2F"/>
</g>
<defs>
<clipPath id="clip0_74_998">
<rect width="40" height="40" fill="white" transform="translate(0.333374 0.0545654)"/>
</clipPath>
</defs>
</svg>
