<svg width="80" height="81" viewBox="0 0 80 81" fill="none" xmlns="http://www.w3.org/2000/svg">
<rect y="0.0545654" width="80" height="80" rx="40" fill="white"/>
<path d="M33.3782 53.054C36.1784 53.054 38.4485 50.784 38.4485 47.9839C38.4485 45.1836 36.1784 42.9136 33.3782 42.9136C30.578 42.9136 28.308 45.1836 28.308 47.9839C28.308 50.784 30.578 53.054 33.3782 53.054Z" fill="#201D1D"/>
<path d="M46.6273 53.054C49.4276 53.054 51.6976 50.784 51.6976 47.9839C51.6976 45.1836 49.4276 42.9136 46.6273 42.9136C43.8271 42.9136 41.557 45.1836 41.557 47.9839C41.557 50.784 43.8271 53.054 46.6273 53.054Z" fill="#201D1D"/>
<path d="M39.9999 27.0552C26.2331 27.0552 15.0716 38.4293 15.0752 52.4557H21.4427C21.4427 41.944 29.6853 33.4215 39.9999 33.4215C50.3147 33.4215 58.5573 41.944 58.5573 52.4557H64.9248C64.9273 38.4293 53.7657 27.0552 39.9999 27.0552Z" fill="#201D1D"/>
</svg>
