<svg width="25" height="25" viewBox="0 0 25 25" fill="none" xmlns="http://www.w3.org/2000/svg">
<g clip-path="url(#clip0_3002_9)">
<rect x="6.33334" y="6.05457" width="13" height="11" fill="black"/>
<path fill-rule="evenodd" clip-rule="evenodd" d="M12.3333 22.0546C17.8563 22.0546 22.3333 17.5776 22.3333 12.0546C22.3333 6.53157 17.8563 2.05457 12.3333 2.05457C6.81034 2.05457 2.33334 6.53157 2.33334 12.0546C2.33334 17.5776 6.81034 22.0546 12.3333 22.0546ZM12.3383 7.81257C12.1509 8.00009 12.0456 8.2544 12.0456 8.51957C12.0456 8.78473 12.1509 9.03904 12.3383 9.22657L14.1663 11.0546H8.09034C7.82513 11.0546 7.57077 11.1599 7.38324 11.3475C7.1957 11.535 7.09034 11.7893 7.09034 12.0546C7.09034 12.3198 7.1957 12.5741 7.38324 12.7617C7.57077 12.9492 7.82513 13.0546 8.09034 13.0546H14.1663L12.3383 14.8836C12.1562 15.0722 12.0554 15.3248 12.0577 15.587C12.0599 15.8492 12.1651 16.1 12.3505 16.2854C12.5359 16.4708 12.7867 16.576 13.0489 16.5782C13.3111 16.5805 13.5637 16.4797 13.7523 16.2976L17.2873 12.7616C17.4748 12.574 17.5801 12.3197 17.5801 12.0546C17.5801 11.7894 17.4748 11.5351 17.2873 11.3476L13.7533 7.81257C13.5658 7.62509 13.3115 7.51978 13.0463 7.51978C12.7812 7.51978 12.5259 7.62509 12.3383 7.81257Z" fill="white"/>
</g>
<defs>
<clipPath id="clip0_3002_9">
<rect width="24" height="24" fill="white" transform="translate(0.333344 0.0545654)"/>
</clipPath>
</defs>
</svg>
