<svg width="30" height="31" viewBox="0 0 30 31" fill="none" xmlns="http://www.w3.org/2000/svg">
<g clip-path="url(#clip0_74_1028)">
<path d="M9.17698 12.777L15.0035 6.95284L20.8325 12.7818L24.2208 9.39104L15.0035 0.171387L5.78625 9.38867L9.17698 12.777Z" fill="#F3BA2F"/>
<path d="M0 15.1726L3.38836 11.7819L6.77909 15.1726L3.38836 18.5609L0 15.1726Z" fill="#F3BA2F"/>
<path d="M9.17698 17.5657L15.0035 23.3923L20.8325 17.5634L24.2232 20.9493L15.0059 30.169L5.78625 20.9565L9.17698 17.5657Z" fill="#F3BA2F"/>
<path d="M23.2209 15.1726L26.6093 11.7819L30 15.1702L26.6093 18.5633L23.2209 15.1726Z" fill="#F3BA2F"/>
<path d="M18.4417 15.1702L15.0035 11.7297L12.4611 14.2722L12.1673 14.5636L11.5654 15.1655L15.0035 18.6012L18.4417 15.1726V15.1702Z" fill="#F3BA2F"/>
</g>
<defs>
<clipPath id="clip0_74_1028">
<rect width="30" height="30" fill="white" transform="translate(0 0.171387)"/>
</clipPath>
</defs>
</svg>
