<svg width="24" height="25" viewBox="0 0 24 25" fill="none" xmlns="http://www.w3.org/2000/svg">
<g clip-path="url(#clip0_9_3162)">
<rect x="6" y="6.17139" width="13" height="11" fill="black"/>
<path fill-rule="evenodd" clip-rule="evenodd" d="M12 22.1714C17.523 22.1714 22 17.6944 22 12.1714C22 6.64839 17.523 2.17139 12 2.17139C6.477 2.17139 2 6.64839 2 12.1714C2 17.6944 6.477 22.1714 12 22.1714ZM12.005 7.92939C11.8175 8.11691 11.7122 8.37122 11.7122 8.63639C11.7122 8.90155 11.8175 9.15586 12.005 9.34339L13.833 11.1714H7.757C7.49178 11.1714 7.23743 11.2767 7.04989 11.4643C6.86236 11.6518 6.757 11.9062 6.757 12.1714C6.757 12.4366 6.86236 12.691 7.04989 12.8785C7.23743 13.066 7.49178 13.1714 7.757 13.1714H13.833L12.005 15.0004C11.8228 15.189 11.722 15.4416 11.7243 15.7038C11.7266 15.966 11.8318 16.2168 12.0172 16.4022C12.2026 16.5876 12.4534 16.6928 12.7156 16.6951C12.9778 16.6973 13.2304 16.5965 13.419 16.4144L16.954 12.8784C17.1415 12.6909 17.2468 12.4366 17.2468 12.1714C17.2468 11.9062 17.1415 11.6519 16.954 11.4644L13.42 7.92939C13.2325 7.74192 12.9782 7.6366 12.713 7.6366C12.4478 7.6366 12.1925 7.74192 12.005 7.92939Z" fill="white"/>
</g>
<defs>
<clipPath id="clip0_9_3162">
<rect width="24" height="24" fill="white" transform="translate(0 0.171387)"/>
</clipPath>
</defs>
</svg>
