<svg width="33" height="33" viewBox="0 0 33 33" fill="none" xmlns="http://www.w3.org/2000/svg">
<path d="M25.904 7.28743C24.0617 6.44181 22.1161 5.84244 20.1174 5.50476C19.8627 5.94343 19.58 6.53809 19.3814 7.00476C17.2558 6.69351 15.0963 6.69351 12.9707 7.00476C12.772 6.53809 12.4734 5.94343 12.2334 5.50476C10.2328 5.83845 8.28579 6.43798 6.44403 7.28743C2.78136 12.6928 1.7907 17.9714 2.2867 23.1781C4.43284 24.7538 6.83027 25.9548 9.37736 26.7301C9.94956 25.9577 10.4562 25.1389 10.892 24.2821C10.056 23.9701 9.26536 23.5888 8.50003 23.1354C8.6987 22.9941 8.89603 22.8381 9.08003 22.6821C13.6934 24.7914 18.6894 24.7914 23.2454 22.6821C23.444 22.8381 23.628 22.9941 23.8254 23.1354C23.0614 23.5888 22.2694 23.9701 21.4347 24.2821C21.8701 25.1388 22.3763 25.9577 22.948 26.7301C25.496 25.9571 27.8939 24.7559 30.0387 23.1781C30.648 17.1514 29.076 11.9141 25.9054 7.28743H25.904ZM11.5267 19.9661C10.14 19.9661 9.00803 18.7061 9.00803 17.1648C9.00803 15.6221 10.112 14.3621 11.528 14.3621C12.928 14.3621 14.0747 15.6221 14.0454 17.1648C14.0454 18.7061 12.928 19.9648 11.5267 19.9648V19.9661ZM20.8254 19.9661C19.4387 19.9661 18.3054 18.7061 18.3054 17.1648C18.3054 15.6221 19.4094 14.3621 20.8254 14.3621C22.2254 14.3621 23.372 15.6221 23.344 17.1648C23.344 18.7061 22.24 19.9648 20.824 19.9648L20.8254 19.9661Z" fill="white"/>
</svg>
