<svg width="33" height="33" viewBox="0 0 33 33" fill="none" xmlns="http://www.w3.org/2000/svg">
<path d="M27.6393 10.1129C27.6393 9.83241 27.6347 9.55375 27.6229 9.27861C28.7446 8.3836 29.7175 7.26439 30.4874 5.98312C29.4578 6.47808 28.3524 6.8096 27.1905 6.94739C28.3764 6.16734 29.2857 4.91846 29.7152 3.41999C28.6052 4.14021 27.3775 4.65666 26.0714 4.92352C25.0251 3.64921 23.5324 2.83843 21.882 2.80818C18.7126 2.75209 16.1435 5.6184 16.1435 9.2105C16.1435 9.71994 16.1931 10.2163 16.2924 10.6937C11.5195 10.3648 7.28997 7.70646 4.46111 3.69769C3.96755 4.65826 3.68407 5.78044 3.68407 6.98369C3.68407 9.25802 4.69704 11.2798 6.23706 12.4727C5.29475 12.4274 4.41148 12.1222 3.63696 11.6215C3.63696 11.649 3.63696 11.6767 3.63696 11.7044C3.63696 14.8835 5.61607 17.5473 8.24158 18.1697C7.76005 18.3163 7.25218 18.3927 6.73023 18.3897C6.35944 18.387 6.0007 18.3447 5.65118 18.2634C6.38089 20.8691 8.50128 22.7725 11.0116 22.8352C9.04702 24.5799 6.57206 25.6208 3.88489 25.6138C3.42184 25.6138 2.96356 25.5801 2.51526 25.5197C5.05622 27.3852 8.07194 28.4713 11.3143 28.4713C21.8677 28.4751 27.6393 18.6432 27.6393 10.1129Z" fill="white"/>
</svg>
