<svg width="24" height="25" viewBox="0 0 24 25" fill="none" xmlns="http://www.w3.org/2000/svg">
<g clip-path="url(#clip0_9_3132)">
<rect x="6" y="6.2345" width="13" height="11" fill="black"/>
<path fill-rule="evenodd" clip-rule="evenodd" d="M12 22.2345C17.523 22.2345 22 17.7575 22 12.2345C22 6.7115 17.523 2.2345 12 2.2345C6.477 2.2345 2 6.7115 2 12.2345C2 17.7575 6.477 22.2345 12 22.2345ZM12.005 7.9925C11.8175 8.18002 11.7122 8.43433 11.7122 8.6995C11.7122 8.96466 11.8175 9.21897 12.005 9.4065L13.833 11.2345H7.757C7.49178 11.2345 7.23743 11.3399 7.04989 11.5274C6.86236 11.7149 6.757 11.9693 6.757 12.2345C6.757 12.4997 6.86236 12.7541 7.04989 12.9416C7.23743 13.1291 7.49178 13.2345 7.757 13.2345H13.833L12.005 15.0635C11.8228 15.2521 11.722 15.5047 11.7243 15.7669C11.7266 16.0291 11.8318 16.2799 12.0172 16.4653C12.2026 16.6507 12.4534 16.7559 12.7156 16.7582C12.9778 16.7604 13.2304 16.6597 13.419 16.4775L16.954 12.9415C17.1415 12.754 17.2468 12.4997 17.2468 12.2345C17.2468 11.9693 17.1415 11.715 16.954 11.5275L13.42 7.9925C13.2325 7.80503 12.9782 7.69971 12.713 7.69971C12.4478 7.69971 12.1925 7.80503 12.005 7.9925Z" fill="white"/>
</g>
<defs>
<clipPath id="clip0_9_3132">
<rect width="24" height="24" fill="white" transform="translate(0 0.234497)"/>
</clipPath>
</defs>
</svg>
