<svg width="33" height="33" viewBox="0 0 33 33" fill="none" xmlns="http://www.w3.org/2000/svg">
<path d="M27.6393 9.9961C27.6393 9.71559 27.6347 9.43693 27.6229 9.16179C28.7446 8.26678 29.7174 7.14757 30.4873 5.8663C29.4577 6.36126 28.3524 6.69278 27.1905 6.83057C28.3764 6.05052 29.2857 4.80164 29.7151 3.30317C28.6051 4.02339 27.3775 4.53984 26.0713 4.80669C25.025 3.53239 23.5324 2.72161 21.882 2.69136C18.7125 2.63527 16.1434 5.50158 16.1434 9.09368C16.1434 9.60312 16.1931 10.0995 16.2923 10.5769C11.5194 10.248 7.28992 7.58964 4.46106 3.58087C3.9675 4.54143 3.68402 5.66362 3.68402 6.86687C3.68402 9.1412 4.69699 11.163 6.23701 12.3558C5.2947 12.3106 4.41143 12.0054 3.63691 11.5047C3.63691 11.5322 3.63691 11.5598 3.63691 11.5876C3.63691 14.7667 5.61602 17.4305 8.24153 18.0529C7.76 18.1995 7.25213 18.2759 6.73018 18.2729C6.35939 18.2702 6.00065 18.2279 5.65113 18.1466C6.38084 20.7523 8.50123 22.6556 11.0116 22.7184C9.04697 24.463 6.57201 25.504 3.88484 25.497C3.42179 25.497 2.96351 25.4633 2.51521 25.4028C5.05617 27.2683 8.07189 28.3545 11.3142 28.3545C21.8677 28.3582 27.6393 18.5264 27.6393 9.9961Z" fill="white"/>
</svg>
