<svg width="33" height="33" viewBox="0 0 33 33" fill="none" xmlns="http://www.w3.org/2000/svg">
<path d="M26.8334 6.04121L24.8867 5.84121C19.0621 5.24124 13.1913 5.24124 7.3667 5.84121L5.50003 6.04121C4.3877 6.16693 3.36197 6.70213 2.62257 7.54258C1.88317 8.38304 1.48302 9.4686 1.50003 10.5879V21.5212C1.48302 22.6405 1.88317 23.7261 2.62257 24.5665C3.36197 25.407 4.3877 25.9422 5.50003 26.0679L7.4467 26.2679C13.2713 26.8679 19.1421 26.8679 24.9667 26.2679L26.8334 26.0679C27.9457 25.9422 28.9714 25.407 29.7108 24.5665C30.4502 23.7261 30.8504 22.6405 30.8334 21.5212V10.5879C30.8504 9.4686 30.4502 8.38304 29.7108 7.54258C28.9714 6.70213 27.9457 6.16693 26.8334 6.04121ZM20.1667 16.8812L14.98 20.3479C14.8315 20.4294 14.6646 20.4719 14.4951 20.4713C14.3256 20.4707 14.1591 20.427 14.0111 20.3443C13.8632 20.2617 13.7386 20.1428 13.6492 19.9988C13.5598 19.8548 13.5085 19.6905 13.5 19.5212V12.5879C13.5004 12.4065 13.55 12.2286 13.6437 12.0733C13.7374 11.918 13.8715 11.791 14.0318 11.7061C14.1921 11.6212 14.3724 11.5814 14.5536 11.5911C14.7347 11.6008 14.9098 11.6596 15.06 11.7612L20.2467 15.2279C20.3843 15.3175 20.4973 15.4401 20.5755 15.5844C20.6538 15.7288 20.6947 15.8904 20.6947 16.0545C20.6947 16.2187 20.6538 16.3803 20.5755 16.5247C20.4973 16.669 20.3843 16.7916 20.2467 16.8812H20.1667Z" fill="white"/>
</svg>
