<svg width="25" height="25" viewBox="0 0 25 25" fill="none" xmlns="http://www.w3.org/2000/svg">
<g clip-path="url(#clip0_9_2112)">
<rect x="6.33337" y="6.05457" width="13" height="11" fill="black"/>
<path fill-rule="evenodd" clip-rule="evenodd" d="M12.3334 22.0546C17.8564 22.0546 22.3334 17.5776 22.3334 12.0546C22.3334 6.53157 17.8564 2.05457 12.3334 2.05457C6.81037 2.05457 2.33337 6.53157 2.33337 12.0546C2.33337 17.5776 6.81037 22.0546 12.3334 22.0546ZM12.3384 7.81257C12.1509 8.00009 12.0456 8.2544 12.0456 8.51957C12.0456 8.78473 12.1509 9.03904 12.3384 9.22657L14.1664 11.0546H8.09037C7.82516 11.0546 7.5708 11.1599 7.38327 11.3475C7.19573 11.535 7.09037 11.7893 7.09037 12.0546C7.09037 12.3198 7.19573 12.5741 7.38327 12.7617C7.5708 12.9492 7.82516 13.0546 8.09037 13.0546H14.1664L12.3384 14.8836C12.1562 15.0722 12.0554 15.3248 12.0577 15.587C12.06 15.8492 12.1651 16.1 12.3506 16.2854C12.536 16.4708 12.7868 16.576 13.049 16.5782C13.3112 16.5805 13.5638 16.4797 13.7524 16.2976L17.2874 12.7616C17.4748 12.574 17.5802 12.3197 17.5802 12.0546C17.5802 11.7894 17.4748 11.5351 17.2874 11.3476L13.7534 7.81257C13.5658 7.62509 13.3115 7.51978 13.0464 7.51978C12.7812 7.51978 12.5259 7.62509 12.3384 7.81257Z" fill="white"/>
</g>
<defs>
<clipPath id="clip0_9_2112">
<rect width="24" height="24" fill="white" transform="translate(0.333374 0.0545654)"/>
</clipPath>
</defs>
</svg>
