<svg width="25" height="25" viewBox="0 0 25 25" fill="none" xmlns="http://www.w3.org/2000/svg">
<g clip-path="url(#clip0_9_2120)">
<rect x="6.66669" y="6.05457" width="13" height="11" fill="black"/>
<path fill-rule="evenodd" clip-rule="evenodd" d="M12.6667 22.0546C18.1897 22.0546 22.6667 17.5776 22.6667 12.0546C22.6667 6.53157 18.1897 2.05457 12.6667 2.05457C7.14369 2.05457 2.66669 6.53157 2.66669 12.0546C2.66669 17.5776 7.14369 22.0546 12.6667 22.0546ZM12.6717 7.81257C12.4842 8.00009 12.3789 8.2544 12.3789 8.51957C12.3789 8.78473 12.4842 9.03904 12.6717 9.22657L14.4997 11.0546H8.42369C8.15847 11.0546 7.90412 11.1599 7.71658 11.3475C7.52904 11.535 7.42369 11.7893 7.42369 12.0546C7.42369 12.3198 7.52904 12.5741 7.71658 12.7617C7.90412 12.9492 8.15847 13.0546 8.42369 13.0546H14.4997L12.6717 14.8836C12.4895 15.0722 12.3887 15.3248 12.391 15.587C12.3933 15.8492 12.4985 16.1 12.6839 16.2854C12.8693 16.4708 13.1201 16.576 13.3823 16.5782C13.6445 16.5805 13.8971 16.4797 14.0857 16.2976L17.6207 12.7616C17.8082 12.574 17.9135 12.3197 17.9135 12.0546C17.9135 11.7894 17.8082 11.5351 17.6207 11.3476L14.0867 7.81257C13.8992 7.62509 13.6449 7.51978 13.3797 7.51978C13.1145 7.51978 12.8592 7.62509 12.6717 7.81257Z" fill="white"/>
</g>
<defs>
<clipPath id="clip0_9_2120">
<rect width="24" height="24" fill="white" transform="translate(0.666687 0.0545654)"/>
</clipPath>
</defs>
</svg>
