<svg width="32" height="32" viewBox="0 0 32 32" fill="none" xmlns="http://www.w3.org/2000/svg">
<path d="M27.1393 9.94157C27.1393 9.66106 27.1347 9.3824 27.1229 9.10725C28.2446 8.21225 29.2175 7.09304 29.9874 5.81176C28.9578 6.30672 27.8524 6.63824 26.6905 6.77604C27.8764 5.99599 28.7857 4.74711 29.2152 3.24864C28.1052 3.96885 26.8775 4.4853 25.5714 4.75216C24.5251 3.47786 23.0324 2.66708 21.382 2.63683C18.2126 2.58074 15.6435 5.44705 15.6435 9.03914C15.6435 9.54859 15.6931 10.045 15.7924 10.5223C11.0195 10.1934 6.78997 7.5351 3.96111 3.52633C3.46755 4.4869 3.18407 5.60908 3.18407 6.81233C3.18407 9.08666 4.19704 11.1085 5.73706 12.3013C4.79475 12.2561 3.91148 11.9509 3.13696 11.4501C3.13696 11.4776 3.13696 11.5053 3.13696 11.5331C3.13696 14.7122 5.11607 17.376 7.74158 17.9983C7.26005 18.1449 6.75218 18.2214 6.23023 18.2184C5.85944 18.2156 5.5007 18.1734 5.15118 18.0921C5.88089 20.6978 8.00128 22.6011 10.5116 22.6639C8.54702 24.4085 6.07206 25.4494 3.38489 25.4425C2.92184 25.4425 2.46356 25.4088 2.01526 25.3483C4.55622 27.2138 7.57194 28.3 10.8143 28.3C21.3677 28.3037 27.1393 18.4718 27.1393 9.94157Z" fill="white"/>
</svg>
