<svg width="32" height="32" viewBox="0 0 32 32" fill="none" xmlns="http://www.w3.org/2000/svg">
<path d="M26.6666 5.98668L24.72 5.78668C18.8954 5.18671 13.0245 5.18671 7.19995 5.78668L5.33329 5.98668C4.22096 6.1124 3.19523 6.64759 2.45582 7.48805C1.71642 8.32851 1.31627 9.41406 1.33329 10.5333V21.4667C1.31627 22.586 1.71642 23.6715 2.45582 24.512C3.19523 25.3524 4.22096 25.8876 5.33329 26.0133L7.27995 26.2133C13.1045 26.8133 18.9754 26.8133 24.8 26.2133L26.6666 26.0133C27.7789 25.8876 28.8047 25.3524 29.5441 24.512C30.2835 23.6715 30.6836 22.586 30.6666 21.4667V10.5333C30.6836 9.41406 30.2835 8.32851 29.5441 7.48805C28.8047 6.64759 27.7789 6.1124 26.6666 5.98668ZM20 16.8267L14.8133 20.2933C14.6647 20.3749 14.4979 20.4174 14.3284 20.4168C14.1589 20.4161 13.9924 20.3724 13.8444 20.2898C13.6964 20.2072 13.5719 20.0883 13.4825 19.9443C13.3931 19.8003 13.3417 19.636 13.3333 19.4667V12.5333C13.3336 12.352 13.3833 12.1741 13.4769 12.0188C13.5706 11.8634 13.7048 11.7365 13.865 11.6516C14.0253 11.5666 14.2057 11.5269 14.3868 11.5366C14.5679 11.5463 14.743 11.6051 14.8933 11.7067L20.08 15.1733C20.2175 15.263 20.3305 15.3855 20.4088 15.5299C20.487 15.6742 20.528 15.8358 20.528 16C20.528 16.1642 20.487 16.3258 20.4088 16.4701C20.3305 16.6145 20.2175 16.737 20.08 16.8267H20Z" fill="white"/>
</svg>
