<svg width="32" height="32" viewBox="0 0 32 32" fill="none" xmlns="http://www.w3.org/2000/svg">
<path d="M25.7373 7.11601C23.895 6.27039 21.9494 5.67102 19.9506 5.33334C19.6959 5.77201 19.4133 6.36668 19.2146 6.83334C17.0891 6.52209 14.9295 6.52209 12.8039 6.83334C12.6053 6.36668 12.3066 5.77201 12.0666 5.33334C10.066 5.66704 8.11904 6.26656 6.27728 7.11601C2.61462 12.5213 1.62395 17.8 2.11995 23.0067C4.26609 24.5824 6.66352 25.7834 9.21062 26.5587C9.78282 25.7863 10.2895 24.9674 10.7253 24.1107C9.88928 23.7987 9.09862 23.4173 8.33328 22.964C8.53195 22.8227 8.72928 22.6667 8.91328 22.5107C13.5266 24.62 18.5226 24.62 23.0786 22.5107C23.2773 22.6667 23.4613 22.8227 23.6586 22.964C22.8946 23.4173 22.1026 23.7987 21.2679 24.1107C21.7033 24.9674 22.2095 25.7862 22.7813 26.5587C25.3293 25.7857 27.7271 24.5845 29.8719 23.0067C30.4813 16.98 28.9093 11.7427 25.7386 7.11601H25.7373ZM11.3599 19.7947C9.97328 19.7947 8.84128 18.5347 8.84128 16.9933C8.84128 15.4507 9.94528 14.1907 11.3613 14.1907C12.7613 14.1907 13.9079 15.4507 13.8786 16.9933C13.8786 18.5347 12.7613 19.7933 11.3599 19.7933V19.7947ZM20.6586 19.7947C19.2719 19.7947 18.1386 18.5347 18.1386 16.9933C18.1386 15.4507 19.2426 14.1907 20.6586 14.1907C22.0586 14.1907 23.2053 15.4507 23.1773 16.9933C23.1773 18.5347 22.0733 19.7933 20.6573 19.7933L20.6586 19.7947Z" fill="white"/>
</svg>
