<svg width="36" height="36" viewBox="0 0 36 36" fill="none" xmlns="http://www.w3.org/2000/svg">
<path d="M18.0177 3.375C19.4677 3.375 20.6432 4.55017 20.6432 6.00001C20.6432 7.04732 20.0298 7.95125 19.1427 8.3725L19.1427 12.375H27.7719C29.2072 12.375 30.3734 13.5269 30.3966 14.9566L30.397 15V30C30.397 31.4352 29.2451 32.6015 27.8154 32.6246L27.7719 32.625H8.26339C6.82814 32.625 5.6619 31.4731 5.63873 30.0434L5.63838 30V15C5.63838 13.5648 6.79024 12.3985 8.21997 12.3754L8.26339 12.375H16.8927V8.3725C16.0178 7.95709 15.4091 7.07224 15.3924 6.04339L15.3921 6.00001C15.3921 4.55017 16.5677 3.375 18.0177 3.375ZM21.0188 24H15.0165C14.1877 24 13.5159 24.6716 13.5159 25.5C13.5159 26.3202 14.1744 26.9866 14.9917 26.9998L15.0165 27H21.0188C21.8476 27 22.5194 26.3284 22.5194 25.5C22.5194 24.6798 21.8609 24.0134 21.0436 24.0002L21.0188 24ZM3.01196 18.375C3.62706 18.375 4.12687 18.8686 4.13679 19.4814L4.13696 19.5V25.5C4.13696 26.1213 3.63328 26.625 3.01196 26.625C2.39683 26.625 1.89705 26.1314 1.8871 25.5186L1.88696 25.5V19.5C1.88696 18.8787 2.39065 18.375 3.01196 18.375ZM33.0234 18.375C33.6385 18.375 34.1383 18.8686 34.1482 19.4814L34.1484 19.5V25.5C34.1484 26.1213 33.6447 26.625 33.0234 26.625C32.4083 26.625 31.9085 26.1314 31.8986 25.5186L31.8984 25.5V19.5C31.8984 18.8787 32.4021 18.375 33.0234 18.375ZM12.7657 18C11.937 18 11.2651 18.6716 11.2651 19.5C11.2651 20.3284 11.937 21 12.7657 21C13.5945 21 14.2663 20.3284 14.2663 19.5C14.2663 18.6716 13.5945 18 12.7657 18H12.7657ZM23.2697 18C22.441 18 21.7691 18.6716 21.7691 19.5C21.7691 20.3284 22.441 21 23.2697 21C24.0984 21 24.7703 20.3284 24.7703 19.5C24.7703 18.6716 24.0984 18 23.2697 18ZM18.0177 5.625C17.8101 5.625 17.6421 5.79298 17.6421 6.00001C17.6421 6.20701 17.8101 6.37499 18.0177 6.37499C18.2252 6.37499 18.3932 6.20701 18.3932 6.00001C18.3932 5.79298 18.2252 5.625 18.0177 5.625Z" fill="white"/>
</svg>
