<svg width="72" height="72" viewBox="0 0 72 72" fill="none" xmlns="http://www.w3.org/2000/svg">
<rect width="72" height="72" rx="10" fill="#1A1A1A"/>
<path d="M31.7492 44.3448C33.5468 44.3448 35.004 42.8876 35.004 41.0901C35.004 39.2925 33.5468 37.8353 31.7492 37.8353C29.9517 37.8353 28.4945 39.2925 28.4945 41.0901C28.4945 42.8876 29.9517 44.3448 31.7492 44.3448Z" fill="white"/>
<path d="M40.2543 44.3448C42.0519 44.3448 43.5091 42.8876 43.5091 41.0901C43.5091 39.2925 42.0519 37.8353 40.2543 37.8353C38.4567 37.8353 36.9995 39.2925 36.9995 41.0901C36.9995 42.8876 38.4567 44.3448 40.2543 44.3448Z" fill="white"/>
<path d="M35.9999 27.6553C27.1626 27.6553 19.9977 34.9567 20 43.9607H24.0875C24.0875 37.2129 29.3787 31.742 35.9999 31.742C42.6213 31.742 47.9125 37.2129 47.9125 43.9607H52C52.0016 34.9567 44.8366 27.6553 35.9999 27.6553Z" fill="white"/>
</svg>
