<svg width="32" height="32" viewBox="0 0 32 32" fill="none" xmlns="http://www.w3.org/2000/svg">
<g clip-path="url(#clip0_7_293)">
<path d="M24 6.66666C24.3536 6.66666 24.6928 6.80713 24.9428 7.05718C25.1929 7.30723 25.3333 7.64637 25.3333 7.99999V18.6667C25.3333 19.0203 25.1929 19.3594 24.9428 19.6095C24.6928 19.8595 24.3536 20 24 20C23.6464 20 23.3072 19.8595 23.0572 19.6095C22.8071 19.3594 22.6667 19.0203 22.6667 18.6667V11.2187L9.4 24.4853C9.14853 24.7282 8.81172 24.8626 8.46213 24.8596C8.11253 24.8565 7.77812 24.7163 7.5309 24.4691C7.28369 24.2219 7.14347 23.8875 7.14043 23.5379C7.13739 23.1883 7.27179 22.8515 7.51466 22.6L20.7813 9.33332H13.3333C12.9797 9.33332 12.6406 9.19285 12.3905 8.9428C12.1405 8.69275 12 8.35361 12 7.99999C12 7.64637 12.1405 7.30723 12.3905 7.05718C12.6406 6.80713 12.9797 6.66666 13.3333 6.66666H24Z" fill="white"/>
</g>
<defs>
<clipPath id="clip0_7_293">
<rect width="32" height="32" fill="white"/>
</clipPath>
</defs>
</svg>
