<svg width="32" height="32" viewBox="0 0 32 32" fill="none" xmlns="http://www.w3.org/2000/svg">
<path d="M25.7373 7.11592C23.895 6.2703 21.9494 5.67093 19.9506 5.33325C19.6959 5.77192 19.4133 6.36659 19.2146 6.83325C17.0891 6.522 14.9295 6.522 12.8039 6.83325C12.6053 6.36659 12.3066 5.77192 12.0666 5.33325C10.066 5.66695 8.11904 6.26647 6.27728 7.11592C2.61462 12.5213 1.62395 17.7999 2.11995 23.0066C4.26609 24.5823 6.66352 25.7833 9.21062 26.5586C9.78282 25.7862 10.2895 24.9674 10.7253 24.1106C9.88928 23.7986 9.09862 23.4173 8.33328 22.9639C8.53195 22.8226 8.72928 22.6666 8.91328 22.5106C13.5266 24.6199 18.5226 24.6199 23.0786 22.5106C23.2773 22.6666 23.4613 22.8226 23.6586 22.9639C22.8946 23.4173 22.1026 23.7986 21.2679 24.1106C21.7033 24.9673 22.2095 25.7862 22.7813 26.5586C25.3293 25.7856 27.7271 24.5844 29.8719 23.0066C30.4813 16.9799 28.9093 11.7426 25.7386 7.11592H25.7373ZM11.3599 19.7946C9.97328 19.7946 8.84128 18.5346 8.84128 16.9933C8.84128 15.4506 9.94528 14.1906 11.3613 14.1906C12.7613 14.1906 13.9079 15.4506 13.8786 16.9933C13.8786 18.5346 12.7613 19.7933 11.3599 19.7933V19.7946ZM20.6586 19.7946C19.2719 19.7946 18.1386 18.5346 18.1386 16.9933C18.1386 15.4506 19.2426 14.1906 20.6586 14.1906C22.0586 14.1906 23.2053 15.4506 23.1773 16.9933C23.1773 18.5346 22.0733 19.7933 20.6573 19.7933L20.6586 19.7946Z" fill="white"/>
</svg>
