<svg width="40" height="40" viewBox="0 0 40 40" fill="none" xmlns="http://www.w3.org/2000/svg">
<g clip-path="url(#clip0_74_3100)">
<path d="M12.236 16.8075L20.0047 9.04194L27.7766 16.8138L32.2944 12.2929L20.0047 0L7.71503 12.2897L12.236 16.8075Z" fill="black"/>
<path d="M0 20.0016L4.51781 15.4806L9.03878 20.0016L4.51781 24.5194L0 20.0016Z" fill="black"/>
<path d="M12.236 23.1925L20.0047 30.9612L27.7766 23.1893L32.2976 27.704L20.0079 39.9968L7.71503 27.7135L12.236 23.1925Z" fill="black"/>
<path d="M30.9612 20.0016L35.4791 15.4806L40 19.9984L35.4791 24.5225L30.9612 20.0016Z" fill="black"/>
<path d="M24.5889 19.9984L20.0047 15.4111L16.6148 18.8011L16.2231 19.1897L15.4206 19.9921L20.0047 24.5731L24.5889 20.0016V19.9984Z" fill="black"/>
</g>
<defs>
<clipPath id="clip0_74_3100">
<rect width="40" height="40" fill="white"/>
</clipPath>
</defs>
</svg>
