<svg width="50" height="50" viewBox="0 0 50 50" fill="none" xmlns="http://www.w3.org/2000/svg">
<path fill-rule="evenodd" clip-rule="evenodd" d="M31.8573 22.9912V17.1321C31.8573 16.947 32.0092 16.7923 32.197 16.7923H33.6853C33.8717 16.7923 34.0235 16.947 34.0235 17.1321V20.5422C34.0235 20.857 33.9753 21.1634 33.8841 21.456C33.793 21.7543 33.655 22.0359 33.4837 22.2872C33.3387 22.497 33.1689 22.6904 32.9811 22.8587C32.8031 23.0161 32.6029 23.1571 32.3848 23.273C32.331 23.3088 32.2661 23.331 32.197 23.331C32.0091 23.3309 31.8573 23.1791 31.8573 22.9912ZM32.5366 17.4716V22.345C32.683 22.2154 32.8127 22.0662 32.9232 21.9061C33.0584 21.7072 33.1661 21.4891 33.2381 21.2572C33.3071 21.0335 33.3457 20.7933 33.3457 20.5421V17.4716H32.5366ZM18.0253 17.1321V22.9912C18.0239 23.0438 18.01 23.0962 17.9851 23.1459C17.8997 23.3115 17.6952 23.3751 17.5295 23.2896C17.3004 23.1707 17.089 23.0244 16.9028 22.8587C16.7136 22.6904 16.5438 22.4971 16.4003 22.2872C16.2263 22.0359 16.0895 21.7543 15.9972 21.456C15.9075 21.1634 15.8592 20.8569 15.8592 20.5422V17.1321C15.8592 16.947 16.011 16.7923 16.1988 16.7923H17.6857C17.8719 16.7923 18.0253 16.947 18.0253 17.1321ZM23.9107 15.4035C23.7229 15.4035 23.5711 15.2516 23.5711 15.0638C23.5711 14.876 23.7229 14.7241 23.9107 14.7241H31.8573V13.5811H18.0253V15.5388C18.0253 15.7266 17.8719 15.8785 17.6856 15.8785H15.0611V20.658C15.0611 21.097 15.1329 21.514 15.2655 21.9033C15.402 22.3091 15.6065 22.6875 15.8618 23.0216C16.1102 23.3447 16.4057 23.6263 16.7371 23.8582C17.0629 24.0874 17.4273 24.2669 17.8153 24.3884C17.9423 24.4271 18.0403 24.5403 18.0528 24.6811C18.1148 25.3713 18.2833 26.0395 18.5402 26.658L18.5457 26.6719C18.8122 27.3152 19.1739 27.9115 19.6116 28.4418C20.0561 28.9775 20.5806 29.4468 21.1633 29.8308C21.7349 30.2062 22.37 30.5017 23.0436 30.6949C23.1624 30.7281 23.2563 30.8247 23.2839 30.9518C23.375 31.3825 23.4108 31.8188 23.3999 32.2523C23.3887 32.6803 23.3307 33.1082 23.2369 33.5335L23.2342 33.5445C23.1347 33.9945 22.9926 34.4417 22.82 34.8892C22.671 35.2701 22.4998 35.6513 22.3134 36.0323H27.5609C27.3842 35.6789 27.2199 35.3199 27.0749 34.9555L27.0611 34.9279C26.8885 34.4916 26.7464 34.0444 26.6442 33.5915C26.5475 33.1635 26.4894 32.7272 26.4798 32.2882C26.4702 31.8464 26.5074 31.399 26.6027 30.9489C26.6275 30.8302 26.7174 30.7281 26.8429 30.6948C27.5165 30.4989 28.1489 30.2061 28.7206 29.8307C29.3033 29.4467 29.8263 28.9775 30.2709 28.439C30.7099 27.9088 31.0731 27.3124 31.3383 26.6718C31.5966 26.0478 31.7647 25.3796 31.8297 24.6838C31.8408 24.5485 31.9304 24.427 32.0673 24.3856C32.4565 24.2641 32.8211 24.0846 33.1469 23.8582C33.4783 23.6263 33.7736 23.3419 34.0194 23.0216C34.2761 22.6875 34.4805 22.3091 34.6185 21.9033C34.7499 21.514 34.823 21.0944 34.823 20.658V15.8785H32.197C32.0092 15.8785 31.8573 15.7266 31.8573 15.5388V15.4035H23.9107ZM22.2015 14.7242C22.3891 14.7242 22.5412 14.8761 22.5412 15.0639C22.5412 15.2517 22.3892 15.4036 22.2015 15.4036H20.5227C20.3349 15.4036 20.1831 15.2517 20.1831 15.0639C20.1831 14.8761 20.3349 14.7242 20.5227 14.7242H22.2015ZM19.6157 38.7549H30.2683V36.7115H27.7875C25.0636 36.7115 22.3396 36.7115 19.6158 36.7115C19.6157 38.1031 19.6157 36.764 19.6157 38.7549ZM27.5871 37.1837C27.7749 37.1837 27.9267 37.3384 27.9267 37.5234C27.9267 37.7112 27.7749 37.8631 27.5871 37.8631H26.6221C26.4343 37.8631 26.2824 37.7112 26.2824 37.5234C26.2824 37.3384 26.4343 37.1837 26.6221 37.1837H27.5871ZM27.4781 20.1887C26.8291 19.5398 25.9319 19.1366 24.942 19.1366C23.9591 19.1366 23.0684 19.5315 22.4224 20.1721L22.4058 20.1888C21.757 20.8376 21.3552 21.7349 21.3552 22.7235C21.3552 23.7147 21.7571 24.6121 22.4058 25.261C23.0534 25.9099 23.9507 26.3102 24.9421 26.3102C25.932 26.3102 26.8292 25.9098 27.4782 25.261C28.127 24.612 28.5289 23.7147 28.5289 22.7235C28.5289 21.7406 28.1341 20.8514 27.4948 20.2053L27.4781 20.1887ZM24.942 18.4574C26.1196 18.4574 27.1854 18.9351 27.9587 19.7082L27.9778 19.7304C28.7371 20.5007 29.2066 21.5583 29.2066 22.7235C29.2066 23.9025 28.7288 24.9682 27.9587 25.7414C27.1854 26.5118 26.1196 26.9894 24.942 26.9894C23.7657 26.9894 22.6984 26.5117 21.9268 25.7385C21.1551 24.9681 20.6759 23.9024 20.6759 22.7234C20.6759 21.5471 21.1536 20.4785 21.9253 19.7081L21.946 19.6889C22.7151 18.9296 23.774 18.4574 24.942 18.4574ZM25.2609 22.174L24.942 21.1855L24.623 22.174C24.5788 22.3092 24.4505 22.4087 24.3 22.4087L23.2603 22.4059L24.0956 23.0107C24.2171 23.0935 24.2738 23.2481 24.2268 23.3945L23.9036 24.3828L24.7418 23.7727C24.8578 23.687 25.0192 23.6816 25.1407 23.7699L25.9802 24.3828L25.657 23.3945C25.6142 23.259 25.6584 23.1045 25.7799 23.0161L26.6221 22.4059L25.6032 22.4087C25.4528 22.4169 25.3092 22.3258 25.2609 22.174ZM25.4072 20.4234L25.8296 21.7322L27.2297 21.7294C27.3815 21.7294 27.5084 21.8288 27.5527 21.9641L27.6355 22.2208C27.6811 22.3645 27.6272 22.5136 27.5113 22.5991L26.3779 23.4192L26.8129 24.7529C26.8638 24.9074 26.7963 25.0731 26.6608 25.1504L26.4565 25.2884C26.3309 25.3739 26.1679 25.3631 26.0562 25.2745L24.9421 24.4627L23.8087 25.2883C23.6872 25.3767 23.5269 25.3712 23.4109 25.2883L23.1927 25.1311C23.0726 25.0426 23.0272 24.8881 23.0713 24.7528L23.5048 23.4191L22.3714 22.599C22.2485 22.5107 22.2029 22.3506 22.2499 22.2153L22.3312 21.964C22.3782 21.8149 22.5218 21.721 22.6736 21.7293L24.0543 21.7321L24.4849 20.4011C24.5305 20.2574 24.6645 20.1637 24.8065 20.1637H25.076C25.236 20.1639 25.3714 20.2742 25.4072 20.4234ZM30.4932 5.86926C30.6839 6.20061 30.9088 6.52092 31.167 6.82737C31.4239 7.12844 31.7027 7.40442 31.9981 7.65032C32.3034 7.90149 32.6277 8.12239 32.9646 8.31292C33.3096 8.50618 33.6671 8.66633 34.0302 8.79065C34.3906 8.9176 34.7593 9.00872 35.1319 9.06956C35.1362 8.69397 35.1071 8.31291 35.0451 7.93733C34.9828 7.55637 34.8835 7.17805 34.751 6.80247C34.6183 6.43528 34.4555 6.07913 34.2608 5.73948C34.0703 5.41086 33.8453 5.08791 33.5884 4.78411C33.3316 4.48049 33.0512 4.20422 32.7545 3.95852C32.4509 3.70735 32.1277 3.48635 31.7909 3.29583C31.4457 3.10256 31.0883 2.94241 30.7251 2.81819C30.3648 2.69387 29.9934 2.60002 29.6206 2.53938C29.6178 2.91487 29.6469 3.29583 29.7089 3.67141C29.7723 4.05247 29.8704 4.43069 30.0042 4.80627C30.1358 5.17346 30.2999 5.52961 30.4932 5.86926ZM18.7832 6.82727C19.0398 6.52083 19.2664 6.20051 19.4568 5.86916C19.6501 5.52952 19.8144 5.17336 19.9455 4.80608C20.0796 4.43049 20.1775 4.05227 20.2409 3.67122C20.3031 3.29563 20.3321 2.91467 20.3279 2.53918C19.9566 2.59983 19.5852 2.69368 19.2249 2.81799C18.8617 2.94211 18.5041 3.10237 18.159 3.29563C17.822 3.48616 17.499 3.70715 17.1954 3.95833C16.8972 4.20413 16.6182 4.4803 16.3615 4.78391C16.1047 5.08772 15.8796 5.41067 15.689 5.73928C15.4944 6.07893 15.3314 6.43508 15.1989 6.80227C15.0665 7.17786 14.9669 7.55618 14.9049 7.93713C14.8427 8.31272 14.8124 8.69377 14.8165 9.06936C15.1893 9.00852 15.5594 8.91731 15.9195 8.79045C16.2826 8.66624 16.6402 8.50608 16.9854 8.31272C17.3223 8.12219 17.6467 7.90129 17.9518 7.65012C18.2475 7.40432 18.5263 7.12835 18.7832 6.82727ZM11.0132 10.0302C11.3721 9.69065 11.7477 9.36487 12.1342 9.05002C12.6326 8.64416 13.1531 8.26311 13.6874 7.90696C13.8517 7.79651 14.0754 7.84348 14.1844 8.00637C14.2935 8.172 14.2479 8.39299 14.0836 8.50344C13.5645 8.84856 13.0648 9.21848 12.5843 9.60793C12.1231 9.98352 11.6759 10.3811 11.2478 10.7981C11.2851 10.9444 11.3169 11.0963 11.3445 11.2453C11.419 11.6568 11.4578 12.0848 11.4578 12.5292C11.4578 12.971 11.4191 13.399 11.3445 13.8105C11.2672 14.2384 11.1512 14.6526 11.0021 15.0502C10.853 15.4533 10.6652 15.8399 10.447 16.2099C10.229 16.5771 9.97908 16.9196 9.70437 17.2398L9.69324 17.2508C9.41169 16.9278 9.15759 16.5771 8.93953 16.2099C8.72146 15.8454 8.53357 15.4561 8.38181 15.0502C8.23406 14.6526 8.11804 14.2384 8.04216 13.8105C7.96765 13.399 7.92888 12.971 7.92888 12.5292C7.92888 12.0847 7.96755 11.6567 8.04216 11.2453C8.11951 10.8173 8.23406 10.4032 8.38181 10.0056C8.5323 9.60237 8.72009 9.21594 8.93953 8.84592C9.15613 8.48147 9.40476 8.13626 9.68084 7.81594L9.69314 7.80491C9.97488 8.13088 10.226 8.47864 10.4442 8.84592C10.6637 9.21038 10.8515 9.59973 11.002 10.0056L11.0132 10.0302ZM6.09001 19.3382L6.08318 19.3574C6.25574 19.5232 6.4199 19.6999 6.57742 19.8848C6.85212 20.2106 7.10193 20.5614 7.31873 20.9368C7.53689 21.3178 7.71921 21.7127 7.86267 22.1103C8.00906 22.5161 8.11677 22.9332 8.18591 23.35C8.25769 23.7808 8.28943 24.2115 8.28386 24.6367C8.27683 25.062 8.23279 25.49 8.15125 25.9097C7.74675 25.7716 7.35476 25.5949 6.98181 25.3878C6.60916 25.1807 6.25144 24.9377 5.91609 24.6615C5.59578 24.3964 5.28923 24.0955 5.01042 23.7669C4.73689 23.4438 4.48982 23.096 4.27166 22.7204L4.25662 22.6955C4.03982 22.3173 3.85886 21.9281 3.71814 21.5332C3.57175 21.1274 3.46404 20.7103 3.39363 20.2906C3.32185 19.8625 3.29011 19.4319 3.29558 19.0068C3.30125 18.5815 3.34529 18.1563 3.4282 17.731C3.83396 17.8719 4.22605 18.0459 4.5989 18.2557C4.90808 18.4269 5.20642 18.6229 5.48933 18.8439C5.67859 18.2391 5.89392 17.6454 6.13416 17.0683C6.41843 16.3891 6.73601 15.7264 7.08679 15.0913C7.18064 14.9174 7.39871 14.8538 7.57283 14.9506C7.74675 15.0445 7.81013 15.2625 7.71492 15.4364C7.37527 16.055 7.06755 16.6902 6.79695 17.3446C6.52634 17.9936 6.28884 18.6589 6.09001 19.3382ZM5.80144 29.3999C5.80691 29.4248 5.80964 29.4525 5.80964 29.4774C6.13416 29.5463 6.45447 29.6346 6.76931 29.748C7.16687 29.8915 7.55896 30.0737 7.94001 30.2918C8.31687 30.5127 8.66882 30.7613 8.99343 31.0345C9.32605 31.3162 9.62986 31.6227 9.89773 31.9485C10.1697 32.2798 10.4127 32.636 10.6211 33.0115C10.8309 33.3843 11.0077 33.7791 11.1471 34.1823C10.7247 34.2652 10.2967 34.3092 9.87146 34.3148C9.44617 34.3202 9.01687 34.2899 8.58747 34.2182C8.16785 34.1491 7.75095 34.0387 7.34353 33.895C6.94871 33.7515 6.55662 33.5693 6.17283 33.3484C5.79734 33.1329 5.44519 32.8845 5.12087 32.6083C4.78669 32.3266 4.48582 32.0202 4.21658 31.6944C3.94324 31.363 3.70164 31.0069 3.49177 30.6314C3.28201 30.2586 3.10535 29.8637 2.96716 29.4606C3.38962 29.3777 3.81765 29.3336 4.24285 29.3281C4.51345 29.3226 4.78542 29.3364 5.0575 29.364C4.91111 28.7014 4.79656 28.0304 4.71648 27.3538C4.62937 26.6277 4.58113 25.8794 4.57419 25.1145C4.57283 24.9157 4.73152 24.7529 4.92751 24.7529C5.12634 24.7501 5.28787 24.9101 5.28933 25.1063C5.29617 25.8296 5.34314 26.5531 5.42878 27.271C5.5156 27.9946 5.63992 28.7069 5.80144 29.3999ZM10.6515 38.429C10.6736 38.4539 10.6928 38.4815 10.7081 38.509C11.0822 38.3738 11.4728 38.2689 11.8719 38.1971C12.2834 38.1226 12.7113 38.0839 13.1531 38.0839C13.5963 38.0839 14.0257 38.1226 14.4357 38.1971C14.8623 38.2744 15.2792 38.3876 15.6768 38.5367C16.0785 38.6886 16.4665 38.8765 16.835 39.0945C17.201 39.3126 17.5461 39.5612 17.8636 39.8372L17.876 39.8483C17.5502 40.1299 17.2037 40.3839 16.8391 40.5992C16.4732 40.8174 16.084 41.0051 15.6767 41.157C15.279 41.3061 14.8621 41.4221 14.437 41.4993C14.0256 41.574 13.5961 41.6126 13.153 41.6126C12.7112 41.6126 12.2834 41.5739 11.8719 41.4993C11.4438 41.4221 11.0282 41.3061 10.6307 41.157C10.2289 41.0079 9.84089 40.8201 9.47234 40.602C9.10652 40.3839 8.7614 40.1354 8.44246 39.8593L8.43152 39.8483C8.75456 39.5666 9.10378 39.3126 9.47107 39.0944C9.64792 38.9895 9.83005 38.8901 10.0165 38.8017C9.53054 38.2771 9.07078 37.7249 8.63992 37.1478C8.17878 36.532 7.75085 35.8886 7.36023 35.2205C7.26082 35.0492 7.31746 34.8312 7.48718 34.7318C7.65837 34.6323 7.87791 34.6875 7.97732 34.8587C8.35427 35.5021 8.76853 36.1234 9.21296 36.717C9.6575 37.3135 10.138 37.885 10.6515 38.429ZM42.0214 34.8587C42.1208 34.6875 42.3416 34.6324 42.5115 34.7318C42.6812 34.8312 42.7392 35.0492 42.6385 35.2205C42.2477 35.8887 41.8197 36.5321 41.3586 37.1478C40.928 37.7248 40.4668 38.277 39.9822 38.8017C40.17 38.8901 40.3521 38.9895 40.5303 39.0944C40.8946 39.3125 41.2427 39.5666 41.5685 39.8483L41.5561 39.8593C41.237 40.1354 40.8919 40.3839 40.5275 40.602C40.159 40.82 39.7709 41.0078 39.3693 41.157C38.9703 41.3061 38.5548 41.4221 38.1281 41.4993C37.7166 41.574 37.2875 41.6126 36.8443 41.6126C36.4023 41.6126 35.9745 41.5739 35.5631 41.4993C35.1351 41.4221 34.7194 41.3061 34.3218 41.157C33.9174 41.0079 33.5281 40.8174 33.1608 40.5992C32.7964 40.3839 32.4483 40.1298 32.1225 39.8483L32.135 39.8372C32.454 39.5612 32.7977 39.3126 33.1635 39.0945C33.5336 38.8765 33.9201 38.6886 34.3218 38.5367C34.7209 38.3877 35.135 38.2744 35.563 38.1971C35.9744 38.1226 36.4022 38.0839 36.8442 38.0839C37.2874 38.0839 37.7166 38.1226 38.1266 38.1971C38.527 38.2689 38.9163 38.3739 39.2906 38.509C39.3056 38.4815 39.3251 38.4539 39.3485 38.429C39.8607 37.8851 40.3427 37.3135 40.7871 36.7171C41.2315 36.1234 41.6457 35.5021 42.0214 34.8587ZM44.7093 25.1064C44.7107 24.9102 44.8735 24.7502 45.0694 24.753C45.2683 24.753 45.4257 24.9158 45.4257 25.1146C45.4175 25.8795 45.3691 26.6278 45.282 27.3539C45.202 28.0305 45.0874 28.7015 44.9396 29.3641C45.213 29.3364 45.4865 29.3227 45.757 29.3282C46.1822 29.3338 46.6102 29.3779 47.0327 29.4607C46.8931 29.8638 46.7178 30.2587 46.508 30.6315C46.2983 31.007 46.0552 31.3631 45.7819 31.6945C45.514 32.0203 45.2116 32.3268 44.879 32.6084C44.553 32.8846 44.2011 33.133 43.824 33.3485C43.4431 33.5694 43.051 33.7516 42.6533 33.8951C42.2475 34.0388 41.8306 34.1492 41.4109 34.2183C40.9828 34.29 40.552 34.3203 40.1269 34.3149C39.7017 34.3092 39.2737 34.2652 38.8512 34.1823C38.9921 33.7792 39.1674 33.3844 39.3758 33.0116C39.5857 32.6361 39.8288 32.2799 40.1021 31.9486C40.3699 31.6228 40.6722 31.3162 41.005 31.0346C41.3294 30.7613 41.6815 30.5127 42.0597 30.2919C42.4395 30.0738 42.8329 29.8915 43.2304 29.7481C43.5453 29.6348 43.8655 29.5465 44.1885 29.4775C44.1885 29.4526 44.1913 29.4249 44.1969 29.4C44.3571 28.707 44.484 27.9947 44.5697 27.2712C44.6553 26.5531 44.7023 25.8297 44.7093 25.1064ZM42.2835 15.4365C42.1895 15.2627 42.2517 15.0446 42.4257 14.9479C42.5983 14.854 42.8178 14.9175 42.913 15.0915C43.2636 15.7266 43.5811 16.3893 43.8656 17.0685C44.1058 17.6455 44.3213 18.2392 44.509 18.8441C44.7934 18.623 45.0916 18.427 45.4009 18.2559C45.7722 18.0461 46.1657 17.8721 46.5703 17.7312C46.6517 18.1537 46.6973 18.5817 46.7042 19.007C46.7098 19.4322 46.6765 19.8628 46.6047 20.2907C46.5356 20.7105 46.428 21.1275 46.2816 21.5334C46.1394 21.9282 45.96 22.3175 45.7419 22.6957L45.7266 22.7206C45.5086 23.0962 45.2614 23.444 44.9894 23.7671C44.7093 24.0957 44.4041 24.3966 44.081 24.6617C43.7482 24.9378 43.3908 25.1808 43.0178 25.388C42.6452 25.5951 42.2531 25.7718 41.8471 25.9099C41.7657 25.4902 41.7202 25.0622 41.7147 24.6369C41.7093 24.2117 41.7423 23.781 41.8128 23.3502C41.8832 22.9333 41.9908 22.5163 42.1371 22.1105C42.2807 21.713 42.4603 21.3208 42.6811 20.9398C42.8993 20.5615 43.1477 20.2081 43.4225 19.885C43.5798 19.6972 43.7441 19.5234 43.9153 19.3576L43.9098 19.3384C43.7096 18.6591 43.4735 17.9937 43.203 17.3448C42.9325 16.693 42.6231 16.0551 42.2835 15.4365ZM35.8749 8.47571C35.7092 8.36799 35.6649 8.14436 35.7727 7.97864C35.8831 7.81575 36.1053 7.76887 36.2697 7.87922C36.8135 8.23821 37.3397 8.62483 37.8464 9.03625C38.2385 9.35383 38.6194 9.68518 38.9867 10.0302L38.9966 10.0054C39.1469 9.59954 39.3347 9.21018 39.5527 8.84573C39.7722 8.47844 40.025 8.13069 40.3065 7.80471L40.3176 7.81575C40.5937 8.13606 40.8422 8.48118 41.0603 8.84573C41.2784 9.21575 41.4663 9.60217 41.6154 10.0054C41.7644 10.4031 41.8805 10.8172 41.9578 11.2451C42.0324 11.6566 42.0711 12.0846 42.0711 12.529C42.0711 12.9708 42.0324 13.3988 41.9578 13.8103C41.8805 14.2382 41.7645 14.6524 41.6154 15.05C41.4664 15.4559 41.2785 15.8452 41.059 16.2097C40.8409 16.5769 40.5883 16.9277 40.3065 17.2506L40.2956 17.2396C40.0196 16.9194 39.7709 16.5769 39.5528 16.2097C39.3333 15.8397 39.147 15.4531 38.9967 15.05C38.8475 14.6524 38.7329 14.2382 38.6556 13.8103C38.581 13.3988 38.5424 12.9708 38.5424 12.529C38.5424 12.0845 38.581 11.6565 38.6556 11.2451C38.6818 11.0961 38.7135 10.9442 38.7509 10.7979C38.3174 10.3754 37.8645 9.97229 37.3951 9.59133C36.9089 9.19641 36.3994 8.82366 35.8749 8.47571ZM24.6023 6.50139C24.6023 6.3137 24.7555 6.16184 24.942 6.16184C25.1284 6.16184 25.2816 6.3137 25.2816 6.50139V8.58059C25.2816 8.76838 25.1285 8.92034 24.942 8.92034C24.7554 8.92034 24.6023 8.76838 24.6023 8.58059V6.50139ZM32.5974 10.726C32.7589 10.6323 32.966 10.6903 33.0584 10.8503C33.151 11.0132 33.0958 11.2203 32.9343 11.3114L31.1328 12.3524C30.9712 12.4436 30.7639 12.3883 30.6716 12.2282C30.5791 12.0653 30.6342 11.8582 30.7971 11.767L32.5974 10.726ZM16.9498 11.3114C16.7868 11.2203 16.7316 11.0132 16.8241 10.8503C16.9165 10.6902 17.1236 10.6323 17.2864 10.726L19.0868 11.767C19.2484 11.8582 19.305 12.0653 19.211 12.2282C19.1185 12.3884 18.9115 12.4436 18.7499 12.3524L16.9498 11.3114ZM28.5991 8.52258C28.693 8.36252 28.9001 8.30725 29.063 8.4011C29.2231 8.49231 29.2784 8.70208 29.1859 8.86233L28.5509 9.96125C28.4583 10.1241 28.2499 10.1793 28.0884 10.0855C27.9267 9.99153 27.8716 9.7845 27.9641 9.62161L28.5991 8.52258ZM20.6967 8.86233C20.6041 8.70208 20.6594 8.49231 20.8209 8.4011C20.9825 8.30725 21.1909 8.36252 21.2834 8.52258L21.9184 9.62161C22.0109 9.7845 21.9557 9.99153 21.7956 10.0855C21.6326 10.1793 21.4256 10.1241 21.3317 9.96125L20.6967 8.86233ZM21.3456 35.1073C21.3262 35.2868 21.173 35.4248 20.9893 35.4248C20.7905 35.4248 20.629 35.2647 20.629 35.0658C20.629 35.0272 20.636 34.9912 20.6469 34.9554C20.7326 34.555 20.7878 34.1573 20.7974 33.7598C20.8072 33.4257 20.7851 33.0889 20.727 32.7521C20.0215 32.5284 19.3575 32.2081 18.7529 31.8105C18.0736 31.3658 17.4662 30.822 16.9499 30.1979C16.4418 29.5849 16.0207 28.8891 15.71 28.1408C15.4091 27.4147 15.2116 26.6332 15.137 25.8214C15.1191 25.6254 15.2655 25.4488 15.4615 25.4322C15.6575 25.4156 15.8329 25.5592 15.8495 25.7553C15.917 26.4952 16.0966 27.2048 16.3726 27.8648C16.6528 28.5468 17.0367 29.1791 17.5019 29.7397C17.9713 30.3084 18.5263 30.8027 19.1449 31.2114C19.7538 31.6089 20.4233 31.921 21.137 32.1253C21.2598 32.1611 21.362 32.2633 21.3897 32.3959C21.4862 32.8541 21.525 33.3154 21.5139 33.7766C21.5015 34.2209 21.4423 34.6656 21.3456 35.1073ZM11.8401 45.9035C11.6538 45.9035 11.5005 45.7517 11.5005 45.5638C11.5005 45.3788 11.6538 45.2242 11.8401 45.2242H22.7855C21.7679 45.1165 20.7712 44.9316 19.8035 44.6775C18.09 44.2274 16.4638 43.5592 14.9575 42.7088C14.7849 42.6093 14.7257 42.3912 14.8236 42.2199C14.9203 42.0488 15.1398 41.988 15.3124 42.0846C16.7646 42.9075 18.3316 43.5509 19.9842 43.9817C21.5801 44.4013 23.2617 44.625 24.9984 44.625C26.7351 44.625 28.4167 44.4013 30.0156 43.9817C31.6666 43.5509 33.2351 42.9075 34.6874 42.0846C34.8586 41.988 35.0781 42.0488 35.1761 42.2199C35.2728 42.3912 35.2121 42.6093 35.0409 42.7088C33.536 43.5592 31.9083 44.2274 30.1949 44.6775C29.2273 44.9316 28.2304 45.1165 27.2129 45.2242H33.5251C33.7113 45.2242 33.8645 45.3788 33.8645 45.5638C33.8645 45.7517 33.7114 45.9035 33.5251 45.9035H11.8401ZM22.9208 47.4609C22.7344 47.4609 22.5811 47.3089 22.5811 47.1211C22.5811 46.9334 22.7344 46.7815 22.9208 46.7815H40.6268C40.8146 46.7815 40.9665 46.9334 40.9665 47.1211C40.9665 47.3089 40.8146 47.4609 40.6268 47.4609H22.9208ZM42.4382 47.4609C42.2517 47.4609 42.0999 47.3089 42.0999 47.1211C42.0999 46.9334 42.2517 46.7815 42.4382 46.7815H44.6525C44.8404 46.7815 44.9923 46.9334 44.9923 47.1211C44.9923 47.3089 44.8404 47.4609 44.6525 47.4609H42.4382ZM6.92937 47.4139C6.74177 47.4139 6.58972 47.262 6.58972 47.0742C6.58972 46.8865 6.74167 46.7345 6.92937 46.7345H15.3193C15.5071 46.7345 15.659 46.8865 15.659 47.0742C15.659 47.262 15.5071 47.4139 15.3193 47.4139H6.92937ZM17.346 22.345V17.4716H16.5384V20.5421C16.5384 20.7933 16.5742 21.0335 16.6432 21.2572C16.715 21.4891 16.8226 21.7072 16.9594 21.9061C17.0685 22.0662 17.1997 22.2154 17.346 22.345Z" fill="black" fill-opacity="0.8"/>
</svg>
