<svg width="34" height="34" viewBox="0 0 34 34" fill="none" xmlns="http://www.w3.org/2000/svg">
<rect width="34" height="34" rx="17" fill="#788847"/>
<mask id="mask0_10_4097" style="mask-type:alpha" maskUnits="userSpaceOnUse" x="5" y="5" width="24" height="24">
<rect x="5" y="5" width="24" height="24" fill="#D9D9D9"/>
</mask>
<g mask="url(#mask0_10_4097)">
<path d="M17 25C18.25 25 19.3125 24.5625 20.1875 23.6875C21.0625 22.8125 21.5 21.75 21.5 20.5C21.5 19.25 21.0625 18.1875 20.1875 17.3125C19.3125 16.4375 18.25 16 17 16C15.75 16 14.6875 16.4375 13.8125 17.3125C12.9375 18.1875 12.5 19.25 12.5 20.5C12.5 21.75 12.9375 22.8125 13.8125 23.6875C14.6875 24.5625 15.75 25 17 25ZM14.075 14.7C14.4083 14.5167 14.7625 14.3708 15.1375 14.2625C15.5125 14.1542 15.8917 14.0833 16.275 14.05L13.75 9H11.25L14.075 14.7ZM19.925 14.7L22.775 9H20.25L18.125 13.25L18.6 14.2C18.8333 14.2667 19.0583 14.3375 19.275 14.4125C19.4917 14.4875 19.7083 14.5833 19.925 14.7ZM11.4 23.8C11.1167 23.3167 10.8958 22.7958 10.7375 22.2375C10.5792 21.6792 10.5 21.1 10.5 20.5C10.5 19.9 10.5792 19.3208 10.7375 18.7625C10.8958 18.2042 11.1167 17.6833 11.4 17.2C10.7 17.4333 10.125 17.8458 9.675 18.4375C9.225 19.0292 9 19.7167 9 20.5C9 21.2833 9.225 21.9708 9.675 22.5625C10.125 23.1542 10.7 23.5667 11.4 23.8ZM22.6 23.8C23.3 23.5667 23.875 23.1542 24.325 22.5625C24.775 21.9708 25 21.2833 25 20.5C25 19.7167 24.775 19.0292 24.325 18.4375C23.875 17.8458 23.3 17.4333 22.6 17.2C22.8833 17.6833 23.1042 18.2042 23.2625 18.7625C23.4208 19.3208 23.5 19.9 23.5 20.5C23.5 21.1 23.4208 21.6792 23.2625 22.2375C23.1042 22.7958 22.8833 23.3167 22.6 23.8ZM17 27C16.3333 27 15.6958 26.9042 15.0875 26.7125C14.4792 26.5208 13.9167 26.2583 13.4 25.925C13.25 25.9583 13.1 25.9792 12.95 25.9875C12.8 25.9958 12.6417 26 12.475 26C10.9583 26 9.66667 25.4667 8.6 24.4C7.53333 23.3333 7 22.0417 7 20.525C7 19.075 7.48333 17.8333 8.45 16.8C9.41667 15.7667 10.6083 15.1917 12.025 15.075L8 7H15L17 11L19 7H26L22 15.025C23.4167 15.1583 24.6042 15.7417 25.5625 16.775C26.5208 17.8083 27 19.05 27 20.5C27 22.0333 26.4667 23.3333 25.4 24.4C24.3333 25.4667 23.0333 26 21.5 26C21.35 26 21.1958 25.9958 21.0375 25.9875C20.8792 25.9792 20.725 25.9583 20.575 25.925C20.0583 26.2583 19.5 26.5208 18.9 26.7125C18.3 26.9042 17.6667 27 17 27ZM15.15 23.25L15.85 20.975L14 19.65H16.275L17 17.25L17.725 19.65H20L18.15 20.975L18.85 23.25L17 21.85L15.15 23.25Z" fill="white"/>
</g>
</svg>
