<svg width="32" height="32" viewBox="0 0 32 32" fill="none" xmlns="http://www.w3.org/2000/svg">
<path d="M26.6667 5.98665L24.72 5.78665C18.8954 5.18668 13.0246 5.18668 7.20001 5.78665L5.33335 5.98665C4.22102 6.11237 3.19529 6.64756 2.45588 7.48802C1.71648 8.32847 1.31633 9.41403 1.33335 10.5333V21.4667C1.31633 22.5859 1.71648 23.6715 2.45588 24.5119C3.19529 25.3524 4.22102 25.8876 5.33335 26.0133L7.28001 26.2133C13.1046 26.8133 18.9754 26.8133 24.8 26.2133L26.6667 26.0133C27.779 25.8876 28.8047 25.3524 29.5441 24.5119C30.2835 23.6715 30.6837 22.5859 30.6667 21.4667V10.5333C30.6837 9.41403 30.2835 8.32847 29.5441 7.48802C28.8047 6.64756 27.779 6.11237 26.6667 5.98665ZM20 16.8266L14.8133 20.2933C14.6648 20.3749 14.4979 20.4173 14.3284 20.4167C14.159 20.4161 13.9924 20.3724 13.8445 20.2898C13.6965 20.2071 13.572 20.0882 13.4826 19.9442C13.3931 19.8003 13.3418 19.6359 13.3333 19.4666V12.5333C13.3337 12.3519 13.3833 12.174 13.477 12.0187C13.5707 11.8634 13.7048 11.7365 13.8651 11.6515C14.0254 11.5666 14.2057 11.5269 14.3869 11.5366C14.568 11.5463 14.7431 11.6051 14.8933 11.7066L20.08 15.1733C20.2176 15.2629 20.3306 15.3855 20.4088 15.5298C20.4871 15.6742 20.528 15.8358 20.528 16C20.528 16.1642 20.4871 16.3258 20.4088 16.4701C20.3306 16.6145 20.2176 16.737 20.08 16.8266H20Z" fill="white"/>
</svg>
