<svg width="50" height="50" viewBox="0 0 50 50" fill="none" xmlns="http://www.w3.org/2000/svg">
<path fill-rule="evenodd" clip-rule="evenodd" d="M32.2699 27.1425V21.0685C32.2699 20.9271 32.3853 20.8128 32.5258 20.8128H34.0692C34.2097 20.8128 34.324 20.9271 34.324 21.0685V24.6048C34.324 24.9208 34.275 25.2308 34.1846 25.5221C34.092 25.8238 33.9537 26.1065 33.7799 26.3583C33.6355 26.5705 33.4646 26.7639 33.2745 26.9345C33.0924 27.0967 32.8876 27.2381 32.667 27.3566C32.6264 27.3836 32.5786 27.3982 32.5257 27.3982C32.3853 27.3983 32.2699 27.2839 32.2699 27.1425ZM32.7816 21.3244V26.6785L32.9346 26.5517C33.0957 26.4102 33.2382 26.2479 33.3588 26.0712C33.5045 25.859 33.6211 25.6219 33.6979 25.3723C33.7729 25.1309 33.8134 24.8731 33.8134 24.6048V21.3244H32.7816ZM17.7301 21.0685V27.1425C17.728 27.1841 17.7188 27.2235 17.6989 27.2609C17.6345 27.3858 17.4806 27.4337 17.3557 27.369C17.1332 27.2527 16.9252 27.1091 16.739 26.9448L16.7254 26.9345C16.5352 26.7659 16.3645 26.5704 16.2189 26.3583C16.0452 26.1065 15.9079 25.8237 15.8144 25.5221C15.7249 25.2309 15.6748 24.9209 15.6748 24.6048V21.0685C15.6748 20.9271 15.7893 20.8128 15.9307 20.8128H17.4741C17.6147 20.8128 17.7301 20.9271 17.7301 21.0685ZM22.1191 40.767H27.8757C27.6583 40.3448 27.4586 39.9183 27.2891 39.4898C27.1112 39.0405 26.9635 38.583 26.8595 38.1191C26.7618 37.6803 26.7016 37.235 26.6921 36.7858C26.6816 36.3345 26.7202 35.8789 26.8181 35.4192C26.8366 35.3298 26.9032 35.2528 26.998 35.2258C27.7063 35.022 28.3718 34.712 28.9729 34.3168C29.5846 33.9153 30.1347 33.4223 30.6028 32.8565C31.0604 32.3033 31.4389 31.6813 31.7177 31.0115L31.7229 30.997C31.9952 30.3417 32.1731 29.6388 32.2409 28.9065C32.2491 28.8066 32.3168 28.7151 32.4198 28.684C32.8326 28.555 33.2195 28.3637 33.5658 28.1223C33.9183 27.8768 34.2313 27.5752 34.4936 27.2341C34.765 26.8784 34.9813 26.4791 35.1279 26.0484C35.2684 25.6345 35.3455 25.1892 35.3455 24.7254V19.6709H32.5259C32.3854 19.6709 32.27 19.5564 32.27 19.4149V19.1778H23.9309C23.7895 19.1778 23.675 19.0634 23.675 18.922C23.675 18.7806 23.7895 18.6661 23.9309 18.6661H32.27V17.287H17.7301V19.4149C17.7301 19.5564 17.6147 19.6709 17.4742 19.6709H14.6546V24.7254C14.6546 25.1892 14.7317 25.6345 14.8721 26.0484C15.0177 26.479 15.234 26.8784 15.5064 27.2341C15.7687 27.5773 16.0827 27.8768 16.4342 28.1243C16.7805 28.3656 17.1664 28.5571 17.5803 28.6839C17.6761 28.715 17.7489 28.7983 17.7592 28.9044C17.8259 29.6388 18.0048 30.3438 18.2772 30.999C18.5559 31.675 18.9366 32.3011 19.3982 32.8587C19.8642 33.4223 20.4154 33.9152 21.0291 34.3187C21.6323 34.716 22.299 35.0239 23.0063 35.2278C23.0947 35.2528 23.1664 35.3235 23.1862 35.4192C23.2798 35.8622 23.3172 36.3053 23.3059 36.7483C23.2943 37.1914 23.2341 37.6324 23.1362 38.0713C23.0332 38.5309 22.8878 38.9929 22.7099 39.4504C22.5394 39.8914 22.3385 40.3302 22.1191 40.767ZM30.6214 41.2787C26.874 41.2787 23.1269 41.2787 19.3795 41.2787V41.9632H25.4128C25.5542 41.9632 25.6687 42.0775 25.6687 42.2189C25.6687 42.3603 25.5542 42.4748 25.4128 42.4748H19.3795V43.5896H30.6214V41.2787ZM31.8093 44.1015C27.2695 44.1015 22.7306 44.1015 18.1919 44.1015V45.0686H31.8093V44.1015ZM27.6989 24.168C27.0083 23.4773 26.0547 23.0509 24.9999 23.0509C23.9464 23.0509 22.9917 23.4773 22.3021 24.168C21.6115 24.8584 21.183 25.8133 21.183 26.8678C21.183 27.9203 21.6115 28.8751 22.3021 29.5657C22.9917 30.2562 23.9464 30.6827 24.9999 30.6827C26.0482 30.6827 26.9968 30.2625 27.6863 29.5803L27.6989 29.5658C28.3895 28.8752 28.817 27.9204 28.817 26.8679C28.817 25.8196 28.3958 24.8711 27.7123 24.1804L27.6989 24.168ZM24.9999 22.5392C26.1949 22.5392 27.2776 23.024 28.0607 23.806L28.0753 23.8226C28.8492 24.6049 29.3286 25.6802 29.3286 26.868C29.3286 28.062 28.844 29.1457 28.0607 29.9277L28.0452 29.9424C27.2631 30.7161 26.1868 31.1945 24.9999 31.1945C23.8061 31.1945 22.7224 30.7099 21.9402 29.9276C21.1571 29.1456 20.6724 28.0619 20.6724 26.8679C20.6724 25.6739 21.1571 24.5902 21.9402 23.8081C22.7224 23.024 23.805 22.5392 24.9999 22.5392ZM25.4088 29.3556H25.9412V24.378H25.519C25.4587 24.5069 25.3858 24.6298 25.2984 24.7442C25.1757 24.9063 25.025 25.0583 24.8481 25.1955C24.6797 25.3286 24.5153 25.441 24.3574 25.5305C24.2564 25.5887 24.1576 25.6386 24.06 25.6781V26.0838C24.1775 26.0296 24.2908 25.9715 24.3989 25.9091C24.6039 25.7884 24.7922 25.6469 24.9658 25.4868C25.0126 25.4368 25.0792 25.4036 25.153 25.4036C25.2935 25.4036 25.4089 25.5199 25.4089 25.6594V29.3556H25.4088ZM26.1971 29.8674H25.1529C25.0114 29.8674 24.8972 29.751 24.8972 29.6116V26.194C24.82 26.248 24.74 26.3001 24.659 26.3478C24.4177 26.4892 24.1586 26.6079 23.8841 26.6974C23.7499 26.7432 23.6054 26.6703 23.5606 26.535C23.5522 26.5082 23.5481 26.481 23.5481 26.456V25.5033C23.5481 25.3848 23.6292 25.2849 23.7384 25.2557C23.8539 25.2163 23.9766 25.1601 24.1046 25.0873C24.2408 25.0082 24.3854 24.9104 24.534 24.7939C24.6766 24.6816 24.7962 24.5632 24.8907 24.4362C24.9865 24.3114 25.0592 24.1782 25.1103 24.0369C25.1466 23.9329 25.2455 23.8682 25.3494 23.8682L26.1971 23.8662C26.3375 23.8662 26.4529 23.9826 26.4529 24.1221V29.6114C26.4529 29.7509 26.3375 29.8674 26.1971 29.8674ZM22.1586 18.6661C22.3001 18.6661 22.4145 18.7806 22.4145 18.922C22.4145 19.0634 22.3002 19.1778 22.1586 19.1778H20.4154C20.274 19.1778 20.1596 19.0634 20.1596 18.922C20.1596 18.7806 20.274 18.6661 20.4154 18.6661H22.1586ZM27.7445 41.9632C27.886 41.9632 28.0004 42.0775 28.0004 42.2189C28.0004 42.3603 27.886 42.4748 27.7445 42.4748H26.7422C26.6017 42.4748 26.4874 42.3603 26.4874 42.2189C26.4874 42.0775 26.6017 41.9632 26.7422 41.9632H27.7445ZM24.744 2.79501C24.744 2.6536 24.8585 2.53925 24.9999 2.53925C25.1414 2.53925 25.2559 2.6536 25.2559 2.79501V6.6204C25.2559 6.76171 25.1414 6.87616 24.9999 6.87616C24.8585 6.87616 24.744 6.76171 24.744 6.6204V2.79501ZM40.1972 10.8783C40.3209 10.8117 40.4768 10.8575 40.5436 10.9823C40.6101 11.105 40.5643 11.261 40.4405 11.3275L36.9127 13.2412C36.7899 13.3078 36.6339 13.262 36.5674 13.1373C36.4997 13.0145 36.5467 12.8586 36.6704 12.7921L40.1972 10.8783ZM40.4405 27.4961C40.5643 27.5627 40.61 27.7186 40.5436 27.8414C40.4768 27.9662 40.3209 28.0119 40.1972 27.9453L36.6704 26.0316C36.5467 25.965 36.4997 25.8092 36.5674 25.6864C36.6339 25.5616 36.7899 25.5159 36.9127 25.5823L40.4405 27.4961ZM9.80283 27.9453C9.6791 28.0119 9.52422 27.9662 9.45654 27.8414C9.39004 27.7186 9.43584 27.5627 9.55957 27.4961L13.0874 25.5823C13.2101 25.5159 13.3662 25.5616 13.4327 25.6864C13.5004 25.8092 13.4534 25.9651 13.3308 26.0316L9.80283 27.9453ZM9.55947 11.3275C9.43574 11.2609 9.39004 11.105 9.45645 10.9823C9.52412 10.8575 9.679 10.8117 9.80273 10.8783L13.3306 12.7921C13.4532 12.8587 13.5002 13.0145 13.4325 13.1373C13.366 13.262 13.21 13.3078 13.0872 13.2412L9.55947 11.3275ZM32.5184 6.691C32.5923 6.5705 32.7493 6.533 32.8701 6.60585C32.9897 6.68075 33.0271 6.83885 32.9532 6.95731L31.7103 8.98134C31.6366 9.09989 31.4795 9.13739 31.3588 9.06464C31.2392 8.99178 31.2019 8.83368 31.2755 8.71298L32.5184 6.691ZM40.4718 19.157C40.6131 19.157 40.7275 19.2715 40.7275 19.4107C40.7275 19.5522 40.6131 19.6667 40.4718 19.6667H37.986C37.8456 19.6667 37.7301 19.5522 37.7301 19.4107C37.7301 19.2715 37.8457 19.157 37.986 19.157H40.4718ZM9.52832 19.6667C9.38691 19.6667 9.27246 19.5522 9.27246 19.4107C9.27246 19.2715 9.38691 19.157 9.52832 19.157H12.0141C12.1555 19.157 12.2699 19.2715 12.2699 19.4107C12.2699 19.5522 12.1555 19.6667 12.0141 19.6667H9.52832ZM17.0469 6.95721C16.973 6.83876 17.0104 6.68065 17.131 6.60575C17.2506 6.5329 17.4077 6.5704 17.4826 6.69091L18.7243 8.71278C18.7981 8.83339 18.7608 8.99149 18.6412 9.06444C18.5206 9.1372 18.3624 9.0997 18.2897 8.98114L17.0469 6.95721ZM24.744 10.04C24.744 9.89862 24.8596 9.78417 24.9999 9.78417C25.1414 9.78417 25.2559 9.89862 25.2559 10.04V12.1971C25.2559 12.3385 25.1414 12.4529 24.9999 12.4529C24.8596 12.4529 24.744 12.3385 24.744 12.1971V10.04ZM32.9896 14.5059C33.1113 14.4351 33.2673 14.4767 33.337 14.5995C33.4066 14.7201 33.3641 14.8762 33.2422 14.947L31.3743 16.0244C31.2527 16.0952 31.0968 16.0536 31.027 15.9307C30.9572 15.8102 30.9989 15.6542 31.1206 15.5834L32.9896 14.5059ZM16.7577 14.947C16.6358 14.8762 16.5944 14.7202 16.663 14.5995C16.7338 14.4767 16.8896 14.4351 17.0104 14.5059L18.8805 15.5834C19.0011 15.6542 19.0428 15.8101 18.974 15.9307C18.9032 16.0536 18.7473 16.0952 18.6267 16.0244L16.7577 14.947ZM28.8783 12.1866C28.9479 12.064 29.1041 12.0223 29.2258 12.0931C29.3474 12.1616 29.3891 12.3177 29.3193 12.4405L28.6609 13.5804C28.5914 13.701 28.4353 13.7447 28.3136 13.6739C28.1919 13.6054 28.1502 13.4473 28.22 13.3266L28.8783 12.1866ZM20.6817 12.4405C20.6109 12.3198 20.6526 12.1617 20.7742 12.0931C20.8959 12.0223 21.0521 12.064 21.1227 12.1846L21.7811 13.3266C21.8508 13.4472 21.8092 13.6032 21.6875 13.6739C21.5658 13.7447 21.4098 13.703 21.3392 13.5804L20.6817 12.4405ZM15.0624 46.5247C14.9219 46.5247 14.8065 46.4103 14.8065 46.2688C14.8065 46.1274 14.9219 46.0131 15.0624 46.0131H30.4456C30.586 46.0131 30.7014 46.1274 30.7014 46.2688C30.7014 46.4103 30.586 46.5247 30.4456 46.5247H15.0624ZM24.0702 47.4608C23.9287 47.4608 23.8144 47.3464 23.8144 47.205C23.8144 47.0636 23.9286 46.9491 24.0702 46.9491H34.715C34.8564 46.9491 34.9709 47.0636 34.9709 47.205C34.9709 47.3464 34.8564 47.4608 34.715 47.4608H24.0702ZM35.805 47.4608C35.6637 47.4608 35.5492 47.3464 35.5492 47.205C35.5492 47.0636 35.6637 46.9491 35.805 46.9491H37.1353C37.2767 46.9491 37.3911 47.0636 37.3911 47.205C37.3911 47.3464 37.2767 47.4608 37.1353 47.4608H35.805ZM14.456 47.4316C14.3156 47.4316 14.2001 47.3173 14.2001 47.1758C14.2001 47.0364 14.3156 46.92 14.456 46.92H19.5002C19.6418 46.92 19.7561 47.0364 19.7561 47.1758C19.7561 47.3173 19.6418 47.4316 19.5002 47.4316H14.456ZM21.9434 38.5246C21.9277 38.6516 21.8196 38.7493 21.6896 38.7493C21.5491 38.7493 21.4337 38.6349 21.4337 38.4935C21.4337 38.4665 21.4378 38.4415 21.4452 38.4166C21.5347 38.0152 21.5887 37.6137 21.598 37.2164C21.6074 36.8628 21.5824 36.507 21.518 36.1534C20.8148 35.935 20.1534 35.621 19.5513 35.2257C18.8949 34.7952 18.3063 34.2668 17.8069 33.6636C17.3151 33.0686 16.9085 32.3988 16.6067 31.6729C16.3166 30.9698 16.1252 30.2169 16.0535 29.4306C16.041 29.2911 16.144 29.1664 16.2844 29.1539C16.4237 29.1414 16.5486 29.2433 16.5609 29.3848C16.6276 30.117 16.8065 30.8222 17.079 31.4794C17.3577 32.1555 17.7384 32.7815 18.2002 33.339C18.6661 33.9007 19.2173 34.3956 19.8309 34.7972C20.4341 35.1944 21.1008 35.5044 21.808 35.7061C21.8965 35.7311 21.967 35.804 21.988 35.8997C22.0815 36.3407 22.1181 36.7838 22.1076 37.2287C22.0962 37.6615 22.0379 38.0941 21.9434 38.5246ZM17.2184 26.6807V21.3244H16.1865V24.6048C16.1865 24.8731 16.2271 25.131 16.301 25.3723C16.3789 25.622 16.4944 25.859 16.6401 26.0712C16.7607 26.2479 16.9042 26.4102 17.0645 26.5537L17.2184 26.6807Z" fill="black" fill-opacity="0.8"/>
</svg>
