<svg width="32" height="32" viewBox="0 0 32 32" fill="none" xmlns="http://www.w3.org/2000/svg">
<path d="M27.1392 9.94157C27.1392 9.66106 27.1346 9.3824 27.1228 9.10725C28.2445 8.21225 29.2174 7.09304 29.9872 5.81176C28.9576 6.30672 27.8523 6.63824 26.6904 6.77604C27.8763 5.99599 28.7856 4.74711 29.215 3.24864C28.1051 3.96885 26.8774 4.4853 25.5712 4.75216C24.525 3.47786 23.0323 2.66708 21.3819 2.63683C18.2125 2.58074 15.6433 5.44705 15.6433 9.03914C15.6433 9.54859 15.693 10.045 15.7922 10.5223C11.0193 10.1934 6.78985 7.5351 3.96099 3.52633C3.46743 4.4869 3.18394 5.60908 3.18394 6.81233C3.18394 9.08666 4.19692 11.1085 5.73693 12.3013C4.79463 12.2561 3.91136 11.9509 3.13684 11.4501C3.13684 11.4776 3.13684 11.5053 3.13684 11.5331C3.13684 14.7122 5.11595 17.376 7.74146 17.9983C7.25993 18.1449 6.75205 18.2214 6.2301 18.2184C5.85931 18.2156 5.50058 18.1734 5.15106 18.0921C5.88077 20.6978 8.00116 22.6011 10.5115 22.6639C8.5469 24.4085 6.07194 25.4494 3.38477 25.4425C2.92172 25.4425 2.46344 25.4088 2.01514 25.3483C4.5561 27.2138 7.57182 28.3 10.8141 28.3C21.3676 28.3037 27.1392 18.4718 27.1392 9.94157Z" fill="white"/>
</svg>
