<svg width="36" height="36" viewBox="0 0 36 36" fill="none" xmlns="http://www.w3.org/2000/svg">
<path d="M18.0175 3.375C19.4675 3.375 20.6431 4.55017 20.6431 6.00001C20.6431 7.04732 20.0297 7.95125 19.1426 8.3725L19.1425 12.375H27.7718C29.2071 12.375 30.3733 13.5269 30.3965 14.9566L30.3968 15V30C30.3968 31.4352 29.245 32.6015 27.8152 32.6246L27.7718 32.625H8.26327C6.82802 32.625 5.66178 31.4731 5.63861 30.0434L5.63826 30V15C5.63826 13.5648 6.79012 12.3985 8.21985 12.3754L8.26327 12.375H16.8925V8.3725C16.0177 7.95709 15.409 7.07224 15.3923 6.04339L15.392 6.00001C15.392 4.55017 16.5676 3.375 18.0175 3.375ZM21.0187 24H15.0164C14.1876 24 13.5158 24.6716 13.5158 25.5C13.5158 26.3202 14.1743 26.9866 14.9916 26.9998L15.0164 27H21.0187C21.8475 27 22.5193 26.3284 22.5193 25.5C22.5193 24.6798 21.8608 24.0134 21.0435 24.0002L21.0187 24ZM3.01184 18.375C3.62693 18.375 4.12675 18.8686 4.13667 19.4814L4.13684 19.5V25.5C4.13684 26.1213 3.63316 26.625 3.01184 26.625C2.39671 26.625 1.89693 26.1314 1.88698 25.5186L1.88684 25.5V19.5C1.88684 18.8787 2.39052 18.375 3.01184 18.375ZM33.0233 18.375C33.6384 18.375 34.1382 18.8686 34.1481 19.4814L34.1483 19.5V25.5C34.1483 26.1213 33.6446 26.625 33.0233 26.625C32.4082 26.625 31.9083 26.1314 31.8984 25.5186L31.8983 25.5V19.5C31.8983 18.8787 32.4019 18.375 33.0233 18.375ZM12.7656 18C11.9369 18 11.265 18.6716 11.265 19.5C11.265 20.3284 11.9369 21 12.7656 21C13.5943 21 14.2662 20.3284 14.2662 19.5C14.2662 18.6716 13.5943 18 12.7656 18H12.7656ZM23.2696 18C22.4408 18 21.769 18.6716 21.769 19.5C21.769 20.3284 22.4408 21 23.2696 21C24.0983 21 24.7701 20.3284 24.7701 19.5C24.7701 18.6716 24.0983 18 23.2696 18ZM18.0175 5.625C17.81 5.625 17.642 5.79298 17.642 6.00001C17.642 6.20701 17.81 6.37499 18.0175 6.37499C18.2251 6.37499 18.3931 6.20701 18.3931 6.00001C18.3931 5.79298 18.2251 5.625 18.0175 5.625Z" fill="white"/>
</svg>
