<svg width="32" height="32" viewBox="0 0 32 32" fill="none" xmlns="http://www.w3.org/2000/svg">
<path d="M27.1393 9.9416C27.1393 9.66109 27.1347 9.38243 27.1229 9.10729C28.2446 8.21228 29.2174 7.09307 29.9873 5.81179C28.9577 6.30675 27.8524 6.63827 26.6905 6.77607C27.8764 5.99602 28.7857 4.74714 29.2151 3.24867C28.1051 3.96888 26.8775 4.48533 25.5713 4.75219C24.525 3.47789 23.0323 2.66711 21.3819 2.63686C18.2125 2.58077 15.6434 5.44708 15.6434 9.03917C15.6434 9.54862 15.6931 10.045 15.7923 10.5224C11.0194 10.1935 6.78991 7.53514 3.96105 3.52637C3.46749 4.48693 3.18401 5.60911 3.18401 6.81236C3.18401 9.08669 4.19698 11.1085 5.73699 12.3013C4.79469 12.2561 3.91142 11.9509 3.1369 11.4502C3.1369 11.4777 3.1369 11.5053 3.1369 11.5331C3.1369 14.7122 5.11601 17.376 7.74152 17.9984C7.25999 18.145 6.75211 18.2214 6.23016 18.2184C5.85938 18.2157 5.50064 18.1734 5.15112 18.0921C5.88083 20.6978 8.00122 22.6011 10.5115 22.6639C8.54696 24.4085 6.072 25.4495 3.38483 25.4425C2.92178 25.4425 2.4635 25.4088 2.0152 25.3483C4.55616 27.2138 7.57188 28.3 10.8142 28.3C21.3677 28.3037 27.1393 18.4718 27.1393 9.9416Z" fill="white"/>
</svg>
