<svg width="149" height="13" viewBox="0 0 149 13" fill="none" xmlns="http://www.w3.org/2000/svg">
<path d="M141.993 0.522619C139.135 0.185616 104.802 -0.462265 85.2613 0.522624C47.6509 2.41827 14.2425 7.05205 6.46818 8.73708C-1.30607 10.4221 -1.58321 11.5845 3.0394 12.0057C7.87199 12.4461 16.1335 12.3177 21.1763 11.2646C20.4059 11.756 19.8487 13.2966 21.1763 12.9496C22.37 12.6376 65.0903 9.15834 67.6118 9.15834C70.1334 9.15834 76.647 9.57959 78.9582 9.15834C81.2693 8.73708 136.433 9.72367 140.102 9.79019C146.128 9.89945 148.019 9.89945 148.506 9.57959C149.303 9.05694 147.246 6.4904 146.195 5.57766C148.859 6.3188 149.28 5.89754 148.859 4.84441C148.075 2.87904 145.565 0.943874 141.993 0.522619Z" fill="#EF5DA8"/>
</svg>
