<svg width="60" height="60" viewBox="0 0 60 60" fill="none" xmlns="http://www.w3.org/2000/svg">
<rect width="60" height="60" rx="30" fill="white"/>
<path d="M24.9064 39.9995C27.0604 39.9995 28.8066 38.2533 28.8066 36.0994C28.8066 33.9454 27.0604 32.1992 24.9064 32.1992C22.7525 32.1992 21.0063 33.9454 21.0063 36.0994C21.0063 38.2533 22.7525 39.9995 24.9064 39.9995Z" fill="#201D1D"/>
<path d="M35.0979 39.9995C37.2519 39.9995 38.9981 38.2533 38.9981 36.0994C38.9981 33.9454 37.2519 32.1992 35.0979 32.1992C32.9439 32.1992 31.1977 33.9454 31.1977 36.0994C31.1977 38.2533 32.9439 39.9995 35.0979 39.9995Z" fill="#201D1D"/>
<path d="M29.9999 20.0005C19.4102 20.0005 10.8245 28.7498 10.8273 39.5392H15.7253C15.7253 31.4533 22.0657 24.8977 29.9999 24.8977C37.9343 24.8977 44.2746 31.4533 44.2746 39.5392H49.1727C49.1746 28.7498 40.5888 20.0005 29.9999 20.0005Z" fill="#201D1D"/>
</svg>
