<svg width="32" height="32" viewBox="0 0 32 32" fill="none" xmlns="http://www.w3.org/2000/svg">
<path d="M25.7373 7.11604C23.8951 6.27042 21.9494 5.67105 19.9507 5.33337C19.696 5.77204 19.4133 6.36671 19.2147 6.83337C17.0891 6.52212 14.9296 6.52212 12.804 6.83337C12.6053 6.36671 12.3067 5.77204 12.0667 5.33337C10.0661 5.66707 8.1191 6.26659 6.27734 7.11604C2.61468 12.5214 1.62401 17.8 2.12001 23.0067C4.26615 24.5824 6.66359 25.7834 9.21068 26.5587C9.78288 25.7863 10.2895 24.9675 10.7253 24.1107C9.88934 23.7987 9.09868 23.4174 8.33334 22.964C8.53201 22.8227 8.72934 22.6667 8.91334 22.5107C13.5267 24.62 18.5227 24.62 23.0787 22.5107C23.2773 22.6667 23.4613 22.8227 23.6587 22.964C22.8947 23.4174 22.1027 23.7987 21.268 24.1107C21.7034 24.9674 22.2096 25.7863 22.7813 26.5587C25.3294 25.7857 27.7272 24.5845 29.872 23.0067C30.4813 16.98 28.9093 11.7427 25.7387 7.11604H25.7373ZM11.36 19.7947C9.97334 19.7947 8.84134 18.5347 8.84134 16.9934C8.84134 15.4507 9.94534 14.1907 11.3613 14.1907C12.7613 14.1907 13.908 15.4507 13.8787 16.9934C13.8787 18.5347 12.7613 19.7934 11.36 19.7934V19.7947ZM20.6587 19.7947C19.272 19.7947 18.1387 18.5347 18.1387 16.9934C18.1387 15.4507 19.2427 14.1907 20.6587 14.1907C22.0587 14.1907 23.2053 15.4507 23.1773 16.9934C23.1773 18.5347 22.0733 19.7934 20.6573 19.7934L20.6587 19.7947Z" fill="white"/>
</svg>
