<svg width="32" height="32" viewBox="0 0 32 32" fill="none" xmlns="http://www.w3.org/2000/svg">
<g clip-path="url(#clip0_10_3967)">
<path d="M24 6.66667C24.3536 6.66667 24.6928 6.80715 24.9428 7.0572C25.1929 7.30724 25.3333 7.64638 25.3333 8.00001V18.6667C25.3333 19.0203 25.1929 19.3594 24.9428 19.6095C24.6928 19.8595 24.3536 20 24 20C23.6464 20 23.3072 19.8595 23.0572 19.6095C22.8071 19.3594 22.6667 19.0203 22.6667 18.6667V11.2187L9.4 24.4853C9.14853 24.7282 8.81172 24.8626 8.46213 24.8596C8.11253 24.8565 7.77812 24.7163 7.5309 24.4691C7.28369 24.2219 7.14347 23.8875 7.14043 23.5379C7.13739 23.1883 7.27179 22.8515 7.51466 22.6L20.7813 9.33334H13.3333C12.9797 9.33334 12.6406 9.19286 12.3905 8.94281C12.1405 8.69277 12 8.35363 12 8.00001C12 7.64638 12.1405 7.30724 12.3905 7.0572C12.6406 6.80715 12.9797 6.66667 13.3333 6.66667H24Z" fill="black"/>
</g>
<defs>
<clipPath id="clip0_10_3967">
<rect width="32" height="32" fill="white"/>
</clipPath>
</defs>
</svg>
