<svg width="32" height="32" viewBox="0 0 32 32" fill="none" xmlns="http://www.w3.org/2000/svg">
<path d="M25.7374 7.11601C23.8951 6.27039 21.9495 5.67102 19.9507 5.33334C19.6961 5.77201 19.4134 6.36668 19.2147 6.83334C17.0892 6.52209 14.9296 6.52209 12.8041 6.83334C12.6054 6.36668 12.3067 5.77201 12.0667 5.33334C10.0662 5.66704 8.11916 6.26656 6.2774 7.11601C2.61474 12.5213 1.62407 17.8 2.12007 23.0067C4.26621 24.5824 6.66365 25.7834 9.21074 26.5587C9.78294 25.7863 10.2896 24.9674 10.7254 24.1107C9.8894 23.7987 9.09874 23.4173 8.3334 22.964C8.53207 22.8227 8.7294 22.6667 8.9134 22.5107C13.5267 24.62 18.5227 24.62 23.0787 22.5107C23.2774 22.6667 23.4614 22.8227 23.6587 22.964C22.8947 23.4173 22.1027 23.7987 21.2681 24.1107C21.7035 24.9674 22.2097 25.7862 22.7814 26.5587C25.3294 25.7857 27.7272 24.5845 29.8721 23.0067C30.4814 16.98 28.9094 11.7427 25.7387 7.11601H25.7374ZM11.3601 19.7947C9.9734 19.7947 8.8414 18.5347 8.8414 16.9933C8.8414 15.4507 9.9454 14.1907 11.3614 14.1907C12.7614 14.1907 13.9081 15.4507 13.8787 16.9933C13.8787 18.5347 12.7614 19.7933 11.3601 19.7933V19.7947ZM20.6587 19.7947C19.2721 19.7947 18.1387 18.5347 18.1387 16.9933C18.1387 15.4507 19.2427 14.1907 20.6587 14.1907C22.0587 14.1907 23.2054 15.4507 23.1774 16.9933C23.1774 18.5347 22.0734 19.7933 20.6574 19.7933L20.6587 19.7947Z" fill="white"/>
</svg>
