<svg width="80" height="80" viewBox="0 0 80 80" fill="none" xmlns="http://www.w3.org/2000/svg">
<path d="M23.0307 79.2587H57.0879C64.5638 73.9295 69.4507 65.1914 69.4507 55.3097C69.4507 39.0847 56.2895 25.9236 40.0646 25.9236C23.8397 25.9236 10.6785 39.0847 10.6785 55.3097C10.6677 65.1805 15.5438 73.9295 23.0305 79.2587H23.0307ZM36.6126 11.5863H43.4953V23.2695H36.6126V11.5863Z" fill="#FEE8EB"/>
<path d="M56.732 31.3279H23.376C21.1753 31.3279 19.3845 29.5263 19.3845 27.3364V26.4949C19.3845 24.2942 21.1861 22.5034 23.376 22.5034H56.732C58.9327 22.5034 60.7234 24.305 60.7234 26.4949V27.3364C60.7234 29.5371 58.9327 31.3279 56.732 31.3279Z" fill="#FFB791"/>
<path d="M10.7974 52.5798C10.7111 53.4752 10.668 54.3814 10.668 55.2984C10.668 65.1799 15.5441 73.9182 23.0308 79.2474H57.088C64.5639 73.9182 69.4508 65.1801 69.4508 55.2984C69.4508 54.3814 69.4076 53.4752 69.3213 52.5798H10.7974Z" fill="#FFA9B1"/>
<path d="M54.5744 49.6779C54.5744 45.0823 50.8526 41.3605 46.257 41.3605C43.7218 41.3605 41.4456 42.4932 39.9245 44.284C38.4034 42.4932 36.1272 41.3605 33.5921 41.3605C28.9965 41.3605 25.2747 45.0823 25.2747 49.6779C25.2747 52.0944 26.3858 54.1009 27.9392 55.7838L39.9569 67.3267L51.7696 55.9024C53.2691 54.3489 54.5745 52.159 54.5745 49.6778L54.5744 49.6779Z" fill="#FF6B6A"/>
<path d="M31.9739 9.81697C31.9739 10.8851 32.1843 11.9429 32.593 12.9297C33.0018 13.9166 33.601 14.8133 34.3563 15.5686C35.1116 16.3239 36.0083 16.923 36.9951 17.3318C37.982 17.7406 39.0397 17.951 40.1079 17.951C41.176 17.951 42.2337 17.7406 43.2206 17.3318C44.2075 16.923 45.1041 16.3239 45.8595 15.5686C46.6148 14.8133 47.2139 13.9166 47.6227 12.9297C48.0315 11.9429 48.2418 10.8851 48.2418 9.81697C48.2418 8.7488 48.0315 7.69109 47.6227 6.70423C47.2139 5.71737 46.6148 4.82068 45.8595 4.06537C45.1041 3.31006 44.2075 2.71092 43.2206 2.30215C42.2337 1.89338 41.176 1.68298 40.1079 1.68298C39.0397 1.68298 37.982 1.89338 36.9951 2.30215C36.0083 2.71092 35.1116 3.31006 34.3563 4.06537C33.601 4.82068 33.0018 5.71737 32.593 6.70423C32.1843 7.69109 31.9739 8.7488 31.9739 9.81697Z" fill="#FFB791"/>
</svg>
