<svg width="80" height="80" viewBox="0 0 80 80" fill="none" xmlns="http://www.w3.org/2000/svg">
<path d="M65 69.9688H15.1875C13.7656 69.9688 12.6094 68.8125 12.6094 67.3906V23.25H67.5781V67.3984C67.5781 68.8203 66.4297 69.9688 65 69.9688Z" fill="#FFE085"/>
<path d="M69.9453 45.1641H10.25V25.7109C10.25 24.3594 11.3438 23.2578 12.7031 23.2578H67.4922C68.8438 23.2578 69.9453 24.3516 69.9453 25.7109V45.1641Z" fill="#FFF0C2"/>
<path d="M35.0078 23.2656H45.0078V69.8594H35.0078V23.2656Z" fill="#FF8882"/>
<path d="M18.0938 7.74219C18.0938 7.74219 31.1562 6.63282 34.5859 13.25C38.0156 19.8672 40.0781 24.2266 40.0781 24.2266C40.0781 24.2266 29.9453 26.9922 24.1875 22.8672C18.4297 18.7422 18.0938 7.74219 18.0938 7.74219ZM62.0625 7.74219C62.0625 7.74219 49 6.63282 45.5703 13.25C42.1406 19.8672 40.0781 24.2344 40.0781 24.2344C40.0781 24.2344 50.2109 27 55.9688 22.875C61.7266 18.75 62.0625 7.74219 62.0625 7.74219ZM20.0781 34.4219C20.0781 33.6016 19.4141 32.9297 18.5859 32.9297C18.1328 32.9297 17.7266 33.1328 17.4531 33.4531C17.1797 33.1328 16.7734 32.9297 16.3203 32.9297C15.5 32.9297 14.8281 33.5938 14.8281 34.4219C14.8281 34.8516 15.0234 35.2109 15.3047 35.5156L17.4531 37.5859L19.5703 35.5391C19.8438 35.2578 20.0781 34.8672 20.0781 34.4219ZM30.0938 34.4219C30.0938 33.6016 29.4297 32.9297 28.6016 32.9297C28.1484 32.9297 27.7422 33.1328 27.4688 33.4531C27.1953 33.1328 26.7891 32.9297 26.3359 32.9297C25.5156 32.9297 24.8438 33.5938 24.8438 34.4219C24.8438 34.8516 25.0391 35.2109 25.3203 35.5156L27.4688 37.5859L29.5859 35.5391C29.8594 35.2578 30.0938 34.8672 30.0938 34.4219ZM55.125 34.4219C55.125 33.6016 54.4609 32.9297 53.6328 32.9297C53.1797 32.9297 52.7734 33.1328 52.5 33.4531C52.2266 33.1328 51.8203 32.9297 51.3672 32.9297C50.5469 32.9297 49.875 33.5938 49.875 34.4219C49.875 34.8516 50.0703 35.2109 50.3516 35.5156L52.5 37.5859L54.6172 35.5391C54.8906 35.2578 55.125 34.8672 55.125 34.4219Z" fill="#FF8882"/>
<path d="M65.1406 34.4219C65.1406 33.6016 64.4766 32.9297 63.6484 32.9297C63.1953 32.9297 62.7891 33.1328 62.5156 33.4531C62.2422 33.1328 61.8359 32.9297 61.3828 32.9297C60.5625 32.9297 59.8906 33.5938 59.8906 34.4219C59.8906 34.8516 60.0859 35.2109 60.3672 35.5156L62.5156 37.5859L64.6328 35.5391C64.9063 35.2578 65.1406 34.8672 65.1406 34.4219Z" fill="#FF8882"/>
</svg>
