<svg width="144" height="140" viewBox="0 0 144 140" fill="none" xmlns="http://www.w3.org/2000/svg">
<path d="M109.061 88.6628C109.061 116.724 78.8697 139.472 50.8088 139.472C22.7479 139.472 0 116.724 0 88.6628C0 60.6019 10.0521 35.327 38.1131 35.327C66.174 35.327 109.061 60.6019 109.061 88.6628Z" fill="#FFCB3C"/>
<mask id="mask0_11_4854" style="mask-type:alpha" maskUnits="userSpaceOnUse" x="0" y="0" width="127" height="140">
<path d="M101.618 88.6629C101.618 116.724 78.8697 139.472 50.8088 139.472C22.7479 139.472 0 116.724 0 88.6629C0 60.6019 89.3132 2.21277e-06 117.374 2.21277e-06C145.435 2.21277e-06 101.618 60.6019 101.618 88.6629Z" fill="#FFCB3C"/>
</mask>
<g mask="url(#mask0_11_4854)">
<path fill-rule="evenodd" clip-rule="evenodd" d="M44.756 81.8607C41.6152 80.543 38.0668 80.2806 34.1555 81.4252C20.7996 85.3337 15.3304 95.7415 14.599 108.14C13.5744 125.566 22.2681 147.018 30.0544 157.677C30.9645 158.923 32.7122 159.193 33.9573 158.286C35.1996 157.376 35.4732 155.628 34.5631 154.383C27.3435 144.5 19.2222 124.628 20.1742 108.469C20.7605 98.4747 24.9594 89.9346 35.7245 86.7827C38.0529 86.1015 40.1718 86.1964 42.0786 86.8664C41.4588 88.1088 40.8669 89.3539 40.3058 90.599C38.064 95.5852 34.7139 109.43 35.9646 119.609C36.9557 127.663 40.7608 133.439 48.6113 133.227C53.1061 133.107 56.4229 130.39 58.4134 125.938C60.8674 120.446 61.2024 112.046 59.4771 103.991C58.0449 97.2937 55.2028 90.867 51.2161 86.5453C50.6578 85.9395 50.0771 85.3728 49.4768 84.848C62.5648 61.6454 86.1862 40.115 110.439 30.944C111.879 30.3996 112.605 28.7887 112.06 27.3453C111.516 25.9048 109.902 25.179 108.462 25.7234C83.1655 35.288 58.5084 57.6754 44.756 81.8607ZM46.7689 89.9764C46.2943 90.9452 45.8363 91.9167 45.4008 92.8883C43.3879 97.3635 40.384 109.79 41.5063 118.927C42.101 123.763 43.7509 127.772 48.4634 127.646C50.775 127.585 52.2937 125.949 53.3155 123.659C54.6724 120.625 55.1554 116.51 54.9405 112.129C54.6026 105.334 52.5507 97.8968 48.9381 92.637C48.2709 91.6655 47.5478 90.7693 46.7689 89.9764Z" fill="#35312B"/>
<path fill-rule="evenodd" clip-rule="evenodd" d="M91.7446 65.863C93.9222 53.1631 102.25 39.6508 111.198 30.2871C112.262 29.1732 112.222 27.406 111.109 26.3395C109.995 25.2759 108.225 25.315 107.161 26.4289C97.4929 36.5491 88.5926 51.1976 86.242 64.9193C85.9823 66.438 87.0042 67.8814 88.523 68.141C90.0417 68.4007 91.4849 67.3817 91.7446 65.863Z" fill="#35312B"/>
<path fill-rule="evenodd" clip-rule="evenodd" d="M107.401 25.8956C98.2021 31.147 84.0923 31.8337 73.8074 29.1704C72.3138 28.7851 70.7895 29.6841 70.4042 31.1749C70.0189 32.6658 70.9151 34.1901 72.4088 34.5781C83.9724 37.5681 99.8269 36.6496 110.17 30.745C111.508 29.9828 111.974 28.2742 111.209 26.9369C110.444 25.5997 108.738 25.1335 107.401 25.8956Z" fill="#35312B"/>
</g>
<path fill-rule="evenodd" clip-rule="evenodd" d="M131.275 12.8811C131.248 12.3143 131.254 11.7626 131.28 11.2446C131.371 9.68687 132.819 9.69224 132.932 9.69439C133.168 9.69975 134.219 9.76623 134.471 10.9808C134.487 11.0531 134.524 11.5776 134.535 11.7797C134.557 12.2108 134.567 12.6345 134.508 13.0597C134.562 13.7809 134.68 14.523 134.905 15.2212C135.232 16.2518 135.763 17.203 136.723 17.7097C138.439 18.6213 140.696 18.5843 142.584 18.8159C143.372 18.9124 143.973 19.5698 143.999 20.3634C144.021 21.1576 143.463 21.8504 142.68 21.9946C140.321 22.4311 137.608 24.5765 135.881 26.3042C135.35 26.835 134.755 28.0994 134.09 28.9091C133.554 29.5579 132.959 29.9928 132.396 30.1655C132.176 30.2325 130.959 30.477 130.412 29.2169C130.262 28.863 129.731 27.0098 129.682 26.7986C129.393 25.5878 128.98 24.5062 128.17 23.5432C127.468 22.7083 126.615 21.9791 125.591 21.5748C125.178 21.4118 124.749 21.2879 124.32 21.1603C124.17 21.142 123.747 21.0884 123.596 21.0375C123.291 20.9356 123.065 20.7758 122.905 20.6166C122.599 20.3152 122.443 19.9554 122.417 19.5457C122.395 19.2755 122.433 18.9548 122.626 18.5993C122.771 18.3467 123.098 17.9666 123.687 17.7199C124.304 17.462 125.629 17.2169 125.865 17.1531C127.505 16.7113 129.114 16.0394 130.374 14.8748C131.002 14.2924 131.146 13.6645 131.275 12.8811ZM132.326 17.4411C132.959 18.7527 133.902 19.8567 135.216 20.5522C135.758 20.8412 136.348 21.0605 136.959 21.2311C135.699 22.1083 134.53 23.1056 133.602 24.0301C133.302 24.3309 132.975 24.8178 132.626 25.3524C132.219 23.925 131.618 22.6429 130.632 21.4697C130.047 20.778 129.387 20.1457 128.653 19.6186C129.983 19.0921 131.243 18.3875 132.326 17.4411Z" fill="#35312B"/>
</svg>
