<svg width="80" height="80" viewBox="0 0 80 80" fill="none" xmlns="http://www.w3.org/2000/svg">
<path d="M43.2977 7.12889C41.431 5.60889 38.7466 5.60889 36.8799 7.12889L3.19995 34.4977V74.1688H76.9775V34.4977L43.2977 7.12889Z" fill="#FFA9B1"/>
<path d="M59.0934 28.0533C57.3245 21.3333 50.4445 17.3333 43.7244 19.1022C40.0177 20.08 37.1288 22.6133 35.591 25.8222C32.6666 23.7956 28.9155 23.0045 25.1999 23.9822C18.4799 25.7511 14.4799 32.6311 16.2488 39.3511C17.1822 42.88 19.5733 45.3956 22.4977 47.2445L44.5334 59.5022L57.3957 38.2489C58.9779 35.3778 60.0535 31.68 59.0935 28.0533H59.0934Z" fill="white"/>
<path d="M45.0399 61.4045L19.2976 46.6311C17.0576 44.6667 15.5732 42.3467 14.8798 39.7156C13.9287 36.0978 14.4354 32.3289 16.3198 29.1022C18.2043 25.8756 21.2265 23.5645 24.8443 22.6133C28.311 21.6978 31.9554 22.1511 35.0666 23.8311C36.9421 20.8267 39.8932 18.64 43.3599 17.7245C50.8266 15.7511 58.4977 20.2222 60.4622 27.6889C61.2888 30.8356 60.1688 34.7822 59.6977 36.2934C58.8711 38.9245 45.04 61.4044 45.04 61.4044L45.0399 61.4045ZM23.2443 46.0356L44.0266 57.5911L56.1511 37.5556C57.1555 35.7423 58.7022 32.1423 57.7155 28.4179C56.1511 22.4712 50.0355 18.9068 44.0889 20.4801C40.9244 21.3156 38.2933 23.4845 36.88 26.4445L36.16 27.9467L34.7911 26.9956C32.0977 25.129 28.7377 24.5334 25.5733 25.369C22.6933 26.1245 20.2756 27.9645 18.7822 30.5423C17.28 33.1201 16.8711 36.1245 17.6356 39.0046C18.3733 41.8046 20.2133 44.1068 23.2445 46.0357L23.2443 46.0356Z" fill="#FF6B6A"/>
<path d="M76.9778 34.4977L40.0889 57.1288L40.0177 65.6799L39.9377 57.1288L3.19995 34.4977V74.1688L39.9377 74.231H40.0889L76.9778 74.1688V34.4977Z" fill="#FFD2DA"/>
<path d="M36.1866 41.929L3.19995 74.169H76.9775L43.991 41.929C41.8222 39.8134 38.3555 39.8134 36.1866 41.929Z" fill="#FFA9B1"/>
<path d="M26.2578 35.6355L27.28 35.4044L28.5956 41.28L32.3111 40.4444L32.5067 41.3244L27.7689 42.3822L26.2578 35.6355ZM37.4578 34.0443C38.1689 34.551 38.64 35.3243 38.8711 36.3732C39.1023 37.4043 39.0045 38.3021 38.5778 39.0666C38.1334 39.8577 37.3956 40.3732 36.3734 40.6043C35.3423 40.8354 34.4623 40.6843 33.7156 40.1421C33.0134 39.6355 32.5423 38.8621 32.32 37.831C32.0889 36.7999 32.1778 35.9021 32.6045 35.1377C33.0312 34.3377 33.7689 33.8132 34.8089 33.5821C35.8312 33.351 36.72 33.5021 37.4578 34.0443ZM33.5023 35.591C33.2267 36.1332 33.1823 36.8088 33.36 37.5999C33.5378 38.3821 33.8667 38.9599 34.3467 39.3421C34.8534 39.7332 35.4667 39.8488 36.1778 39.6888C36.8978 39.5288 37.3956 39.1732 37.6889 38.6132C37.9734 38.071 38.0178 37.3955 37.84 36.5955C37.6623 35.7955 37.3245 35.1999 36.8356 34.8177C36.3467 34.4355 35.7422 34.3288 35.0134 34.4888C34.2845 34.6488 33.7778 35.0221 33.5023 35.591ZM38.5423 32.8889L39.6623 32.64L42.8357 37.8044L42.8623 37.7955L43.5201 31.7689L44.6401 31.52L43.7335 38.8089L42.489 39.0844L38.5423 32.8889ZM45.3423 31.3689L50.1957 30.2844L50.3912 31.1644L46.569 32.0178L47.0135 33.9822L50.6046 33.1822L50.8001 34.0622L47.209 34.8622L47.689 37.0044L51.6712 36.1155L51.8668 36.9955L46.8535 38.1155L45.3423 31.3689Z" fill="#FF6B6A"/>
</svg>
