<svg width="36" height="36" viewBox="0 0 36 36" fill="none" xmlns="http://www.w3.org/2000/svg">
<path d="M18.0176 3.375C19.4676 3.375 20.6432 4.55017 20.6432 6.00001C20.6432 7.04732 20.0297 7.95125 19.1426 8.3725L19.1426 12.375H27.7719C29.2071 12.375 30.3733 13.5269 30.3965 14.9566L30.3969 15V30C30.3969 31.4352 29.245 32.6015 27.8153 32.6246L27.7719 32.625H8.2633C6.82805 32.625 5.66181 31.4731 5.63864 30.0434L5.63829 30V15C5.63829 13.5648 6.79015 12.3985 8.21988 12.3754L8.2633 12.375H16.8926V8.3725C16.0177 7.95709 15.4091 7.07224 15.3924 6.04339L15.392 6.00001C15.392 4.55017 16.5676 3.375 18.0176 3.375ZM21.0187 24H15.0164C14.1877 24 13.5159 24.6716 13.5159 25.5C13.5159 26.3202 14.1743 26.9866 14.9916 26.9998L15.0164 27H21.0187C21.8475 27 22.5193 26.3284 22.5193 25.5C22.5193 24.6798 21.8608 24.0134 21.0435 24.0002L21.0187 24ZM3.01187 18.375C3.62696 18.375 4.12678 18.8686 4.1367 19.4814L4.13687 19.5V25.5C4.13687 26.1213 3.63319 26.625 3.01187 26.625C2.39674 26.625 1.89696 26.1314 1.88701 25.5186L1.88687 25.5V19.5C1.88687 18.8787 2.39055 18.375 3.01187 18.375ZM33.0233 18.375C33.6384 18.375 34.1382 18.8686 34.1481 19.4814L34.1483 19.5V25.5C34.1483 26.1213 33.6446 26.625 33.0233 26.625C32.4082 26.625 31.9084 26.1314 31.8985 25.5186L31.8983 25.5V19.5C31.8983 18.8787 32.402 18.375 33.0233 18.375ZM12.7656 18C11.9369 18 11.265 18.6716 11.265 19.5C11.265 20.3284 11.9369 21 12.7656 21C13.5944 21 14.2662 20.3284 14.2662 19.5C14.2662 18.6716 13.5944 18 12.7656 18H12.7656ZM23.2696 18C22.4409 18 21.769 18.6716 21.769 19.5C21.769 20.3284 22.4409 21 23.2696 21C24.0983 21 24.7702 20.3284 24.7702 19.5C24.7702 18.6716 24.0983 18 23.2696 18ZM18.0176 5.625C17.8101 5.625 17.642 5.79298 17.642 6.00001C17.642 6.20701 17.8101 6.37499 18.0176 6.37499C18.2251 6.37499 18.3932 6.20701 18.3932 6.00001C18.3932 5.79298 18.2251 5.625 18.0176 5.625Z" fill="white"/>
</svg>
