<svg width="32" height="32" viewBox="0 0 32 32" fill="none" xmlns="http://www.w3.org/2000/svg">
<path d="M25.7373 7.11598C23.8951 6.27036 21.9494 5.67099 19.9507 5.33331C19.696 5.77198 19.4133 6.36665 19.2147 6.83331C17.0891 6.52206 14.9296 6.52206 12.804 6.83331C12.6053 6.36665 12.3067 5.77198 12.0667 5.33331C10.0661 5.66701 8.1191 6.26653 6.27734 7.11598C2.61468 12.5213 1.62401 17.8 2.12001 23.0066C4.26615 24.5824 6.66359 25.7833 9.21068 26.5586C9.78288 25.7863 10.2895 24.9674 10.7253 24.1106C9.88934 23.7986 9.09868 23.4173 8.33334 22.964C8.53201 22.8226 8.72934 22.6666 8.91334 22.5106C13.5267 24.62 18.5227 24.62 23.0787 22.5106C23.2773 22.6666 23.4613 22.8226 23.6587 22.964C22.8947 23.4173 22.1027 23.7986 21.268 24.1106C21.7034 24.9674 22.2096 25.7862 22.7813 26.5586C25.3294 25.7856 27.7272 24.5845 29.872 23.0066C30.4813 16.98 28.9093 11.7426 25.7387 7.11598H25.7373ZM11.36 19.7946C9.97334 19.7946 8.84134 18.5346 8.84134 16.9933C8.84134 15.4506 9.94534 14.1906 11.3613 14.1906C12.7613 14.1906 13.908 15.4506 13.8787 16.9933C13.8787 18.5346 12.7613 19.7933 11.36 19.7933V19.7946ZM20.6587 19.7946C19.272 19.7946 18.1387 18.5346 18.1387 16.9933C18.1387 15.4506 19.2427 14.1906 20.6587 14.1906C22.0587 14.1906 23.2053 15.4506 23.1773 16.9933C23.1773 18.5346 22.0733 19.7933 20.6573 19.7933L20.6587 19.7946Z" fill="white"/>
</svg>
