<svg width="52" height="52" viewBox="0 0 52 52" fill="none" xmlns="http://www.w3.org/2000/svg">
<path fill-rule="evenodd" clip-rule="evenodd" d="M1.6178 35.1411C1.50894 34.8501 1.40547 34.5577 1.30738 34.2639L34.2639 1.30737C34.5577 1.40547 34.8502 1.50894 35.1411 1.61779L1.6178 35.1411ZM2.83113 37.8864C2.69583 37.6229 2.56532 37.3575 2.4396 37.0904L37.0904 2.4396C37.3575 2.56532 37.6229 2.69582 37.8865 2.83113L2.83113 37.8864ZM4.29424 40.3821C4.13532 40.1428 3.98076 39.9014 3.83059 39.6581L39.6581 3.83059C39.9014 3.98077 40.1428 4.13532 40.3821 4.29425L4.29424 40.3821ZM5.98525 42.6498C5.80443 42.4329 5.62765 42.2138 5.45491 41.9925L41.9925 5.45493C42.2138 5.62762 42.433 5.8044 42.6498 5.98526L5.98525 42.6498ZM7.89111 44.7027C7.79078 44.6054 7.69101 44.5073 7.59184 44.4082C7.49273 44.309 7.3945 44.2092 7.29732 44.1089L44.1089 7.29728C44.2093 7.39452 44.309 7.49269 44.4082 7.59186C44.5073 7.69102 44.6055 7.79075 44.7027 7.89113L7.89111 44.7027ZM10.0075 46.545C9.7862 46.3723 9.56708 46.1956 9.35017 46.0147L46.0147 9.35019C46.1956 9.56704 46.3724 9.78622 46.5451 10.0075L10.0075 46.545ZM12.3419 48.1694C12.0986 48.0192 11.8572 47.8647 11.6179 47.7057L47.7057 11.6179C47.8647 11.8572 48.0192 12.0986 48.1694 12.3419L12.3419 48.1694ZM14.9096 49.5604C14.6425 49.4347 14.3771 49.3042 14.1136 49.1688L49.1689 14.1135C49.3042 14.3771 49.4347 14.6425 49.5604 14.9096L14.9096 49.5604ZM17.7361 50.6926C17.4423 50.5945 17.1499 50.491 16.8589 50.3822L50.3822 16.8589C50.4911 17.1498 50.5946 17.4423 50.6926 17.7361L17.7361 50.6926ZM20.8634 51.5241C20.5379 51.4589 20.2135 51.3875 19.8901 51.3097L51.3097 19.8902C51.3875 20.2134 51.4589 20.5379 51.5241 20.8634L20.8634 51.5241ZM24.5512 51.9929C24.1831 51.9725 23.8153 51.9444 23.4482 51.9084L51.9085 23.4481C51.9444 23.8153 51.9726 24.1831 51.993 24.5512L24.5512 51.9929ZM28.5992 51.9038C28.1719 51.9464 27.7438 51.9784 27.3153 52L52 27.3153C51.9784 27.7439 51.9464 28.1719 51.9038 28.5992L28.5992 51.9038ZM33.5388 50.9229C33.0028 51.0845 32.4627 51.2285 31.9192 51.3548L51.3548 31.9193C51.2285 32.4626 51.0845 33.0028 50.9229 33.5387L33.5388 50.9229ZM41.5012 46.9192C40.4616 47.6915 39.3775 48.3764 38.259 48.9738L48.9738 38.259C48.3764 39.3775 47.6916 40.4616 46.9193 41.5012L41.5012 46.9192ZM32.1098 0.69026L0.690261 32.1099C0.612546 31.7865 0.541089 31.4621 0.475899 31.1366L31.1366 0.475898C31.4621 0.541087 31.7866 0.612545 32.1098 0.69026ZM27.4488 0.00705068C27.8169 0.0274443 28.1847 0.0556171 28.5519 0.0915692L0.0915704 28.5518C0.0556199 28.1847 0.0274438 27.8169 0.00705234 27.4488L27.4488 0.00705068ZM23.4008 0.0962457C23.8281 0.0536277 24.2561 0.0215456 24.6847 0L0 24.6847C0.0215428 24.2562 0.0536272 23.8281 0.0962463 23.4008L23.4008 0.0962457ZM18.4613 1.07709C18.9972 0.915478 19.5374 0.771518 20.0807 0.645197L0.645193 20.0808C0.771514 19.5373 0.915479 18.9972 1.07709 18.4612L18.4613 1.07709ZM10.4988 5.08077C11.5384 4.30843 12.6225 3.62358 13.741 3.02621L3.02621 13.741C3.62358 12.6225 4.30843 11.5384 5.08077 10.4988L10.4988 5.08077Z" fill="#EF5DA8"/>
</svg>
