<svg width="70" height="70" viewBox="0 0 70 70" fill="none" xmlns="http://www.w3.org/2000/svg">
<path d="M28.3782 47.9995C31.1785 47.9995 33.4485 45.7294 33.4485 42.9293C33.4485 40.129 31.1785 37.859 28.3782 37.859C25.5781 37.859 23.308 40.129 23.308 42.9293C23.308 45.7294 25.5781 47.9995 28.3782 47.9995Z" fill="black"/>
<path d="M41.6274 47.9995C44.4276 47.9995 46.6977 45.7294 46.6977 42.9293C46.6977 40.129 44.4276 37.859 41.6274 37.859C38.8271 37.859 36.5571 40.129 36.5571 42.9293C36.5571 45.7294 38.8271 47.9995 41.6274 47.9995Z" fill="black"/>
<path d="M34.9999 22.0005C21.2331 22.0005 10.0716 33.3747 10.0752 47.4011H16.4427C16.4427 36.8894 24.6853 28.3669 34.9999 28.3669C45.3147 28.3669 53.5573 36.8894 53.5573 47.4011H59.9249C59.9273 33.3747 48.7657 22.0005 34.9999 22.0005Z" fill="black"/>
</svg>
