<svg width="50" height="50" viewBox="0 0 50 50" fill="none" xmlns="http://www.w3.org/2000/svg">
<path fill-rule="evenodd" clip-rule="evenodd" d="M34.2985 15.254C34.1685 15.124 33.989 15.0436 33.7931 15.0436C33.5972 15.0436 33.4179 15.124 33.2878 15.254C33.1599 15.3818 33.0795 15.5612 33.0795 15.7593C33.0795 15.9553 33.1599 16.1347 33.2878 16.2624C33.4179 16.3925 33.5972 16.4727 33.7931 16.4727C33.989 16.4727 34.1685 16.3925 34.2985 16.2624C34.4264 16.1346 34.5066 15.9552 34.5066 15.7593C34.5066 15.5613 34.4263 15.3818 34.2985 15.254ZM16.4729 15.2395C16.343 15.1097 16.1636 15.0292 15.9677 15.0292C15.7696 15.0292 15.5922 15.1097 15.4623 15.2395C15.3324 15.3674 15.2539 15.5469 15.2539 15.7427C15.2539 15.9407 15.3324 16.1181 15.4623 16.2481C15.5922 16.378 15.7695 16.4564 15.9677 16.4564C16.1491 16.4564 16.3142 16.3904 16.4399 16.2769H16.442L16.4502 16.2708L16.4522 16.2667H16.4543L16.4605 16.2605V16.2585L16.4646 16.2543H16.4666L16.4687 16.2522L16.4728 16.2481L16.4769 16.2439V16.2419L16.481 16.2398C16.6049 16.112 16.6811 15.9367 16.6811 15.7428C16.6812 15.5469 16.6009 15.3673 16.4729 15.2395ZM25.9394 40.4465C25.8919 41.0508 25.8115 42.0408 25.9703 42.2718C26.0961 42.4553 26.4364 42.5419 26.818 42.6389L27.1623 42.7295C28.0491 42.9853 28.9484 43.4989 29.823 44C30.7324 44.5197 31.6194 45.0272 32.3947 45.1819C32.4648 45.1942 32.4751 45.2333 32.4813 45.221C32.504 45.1756 32.504 45.0395 32.5021 44.8601C32.5 44.5219 32.5598 43.866 32.6278 43.1215C32.7599 41.6736 32.9228 39.867 32.7475 39.6236C32.6856 39.5371 32.5845 39.4688 32.4443 39.4132C32.2875 39.3493 32.0855 39.3041 31.8462 39.2751H31.844H31.8399H31.8338V39.273L31.8051 39.271L31.7761 39.2669L31.7452 39.2648L31.7122 39.2607L31.6813 39.2587L31.6482 39.2546L31.6133 39.2525L31.5782 39.2484L31.543 39.2462L31.506 39.2441L31.4688 39.2398L31.4315 39.2378L31.3925 39.2357L31.3533 39.2337L31.312 39.2316L31.2708 39.2296V39.2275L31.2296 39.2255L31.1882 39.2234L31.1449 39.2214L31.1018 39.2193L31.0584 39.2173H31.0564L31.013 39.2152H30.9676L30.9224 39.2132H30.9203L30.8749 39.2111L30.8274 39.2091H30.782H30.78L30.7326 39.207L30.6854 39.205L30.6358 39.2029H30.5862L30.5367 39.2009H30.4872L30.4376 39.1988H30.4355H30.386H30.3346L30.2831 39.1968H30.2314H30.2294H30.1799H30.1778H30.1264L30.0747 39.1947H30.0727H30.0211H30.019H29.9676H29.9139H29.8603H29.8065H29.6973H29.6436H29.5899H29.5879L29.5343 39.1968H29.4806H29.4785H29.4248L29.3712 39.1988H29.3691H29.3155H29.2599L29.2063 39.2009H29.2042H29.1506L29.0969 39.2029H29.0948L29.0411 39.205H28.9875H28.9855L28.9318 39.207H28.9298L28.8784 39.2091H28.8763L28.8228 39.2111H28.7795H28.7774L28.7341 39.2132L28.6908 39.2152H28.6888H28.6456L28.6023 39.2173H28.6003L28.557 39.2193L28.5137 39.2214L28.4705 39.2234L28.4272 39.2255L28.3839 39.2275L28.3405 39.2296L28.2975 39.2316L28.2562 39.2337H28.2541L28.2128 39.2357L28.1715 39.2378H28.1694L28.1283 39.2398L28.087 39.242H28.085L28.0457 39.244H28.0437L28.0044 39.2481H28.0023L27.9634 39.2502L27.9221 39.2522L27.8808 39.2543L27.8417 39.2584L27.8025 39.2604H27.8005L27.7612 39.2645L27.7242 39.2666H27.7222L27.685 39.2707H27.6829L27.6457 39.2727L27.6067 39.2768L27.5695 39.2789L27.5323 39.283L27.4953 39.285V39.2871L27.4581 39.2891L27.423 39.2932L27.3859 39.2953V39.2973L27.3509 39.2994L27.3159 39.3037L27.2809 39.3078L27.2478 39.3119L27.2148 39.316H27.2128L27.1797 39.3201L27.1468 39.3242L27.1158 39.3284L27.085 39.3325H27.0829L27.0519 39.3366L27.0211 39.3407L26.9921 39.3448L26.9613 39.3489L26.9323 39.353L26.9035 39.3594L26.8767 39.3635L26.85 39.3676L26.8231 39.3717V39.3737L26.7965 39.3778L26.7695 39.3819L26.7449 39.3881L26.72 39.3922L26.6975 39.3983L26.6749 39.4024L26.6522 39.4086L26.6296 39.4127V39.4147L26.6088 39.419L26.5883 39.4252L26.5677 39.4313C26.283 39.5139 26.1344 39.6272 26.0603 39.7489C25.986 39.8665 25.9717 40.013 25.9633 40.1408L25.9394 40.4465ZM31.1387 41.094C31.1058 41.0198 31.046 40.9661 30.9759 40.9394C30.9057 40.9104 30.8232 40.9104 30.747 40.9435H30.7428C30.6705 40.9785 30.6147 41.0384 30.5881 41.1065C30.5612 41.1787 30.5591 41.2611 30.5922 41.3375L30.5942 41.3416C30.6273 41.4138 30.6871 41.4674 30.7572 41.4942C30.8273 41.5231 30.9098 41.5231 30.9862 41.4922L30.9903 41.4901C31.0646 41.4572 31.1161 41.3974 31.1449 41.3272C31.1718 41.2551 31.1739 41.1726 31.1407 41.0982L31.1387 41.094ZM31.5945 40.8734L31.6131 40.9187C31.6936 41.1147 31.6873 41.3271 31.6151 41.5106C31.5429 41.6964 31.4026 41.853 31.2089 41.9439L31.1635 41.9644C30.9674 42.043 30.7551 42.0389 30.5715 41.9665C30.3878 41.8943 30.2312 41.7541 30.1403 41.5622L30.1178 41.5149C30.0393 41.3169 30.0456 41.1065 30.1178 40.9228C30.1899 40.7392 30.3302 40.5806 30.5221 40.4897L30.5695 40.4691C30.7654 40.3907 30.9779 40.3948 31.1614 40.4671C31.345 40.5392 31.5039 40.6815 31.5945 40.8734ZM33.7251 28.5298C33.9808 28.8888 33.9499 29.3631 33.7498 29.8828L33.7457 29.8951C33.2714 31.1098 31.7968 32.5783 31.2275 33.1476L31.0977 33.2796C30.9985 33.3765 30.8377 33.3765 30.7387 33.2796C30.6397 33.1805 30.6397 33.0198 30.7387 32.9207L30.8687 32.7888C31.4192 32.2421 32.8425 30.8232 33.2755 29.7116L33.2797 29.7014C33.4632 29.2227 33.4404 28.8061 33.0052 28.5895L33.0012 28.5875L32.9991 28.5854H32.9949L32.9909 28.5834L32.9867 28.5813L32.9827 28.5793L32.9807 28.5772L32.9765 28.5752H32.9725L32.9683 28.5731L32.9643 28.5711L32.9601 28.569L32.956 28.567H32.9539L32.9495 28.5649L32.9455 28.5629L32.9413 28.5608L32.9331 28.5567H32.929L32.9207 28.5526L32.9167 28.5506L32.8795 28.5383C32.0422 28.2556 30.8171 29.2002 29.7137 30.4233C28.573 31.6896 27.5852 33.2405 27.2553 34.0944L27.214 34.2058C27.0036 34.8287 26.886 35.734 26.8241 36.6477C26.7685 37.4438 26.7521 38.2399 26.7499 38.873C28.0081 38.6503 30.2973 38.6256 31.5862 38.7432H31.5945L31.6194 38.7452L31.6522 38.7473C32.0938 36.1837 33.0754 35.2928 34.1149 34.3521C34.7934 33.7376 35.4986 33.1004 36.0721 31.9061C36.5238 30.9698 36.7445 28.3465 36.6435 26.0262C36.561 24.1165 36.2784 22.4377 35.7525 22.1838L35.701 22.1613C35.439 22.056 35.2101 22.1262 35.0183 22.2788C34.7914 22.4602 34.6058 22.7489 34.4718 23.0274L34.3768 23.2398C34.1024 23.9183 33.886 24.9084 33.7685 25.9086C33.6528 26.8696 33.6281 27.8326 33.7251 28.5298ZM24.0605 40.4465C24.108 41.0508 24.1884 42.0408 24.0296 42.2718C23.9038 42.4553 23.5635 42.5419 23.182 42.6389L22.8376 42.7295C21.9506 42.9853 21.0515 43.4989 20.1771 44C19.2675 44.5197 18.3807 45.0272 17.6053 45.1819C17.5352 45.1942 17.5247 45.2333 17.5186 45.221C17.496 45.1756 17.496 45.0395 17.498 44.8601C17.5001 44.5219 17.4403 43.866 17.3723 43.1215C17.2403 41.6736 17.0773 39.867 17.2526 39.6236C17.3145 39.5371 17.4177 39.4688 17.5558 39.4132C17.7126 39.3493 17.9147 39.3041 18.1538 39.2751H18.1559H18.16H18.1661V39.273L18.195 39.271L18.2238 39.2669H18.2259L18.2549 39.2648L18.2879 39.2607L18.3188 39.2587L18.3519 39.2546H18.3539L18.3868 39.2525L18.422 39.2484L18.4569 39.2464L18.4941 39.2443L18.5313 39.24L18.5703 39.238L18.6075 39.2359L18.6468 39.2339H18.6488L18.6879 39.2318L18.7292 39.2298V39.2277L18.7705 39.2257L18.8118 39.2236H18.8139L18.855 39.2216L18.8983 39.2195L18.9438 39.2175L18.9871 39.2154H19.0323L19.0777 39.2134H19.0798L19.1252 39.2113L19.1727 39.2093H19.2201L19.2674 39.2072L19.3148 39.2052L19.3644 39.2031H19.4139L19.4634 39.2011H19.5129H19.5149L19.5643 39.199H19.6138H19.6158H19.6653L19.7169 39.197H19.7189H19.7685H19.7705H19.8221H19.8736L19.9272 39.1949H19.9788H19.9809H20.0322H20.0858H20.0879H20.1395H20.1931H20.1951H20.3023H20.356H20.4096H20.4116L20.4652 39.197H20.5189H20.5209H20.5745L20.6281 39.199H20.6302H20.6838H20.6858H20.7395L20.7931 39.2011H20.7951H20.8487L20.9022 39.2031H20.9043L20.9579 39.2052H20.96H21.0136L21.0672 39.2072H21.0692L21.1229 39.2093L21.1765 39.2113H21.1785H21.2219L21.2652 39.2134H21.2673L21.3105 39.2154H21.3538H21.3559L21.3972 39.2175H21.3992L21.4426 39.2195L21.4857 39.2216L21.5291 39.2236L21.5725 39.2257H21.5745L21.6158 39.2277H21.6179L21.659 39.2298L21.7023 39.2318L21.7457 39.2339L21.787 39.2359H21.7891L21.8302 39.238L21.8715 39.24L21.9128 39.2422H21.9148L21.9541 39.2442H21.9562L21.9952 39.2483H21.9973L22.0365 39.2504H22.0386L22.0778 39.2524L22.1189 39.2545L22.1582 39.2586L22.1975 39.2606H22.1995L22.2386 39.2647L22.2778 39.2668L22.315 39.2709H22.3171L22.3541 39.2729L22.3934 39.277L22.4306 39.2791L22.4676 39.2832L22.5048 39.2852V39.2873L22.542 39.2893L22.577 39.2934H22.579L22.6142 39.2955V39.2975L22.6491 39.2996L22.6843 39.3039L22.7193 39.308L22.7522 39.3121L22.7874 39.3162L22.8203 39.3203L22.8534 39.3244L22.8844 39.3286L22.9173 39.3327L22.9483 39.3368L22.9792 39.3409L23.0081 39.345L23.039 39.3491L23.0679 39.3532L23.0967 39.3596L23.1235 39.3637L23.1523 39.3678L23.1792 39.3719V39.3739L23.2039 39.378L23.2306 39.3821L23.2554 39.3883L23.2801 39.3924L23.3028 39.3985L23.3274 39.4026L23.348 39.4088L23.3707 39.4129V39.4149L23.3913 39.4192L23.412 39.4254L23.4326 39.4315C23.7173 39.514 23.8656 39.6274 23.94 39.7491C24.0143 39.8667 24.0286 40.0132 24.0368 40.141L24.0605 40.4465ZM18.8611 41.094C18.8942 41.0198 18.954 40.9661 19.0241 40.9394C19.0963 40.9104 19.1768 40.9104 19.253 40.9435H19.2571C19.3313 40.9785 19.385 41.0384 19.4119 41.1065C19.4406 41.1787 19.4406 41.2611 19.4078 41.3375L19.4058 41.3416C19.3728 41.4138 19.3129 41.4674 19.2429 41.4942C19.1728 41.5231 19.0902 41.5231 19.0139 41.4922L19.0098 41.4901C18.9376 41.4572 18.884 41.3974 18.8551 41.3272C18.8283 41.2551 18.8263 41.1726 18.8592 41.0982L18.8611 41.094ZM18.4055 40.8734L18.3868 40.9187C18.3085 41.1147 18.3126 41.3271 18.3848 41.5106C18.4569 41.6964 18.5973 41.853 18.791 41.9439L18.8364 41.9644C19.0322 42.043 19.2448 42.0389 19.4283 41.9665C19.6118 41.8943 19.7687 41.7541 19.8615 41.5622L19.8821 41.5149C19.9605 41.3169 19.9543 41.1065 19.8821 40.9228C19.812 40.7392 19.6696 40.5806 19.4778 40.4897L19.4304 40.4691C19.2345 40.3907 19.024 40.3948 18.8385 40.4671C18.655 40.5392 18.4961 40.6815 18.4055 40.8734ZM16.2749 28.5298C16.0192 28.8888 16.0501 29.3631 16.2501 29.8828L16.2543 29.8951C16.7286 31.1098 18.2032 32.5783 18.7725 33.1476L18.9023 33.2796C19.0015 33.3765 19.1623 33.3765 19.2612 33.2796C19.3603 33.1805 19.3603 33.0198 19.2612 32.9207L19.1314 32.7888C18.5808 32.2421 17.1576 30.8232 16.7245 29.7116L16.7204 29.7014C16.5367 29.2227 16.5596 28.8061 16.9946 28.5895L16.9987 28.5875L17.0008 28.5854H17.0049L17.0092 28.5834L17.0133 28.5813L17.0174 28.5793L17.0215 28.5772L17.0235 28.5752H17.0276L17.0317 28.5731L17.0358 28.5711L17.0399 28.569L17.044 28.567H17.0481L17.0522 28.5649L17.0543 28.5629L17.0584 28.5608L17.0668 28.5567H17.0709L17.0791 28.5526L17.0832 28.5506L17.1202 28.5383C17.9577 28.2556 19.1827 29.2002 20.2861 30.4233C21.4286 31.6896 22.4145 33.2405 22.7445 34.0944L22.7858 34.2058C22.9961 34.8287 23.1137 35.734 23.1757 36.6477C23.2312 37.4438 23.2479 38.2399 23.2499 38.873C21.9918 38.6503 19.7025 38.6256 18.4136 38.7432H18.4054L18.3806 38.7452L18.3497 38.7473C17.9062 36.1837 16.9245 35.2928 15.885 34.3521C15.2065 33.7376 14.5031 33.1004 13.9278 31.9061C13.4762 30.9698 13.2554 28.3465 13.3565 26.0262C13.439 24.1165 13.7235 22.4377 14.2475 22.1838L14.3011 22.1613C14.5608 22.056 14.7897 22.1262 14.9817 22.2788C15.2087 22.4602 15.3942 22.7489 15.5282 23.0274L15.6231 23.2398C15.8994 23.9183 16.1139 24.9084 16.2335 25.9086C16.3471 26.8696 16.3719 27.8326 16.2749 28.5298ZM30.0766 24.2998C28.7814 24.1079 26.9851 23.9884 25.001 23.9884C23.0148 23.9884 21.2205 24.108 19.9233 24.2998C18.7496 24.4729 18.0217 24.6565 18.0217 24.8069C18.0217 24.9576 18.7496 25.1411 19.9233 25.3143C21.2185 25.5061 23.0148 25.6259 25.001 25.6259C26.985 25.6259 28.7814 25.506 30.0766 25.3143C31.2501 25.1411 31.9782 24.9576 31.9782 24.8069C31.9782 24.6565 31.2501 24.473 30.0766 24.2998ZM24.902 13.4287L24.9846 13.4349L25.0897 13.4266H25.0917H25.0938L25.0959 13.4246L25.1824 13.4059C25.3 13.373 25.4052 13.3091 25.4897 13.2246C25.6197 13.0966 25.6981 12.9173 25.6981 12.7192C25.6981 12.5233 25.6197 12.3439 25.4897 12.216C25.3598 12.0861 25.1824 12.0057 24.9846 12.0057C24.7927 12.0057 24.6193 12.082 24.4915 12.2037L24.4813 12.216C24.3514 12.344 24.2708 12.5233 24.2708 12.7192C24.2708 12.9172 24.3514 13.0966 24.4792 13.2246C24.5698 13.3153 24.6854 13.3812 24.8154 13.4142L24.8236 13.4163L24.8318 13.4183L24.8669 13.4246L24.8751 13.4266L24.902 13.4287ZM30.2788 13.2596C30.419 13.2596 30.5325 13.373 30.5325 13.5134C30.5325 13.6536 30.419 13.767 30.2788 13.767H29.4291C29.2889 13.767 29.1754 13.6536 29.1754 13.5134C29.1754 13.373 29.2889 13.2596 29.4291 13.2596H30.2788ZM19.7026 13.767C19.5644 13.767 19.4511 13.6536 19.4511 13.5134C19.4511 13.373 19.5644 13.2596 19.7026 13.2596H20.5522C20.6926 13.2596 20.8061 13.373 20.8061 13.5134C20.8061 13.6536 20.6926 13.767 20.5522 13.767H19.7026ZM15.0105 13.767C14.8704 13.767 14.7569 13.6536 14.7569 13.5134C14.7569 13.373 14.8704 13.2596 15.0105 13.2596H16.6132C16.7533 13.2596 16.8668 13.373 16.8668 13.5134C16.8668 13.6536 16.7533 13.767 16.6132 13.767H15.0105ZM24.737 2.79286C24.737 2.65253 24.8505 2.53925 24.9908 2.53925C25.1311 2.53925 25.2444 2.65253 25.2444 2.79286V5.26161C25.2444 5.40184 25.1311 5.51532 24.9908 5.51532C24.8505 5.51532 24.737 5.40184 24.737 5.26161V2.79286ZM34.7521 7.93036C34.876 7.86434 35.0284 7.90966 35.0965 8.03339C35.1626 8.15516 35.1151 8.30985 34.9935 8.37577L32.7186 9.60927C32.5946 9.67723 32.4422 9.62977 32.3741 9.50819C32.308 9.38436 32.3534 9.23182 32.4772 9.16376L34.7521 7.93036ZM14.988 8.37577C14.8663 8.30985 14.8209 8.15516 14.8869 8.03339C14.9528 7.90966 15.1076 7.86444 15.2293 7.93036L17.5041 9.16366C17.6278 9.23173 17.6732 9.38436 17.6072 9.50809C17.5412 9.62968 17.3865 9.67714 17.2628 9.60917L14.988 8.37577ZM29.7652 5.25946C29.8395 5.14188 29.9942 5.10477 30.1138 5.17684C30.2334 5.25126 30.2704 5.40585 30.1962 5.52548L29.396 6.83094C29.3218 6.94852 29.167 6.98553 29.0475 6.91346C28.9278 6.83915 28.8908 6.68456 28.963 6.56493L29.7652 5.25946ZM19.7852 5.52557C19.7109 5.40585 19.7481 5.25126 19.8678 5.17694C19.9874 5.10487 20.144 5.14198 20.2163 5.25956L21.0185 6.56503C21.0907 6.68475 21.0535 6.83934 20.934 6.91356C20.8164 6.98563 20.6596 6.94862 20.5875 6.83104L19.7852 5.52557ZM24.737 7.46844C24.737 7.32801 24.8505 7.21464 24.9908 7.21464C25.1311 7.21464 25.2444 7.32801 25.2444 7.46844V8.86054C25.2444 8.99872 25.1311 9.1121 24.9908 9.1121C24.8505 9.1121 24.737 8.99872 24.737 8.86054V7.46844ZM30.0994 10.2712C30.2211 10.2011 30.3757 10.2423 30.4457 10.364C30.516 10.4837 30.4747 10.6403 30.353 10.7084L29.1485 11.4055C29.0269 11.4757 28.8722 11.4344 28.8021 11.3127C28.7319 11.1931 28.7732 11.0363 28.8949 10.9683L30.0994 10.2712ZM19.6285 10.7084C19.5087 10.6403 19.4676 10.4836 19.5377 10.364C19.6058 10.2423 19.7625 10.2011 19.8821 10.2712L21.0887 10.9683C21.2083 11.0363 21.2494 11.1932 21.1793 11.3127C21.1092 11.4344 20.9545 11.4757 20.8349 11.4055L19.6285 10.7084ZM27.416 8.80682C27.4862 8.68719 27.6408 8.64608 27.7604 8.71415C27.882 8.78417 27.9233 8.93886 27.8532 9.05858L27.4284 9.79481C27.3603 9.91649 27.2057 9.9577 27.084 9.88749C26.9644 9.81952 26.9231 9.66473 26.9911 9.54315L27.416 8.80682ZM22.1281 9.05858C22.0599 8.93876 22.1013 8.78407 22.2208 8.71415C22.3425 8.64608 22.4973 8.68729 22.5652 8.80682L22.99 9.54315C23.0604 9.66473 23.019 9.81952 22.8974 9.88749C22.7777 9.9577 22.623 9.91649 22.5529 9.79481L22.1281 9.05858ZM34.9707 13.2596C35.1111 13.2596 35.2246 13.373 35.2246 13.5134C35.2246 13.6536 35.1111 13.767 34.9707 13.767H33.3684C33.2279 13.767 33.1146 13.6536 33.1146 13.5134C33.1146 13.373 33.2279 13.2596 33.3684 13.2596H34.9707ZM29.4229 27.9915C29.5302 27.9029 29.6889 27.9173 29.7775 28.0224C29.8661 28.1298 29.8518 28.2905 29.7445 28.3792C29.7343 28.3874 26.1045 31.4006 25.6939 32.834C25.2712 34.3128 25.2258 38.0932 25.2258 38.1055V38.1116V38.1178V38.1239V38.1301H25.2237V38.1364V38.1426L25.2217 38.1487V38.1549L25.2196 38.161L25.2176 38.1672L25.2155 38.1733V38.1795H25.2135V38.1856H25.2112V38.1918L25.2092 38.198H25.2071L25.2051 38.2022L25.203 38.2084L25.201 38.2145L25.1989 38.2186H25.1969L25.1948 38.2248L25.1928 38.2309L25.1887 38.235L25.1866 38.2412L25.1824 38.2453L25.1804 38.2515H25.1783L25.1763 38.2557L25.1722 38.2598L25.1681 38.266L25.1639 38.2701L25.1598 38.2742L25.1557 38.2783L25.1514 38.2824L25.1473 38.2886L25.1432 38.2927L25.1391 38.2947H25.137L25.1329 38.2987L25.1288 38.3029L25.1247 38.307H25.1227L25.1186 38.3113L25.1145 38.3134L25.1083 38.3174L25.1042 38.3216L25.098 38.3236L25.0938 38.3277L25.0876 38.3298L25.0814 38.3318L25.0773 38.3358L25.0712 38.3379L25.065 38.3399L25.0589 38.342L25.0548 38.344H25.0527L25.0486 38.3461L25.0425 38.3481L25.0361 38.3502H25.03L25.0238 38.3522L25.0177 38.3543H25.0115H25.0054L24.9992 38.3563H24.9931H24.991H24.9869H24.9849H24.9785H24.9724H24.9662H24.9601H24.9539H24.9478L24.9416 38.3543H24.9396H24.9334H24.9272L24.9231 38.3522H24.9211L24.9147 38.3502H24.9106H24.9086L24.9045 38.3481H24.9024L24.8983 38.3461L24.8922 38.344L24.886 38.342L24.8799 38.3399L24.8737 38.3379L24.8696 38.3358L24.8635 38.3318L24.8571 38.3298L24.853 38.3277L24.8469 38.3236L24.8407 38.3216L24.8366 38.3174L24.8325 38.3134H24.8305L24.8264 38.3113L24.8223 38.307L24.8161 38.3029L24.812 38.2987L24.8079 38.2947L24.8036 38.2927H24.8016L24.7975 38.2886L24.7934 38.2824L24.7893 38.2783L24.7852 38.2742L24.7811 38.2701L24.777 38.266L24.7749 38.2598H24.7729L24.7708 38.2557L24.7667 38.2515L24.7626 38.2453L24.7605 38.2412L24.7564 38.235L24.7544 38.2309H24.7523L24.7503 38.2248L24.7482 38.2186L24.7439 38.2145L24.7419 38.2084L24.7398 38.2022L24.7378 38.198L24.7357 38.1918L24.7337 38.1856L24.7316 38.1795L24.7296 38.1733L24.7275 38.1672L24.7255 38.161V38.1549L24.7234 38.1487V38.1426L24.7214 38.1364V38.1301V38.1239H24.7193V38.1178V38.1116V38.1055C24.7193 38.0932 24.6739 34.3127 24.2512 32.834C23.8429 31.4006 20.2109 28.3874 20.2005 28.3792C20.0934 28.2905 20.0788 28.1297 20.1676 28.0224C20.2562 27.9173 20.4171 27.9028 20.5223 27.9915C20.5346 27.9997 24.2862 31.112 24.7378 32.6959C24.8348 33.032 24.911 33.4734 24.9729 33.9623C25.0348 33.4734 25.1133 33.0321 25.2079 32.6959C25.6589 31.112 29.4126 27.9997 29.4229 27.9915ZM23.6913 47.4608C23.5511 47.4608 23.4377 47.3473 23.4377 47.2069C23.4377 47.0688 23.5512 46.9555 23.6913 46.9555H33.5868C33.7272 46.9555 33.8406 47.0688 33.8406 47.2069C33.8406 47.3473 33.7272 47.4608 33.5868 47.4608H23.6913ZM34.5995 47.4608C34.4592 47.4608 34.3458 47.3473 34.3458 47.2069C34.3458 47.0688 34.4592 46.9555 34.5995 46.9555H35.837C35.9751 46.9555 36.0906 47.0688 36.0906 47.2069C36.0906 47.3473 35.9751 47.4608 35.837 47.4608H34.5995ZM14.7549 47.4359C14.6146 47.4359 14.5011 47.3224 14.5011 47.1823C14.5011 47.0421 14.6146 46.9286 14.7549 46.9286H19.4427C19.5831 46.9286 19.6965 47.0421 19.6965 47.1823C19.6965 47.3224 19.583 47.4359 19.4427 47.4359H14.7549ZM17.403 46.5925C17.2629 46.5925 17.1494 46.479 17.1494 46.3387C17.1494 46.1984 17.2629 46.0849 17.403 46.0849H29.6167C29.7571 46.0849 29.8705 46.1984 29.8705 46.3387C29.8705 46.479 29.7571 46.5925 29.6167 46.5925H17.403ZM25.1494 13.93H25.1453H25.1433L25.1412 13.932H25.1392H25.1351H25.133H25.131H25.1289H25.1269L25.1248 13.9341H25.1228H25.1207H25.1187H25.1166H25.1125H25.1105H25.1084L25.1063 13.9361H25.1043H25.0981H25.0961H25.0939H25.0898H25.0878H25.0857L25.0816 13.9382H25.0796H25.0775H25.0755H25.0734H25.0693H25.0673H25.0652H25.0632H25.0591H25.057H25.055L25.0529 13.9402H25.0488H25.0468H25.0447H25.0427H25.0386H25.0364H25.0344H25.0323H25.0282H25.0262H25.0241H25.0221H25.018H25.0159H25.0139H25.0118H25.0077H25.0057H25.0036H25.0016H24.9995H24.9954H24.9934H24.9913H24.9893H24.9852C24.9397 13.9402 24.8943 13.9382 24.851 13.9341L21.646 19.1458L16.8592 16.5781L16.8303 16.6069C16.8035 16.6358 16.7726 16.6626 16.7417 16.6895L17.9462 24.3101L17.9647 24.2999H17.9667L17.9852 24.2896L17.9997 24.2834L18.0038 24.2813L18.0243 24.2711L18.0346 24.267C19.699 23.4812 24.5064 23.4812 25.0015 23.4812C25.651 23.4812 30.1678 23.4792 31.9147 24.2423L31.9312 24.2505L31.9354 24.2525L31.9559 24.2607L31.9662 24.2669L31.9765 24.271L31.9971 24.2812L32.0012 24.2833L32.0155 24.2895L32.0342 24.2998H32.0362L32.0547 24.31L33.2343 16.844C33.1416 16.7967 33.0528 16.7367 32.9765 16.6646L28.3567 19.1457L25.1494 13.93Z" fill="black" fill-opacity="0.8"/>
</svg>
