<svg width="34" height="34" viewBox="0 0 34 34" fill="none" xmlns="http://www.w3.org/2000/svg">
<rect width="34" height="34" rx="17" fill="#788847"/>
<mask id="mask0_10_4088" style="mask-type:alpha" maskUnits="userSpaceOnUse" x="5" y="5" width="24" height="24">
<rect x="5" y="5" width="24" height="24" fill="#D9D9D9"/>
</mask>
<g mask="url(#mask0_10_4088)">
<path d="M10 25V23H24V25H10ZM10 21.5L8.725 13.475C8.69167 13.475 8.65417 13.4792 8.6125 13.4875C8.57083 13.4958 8.53333 13.5 8.5 13.5C8.08333 13.5 7.72917 13.3542 7.4375 13.0625C7.14583 12.7708 7 12.4167 7 12C7 11.5833 7.14583 11.2292 7.4375 10.9375C7.72917 10.6458 8.08333 10.5 8.5 10.5C8.91667 10.5 9.27083 10.6458 9.5625 10.9375C9.85417 11.2292 10 11.5833 10 12C10 12.1167 9.9875 12.225 9.9625 12.325C9.9375 12.425 9.90833 12.5167 9.875 12.6L13 14L16.125 9.725C15.9417 9.59167 15.7917 9.41667 15.675 9.2C15.5583 8.98333 15.5 8.75 15.5 8.5C15.5 8.08333 15.6458 7.72917 15.9375 7.4375C16.2292 7.14583 16.5833 7 17 7C17.4167 7 17.7708 7.14583 18.0625 7.4375C18.3542 7.72917 18.5 8.08333 18.5 8.5C18.5 8.75 18.4417 8.98333 18.325 9.2C18.2083 9.41667 18.0583 9.59167 17.875 9.725L21 14L24.125 12.6C24.0917 12.5167 24.0625 12.425 24.0375 12.325C24.0125 12.225 24 12.1167 24 12C24 11.5833 24.1458 11.2292 24.4375 10.9375C24.7292 10.6458 25.0833 10.5 25.5 10.5C25.9167 10.5 26.2708 10.6458 26.5625 10.9375C26.8542 11.2292 27 11.5833 27 12C27 12.4167 26.8542 12.7708 26.5625 13.0625C26.2708 13.3542 25.9167 13.5 25.5 13.5C25.4667 13.5 25.4292 13.4958 25.3875 13.4875C25.3458 13.4792 25.3083 13.475 25.275 13.475L24 21.5H10ZM11.7 19.5H22.3L22.95 15.325L20.325 16.475L17 11.9L13.675 16.475L11.05 15.325L11.7 19.5Z" fill="white"/>
</g>
</svg>
