<svg width="95" height="95" viewBox="0 0 95 95" fill="none" xmlns="http://www.w3.org/2000/svg">
<path fill-rule="evenodd" clip-rule="evenodd" d="M22.5778 59.686C22.4292 59.2888 22.2879 58.8895 22.154 58.4883L67.1522 13.49C67.5535 13.624 67.9528 13.7652 68.35 13.9139L22.5778 59.686ZM24.2345 63.4345C24.0497 63.0746 23.8715 62.7123 23.6999 62.3476L71.0115 15.0359C71.3762 15.2076 71.7386 15.3858 72.0985 15.5705L24.2345 63.4345ZM26.2322 66.842C26.0152 66.5153 25.8042 66.1857 25.5991 65.8535L74.5175 16.9352C74.8497 17.1402 75.1792 17.3513 75.506 17.5683L26.2322 66.842ZM28.5411 69.9384C28.2942 69.6422 28.0528 69.343 27.8169 69.0409L77.7048 19.153C78.007 19.3888 78.3062 19.6302 78.6023 19.8771L28.5411 69.9384ZM31.1433 72.7413C31.0063 72.6085 30.8701 72.4745 30.7347 72.3392C30.5993 72.2038 30.4652 72.0675 30.3325 71.9305L80.5945 21.6686C80.7315 21.8013 80.8677 21.9354 81.0031 22.0708C81.1385 22.2062 81.2725 22.3423 81.4053 22.4794L31.1433 72.7413ZM34.0329 75.2568C33.7308 75.021 33.4316 74.7797 33.1355 74.5328L83.1967 24.4716C83.4437 24.7676 83.685 25.0669 83.9208 25.369L34.0329 75.2568ZM37.2204 77.4747C36.8881 77.2697 36.5586 77.0586 36.2318 76.8417L85.5056 27.5679C85.7226 27.8946 85.9336 28.2242 86.1387 28.5564L37.2204 77.4747ZM40.7263 79.3739C40.3616 79.2023 39.9992 79.0241 39.6393 78.8393L87.5033 30.9753C87.688 31.3353 87.8662 31.6976 88.0379 32.0623L40.7263 79.3739ZM44.5855 80.9199C44.1843 80.7859 43.785 80.6446 43.3878 80.496L89.16 34.7239C89.3086 35.1211 89.4499 35.5204 89.5838 35.9216L44.5855 80.9199ZM48.8555 82.0552C48.4111 81.9661 47.968 81.8686 47.5266 81.7625L90.4264 38.8627C90.5325 39.304 90.6301 39.7471 90.7191 40.1915L48.8555 82.0552ZM53.8908 82.6953C53.3882 82.6674 52.8859 82.629 52.3846 82.5799L91.2439 43.7206C91.293 44.222 91.3315 44.7242 91.3593 45.2268L53.8908 82.6953ZM59.4177 82.5735C58.8344 82.6317 58.2499 82.6755 57.6648 82.705L91.3689 49.0008C91.3395 49.586 91.2957 50.1705 91.2375 50.7538L59.4177 82.5735ZM66.1622 81.2343C65.4304 81.4549 64.6929 81.6515 63.9509 81.824L90.4879 55.287C90.3155 56.0289 90.1189 56.7665 89.8983 57.4982L66.1622 81.2343ZM77.034 75.7677C75.6145 76.8223 74.1344 77.7574 72.6071 78.573L87.237 63.9432C86.4213 65.4704 85.4863 66.9506 84.4317 68.37L77.034 75.7677ZM64.2112 12.6474L21.3114 55.5473C21.2053 55.1058 21.1077 54.6628 21.0187 54.2184L62.8823 12.3547C63.3268 12.4437 63.7698 12.5413 64.2112 12.6474ZM57.847 11.7146C58.3497 11.7424 58.8518 11.7809 59.3532 11.83L20.4939 50.6892C20.4448 50.1879 20.4064 49.6857 20.3785 49.1831L57.847 11.7146ZM52.32 11.8364C52.9034 11.7782 53.4879 11.7344 54.073 11.705L20.3689 45.409C20.3983 44.8239 20.4421 44.2395 20.5003 43.6561L52.32 11.8364ZM45.5756 13.1756C46.3074 12.9549 47.0449 12.7584 47.7868 12.5859L21.2498 39.1229C21.4223 38.3809 21.6189 37.6434 21.8395 36.9116L45.5756 13.1756ZM34.7039 18.6422C36.1232 17.5876 37.6035 16.6525 39.1306 15.8369L24.5008 30.4667C25.3165 28.9395 26.2516 27.4593 27.3061 26.0399L34.7039 18.6422Z" fill="#EF5DA8"/>
</svg>
