<svg width="98" height="98" viewBox="0 0 98 98" fill="none" xmlns="http://www.w3.org/2000/svg">
<path d="M57.5879 26.2422L57.9629 27.2568L58.9443 26.8037L81.5527 16.3848L71.1338 38.9932L70.6816 39.9756L71.6963 40.3496L95.0498 48.9688L71.6963 57.5879L70.6816 57.9629L71.1338 58.9443L81.5537 81.5537L58.9443 71.1338L57.9629 70.6816L57.5879 71.6963L48.9688 95.0498L40.3496 71.6963L39.9756 70.6816L38.9932 71.1338L16.3848 81.5527L26.8037 58.9443L27.2568 57.9629L26.2422 57.5879L2.8877 48.9688L26.2422 40.3496L27.2568 39.9756L26.8037 38.9932L16.3848 16.3848L38.9932 26.8037L39.9756 27.2568L40.3496 26.2422L48.9688 2.8877L57.5879 26.2422Z" fill="white" stroke="#020202" stroke-width="2"/>
</svg>
