<svg width="208" viewBox="0 0 208 0" fill="none" xmlns="http://www.w3.org/2000/svg">
<path d="M-5.33333 0C-5.33333 2.94552 -2.94552 5.33333 0 5.33333C2.94552 5.33333 5.33333 2.94552 5.33333 0C5.33333 -2.94552 2.94552 -5.33333 0 -5.33333C-2.94552 -5.33333 -5.33333 -2.94552 -5.33333 0ZM202.667 0C202.667 2.94552 205.054 5.33333 208 5.33333C210.946 5.33333 213.333 2.94552 213.333 0C213.333 -2.94552 210.946 -5.33333 208 -5.33333C205.054 -5.33333 202.667 -2.94552 202.667 0ZM0 0V1H208V0V-1H0V0Z" fill="#F38406"/>
</svg>
