<svg width="42" height="42" viewBox="0 0 42 42" fill="none" xmlns="http://www.w3.org/2000/svg">
<path d="M21.0204 3.9375C22.7121 3.9375 24.0836 5.30853 24.0836 7.00001C24.0836 8.22187 23.368 9.27646 22.333 9.76791L22.3329 14.4375H32.4004C34.0749 14.4375 35.4355 15.7813 35.4625 17.4494L35.4629 17.5V35C35.4629 36.6744 34.1191 38.0351 32.4511 38.0621L32.4004 38.0625H9.64046C7.966 38.0625 6.60539 36.7187 6.57836 35.0506L6.57795 35V17.5C6.57795 15.8256 7.92178 14.4649 9.58981 14.4379L9.64046 14.4375H19.7079V9.76791C18.6873 9.28327 17.9772 8.25095 17.9577 7.05063L17.9573 7.00001C17.9573 5.30853 19.3288 3.9375 21.0204 3.9375ZM24.5218 28H17.5191C16.5522 28 15.7684 28.7835 15.7684 29.75C15.7684 30.7069 16.5367 31.4843 17.4902 31.4998L17.5191 31.5H24.5218C25.4887 31.5 26.2725 30.7165 26.2725 29.75C26.2725 28.7931 25.5042 28.0157 24.5507 28.0003L24.5218 28ZM3.51379 21.4375C4.2314 21.4375 4.81452 22.0134 4.82609 22.7283L4.82629 22.75V29.75C4.82629 30.4749 4.23866 31.0625 3.51379 31.0625C2.79614 31.0625 2.21307 30.4866 2.20146 29.7717L2.20129 29.75V22.75C2.20129 22.0251 2.78892 21.4375 3.51379 21.4375ZM38.5271 21.4375C39.2447 21.4375 39.8278 22.0134 39.8394 22.7283L39.8396 22.75V29.75C39.8396 30.4749 39.252 31.0625 38.5271 31.0625C37.8095 31.0625 37.2264 30.4866 37.2148 29.7717L37.2146 29.75V22.75C37.2146 22.0251 37.8022 21.4375 38.5271 21.4375ZM14.8931 21C13.9263 21 13.1425 21.7835 13.1425 22.75C13.1425 23.7165 13.9263 24.5 14.8932 24.5C15.86 24.5 16.6438 23.7165 16.6438 22.75C16.6438 21.7835 15.86 21 14.8932 21H14.8931ZM27.1478 21C26.1809 21 25.3971 21.7835 25.3971 22.75C25.3971 23.7165 26.1809 24.5 27.1478 24.5C28.1147 24.5 28.8985 23.7165 28.8985 22.75C28.8985 21.7835 28.1147 21 27.1478 21ZM21.0204 6.5625C20.7783 6.5625 20.5823 6.75847 20.5823 7.00001C20.5823 7.24151 20.7783 7.43749 21.0204 7.43749C21.2626 7.43749 21.4586 7.24151 21.4586 7.00001C21.4586 6.75847 21.2626 6.5625 21.0204 6.5625Z" fill="white"/>
</svg>
