<svg width="175" viewBox="0 0 175 0" fill="none" xmlns="http://www.w3.org/2000/svg">
<path d="M-5.33333 0C-5.33333 2.94552 -2.94552 5.33333 0 5.33333C2.94552 5.33333 5.33333 2.94552 5.33333 0C5.33333 -2.94552 2.94552 -5.33333 0 -5.33333C-2.94552 -5.33333 -5.33333 -2.94552 -5.33333 0ZM169.667 0C169.667 2.94552 172.054 5.33333 175 5.33333C177.946 5.33333 180.333 2.94552 180.333 0C180.333 -2.94552 177.946 -5.33333 175 -5.33333C172.054 -5.33333 169.667 -2.94552 169.667 0ZM0 0V1H175V0V-1H0V0Z" fill="#F38406"/>
</svg>
