<svg width="200" viewBox="0 0 200 0" fill="none" xmlns="http://www.w3.org/2000/svg">
<path d="M-5.33333 0C-5.33333 2.94552 -2.94552 5.33333 0 5.33333C2.94552 5.33333 5.33333 2.94552 5.33333 0C5.33333 -2.94552 2.94552 -5.33333 0 -5.33333C-2.94552 -5.33333 -5.33333 -2.94552 -5.33333 0ZM194.667 0C194.667 2.94552 197.054 5.33333 200 5.33333C202.946 5.33333 205.333 2.94552 205.333 0C205.333 -2.94552 202.946 -5.33333 200 -5.33333C197.054 -5.33333 194.667 -2.94552 194.667 0ZM0 0V1H200V0V-1H0V0Z" fill="#F38406"/>
</svg>
