<svg width="42" height="42" viewBox="0 0 42 42" fill="none" xmlns="http://www.w3.org/2000/svg">
<path d="M35 7.85749L32.445 7.59499C24.8002 6.80753 17.0947 6.80753 9.44995 7.59499L6.99995 7.85749C5.54002 8.0225 4.19375 8.72494 3.22328 9.82804C2.25281 10.9311 1.72762 12.3559 1.74995 13.825V28.175C1.72762 29.6441 2.25281 31.0688 3.22328 32.1719C4.19375 33.275 5.54002 33.9775 6.99995 34.1425L9.55495 34.405C17.1997 35.1925 24.9052 35.1925 32.55 34.405L35 34.1425C36.4599 33.9775 37.8062 33.275 38.7766 32.1719C39.7471 31.0688 40.2723 29.6441 40.25 28.175V13.825C40.2723 12.3559 39.7471 10.9311 38.7766 9.82804C37.8062 8.72494 36.4599 8.0225 35 7.85749ZM26.25 22.085L19.4425 26.635C19.2475 26.742 19.0285 26.7978 18.806 26.797C18.5836 26.7962 18.365 26.7388 18.1708 26.6303C17.9766 26.5219 17.8131 26.3658 17.6958 26.1768C17.5784 25.9879 17.5111 25.7722 17.5 25.55V16.45C17.5004 16.2119 17.5656 15.9785 17.6885 15.7746C17.8115 15.5707 17.9875 15.4041 18.1979 15.2927C18.4083 15.1812 18.645 15.129 18.8827 15.1418C19.1204 15.1545 19.3502 15.2317 19.5475 15.365L26.355 19.915C26.5355 20.0326 26.6838 20.1935 26.7865 20.3829C26.8892 20.5724 26.943 20.7845 26.943 21C26.943 21.2155 26.8892 21.4276 26.7865 21.617C26.6838 21.8065 26.5355 21.9673 26.355 22.085H26.25Z" fill="white"/>
</svg>
