<svg width="42" height="42" viewBox="0 0 42 42" fill="none" xmlns="http://www.w3.org/2000/svg">
<path d="M35.6204 13.0484C35.6204 12.6802 35.6143 12.3145 35.5989 11.9533C37.0711 10.7786 38.3479 9.30968 39.3584 7.628C38.0071 8.27764 36.5563 8.71276 35.0313 8.89361C36.5878 7.8698 37.7813 6.23064 38.3449 4.2639C36.8881 5.20918 35.2768 5.88702 33.5624 6.23728C32.1892 4.56475 30.23 3.50061 28.0639 3.4609C23.904 3.38728 20.532 7.14932 20.532 11.8639C20.532 12.5326 20.5972 13.1841 20.7275 13.8106C14.463 13.3789 8.91183 9.88989 5.19895 4.62838C4.55116 5.88912 4.17908 7.36199 4.17908 8.94125C4.17908 11.9263 5.50861 14.58 7.52988 16.1455C6.2931 16.0862 5.13381 15.6856 4.11726 15.0284C4.11726 15.0645 4.11726 15.1008 4.11726 15.1372C4.11726 19.3098 6.71483 22.806 10.1608 23.6229C9.52881 23.8153 8.86222 23.9156 8.17716 23.9117C7.6905 23.9081 7.21967 23.8526 6.76092 23.7459C7.71867 27.1659 10.5017 29.664 13.7965 29.7464C11.218 32.0362 7.96957 33.4024 4.44266 33.3933C3.83491 33.3933 3.23342 33.3491 2.64502 33.2697C5.98004 35.7182 9.93816 37.1438 14.1937 37.1438C28.0451 37.1487 35.6204 24.2443 35.6204 13.0484Z" fill="white"/>
</svg>
