<svg width="40" height="40" viewBox="0 0 40 40" fill="none" xmlns="http://www.w3.org/2000/svg">
<path d="M20.0196 3.75C21.6307 3.75 22.9369 5.05574 22.9369 6.66668C22.9369 7.83035 22.2553 8.83473 21.2696 9.30277L21.2696 13.75H30.8576C32.4524 13.75 33.7482 15.0298 33.7739 16.6184L33.7743 16.6667V33.3333C33.7743 34.928 32.4945 36.2239 30.9059 36.2496L30.8576 36.25H9.18148C7.58675 36.25 6.29093 34.9702 6.26519 33.3816L6.2648 33.3333V16.6667C6.2648 15.072 7.54464 13.7761 9.13324 13.7504L9.18148 13.75H18.7696V9.30277C17.7975 8.84121 17.1212 7.85805 17.1026 6.71488L17.1023 6.66668C17.1023 5.05574 18.4085 3.75 20.0196 3.75ZM23.3542 26.6667H16.685C15.7641 26.6667 15.0176 27.4129 15.0176 28.3333C15.0176 29.2446 15.7493 29.9851 16.6574 29.9998L16.685 30H23.3542C24.275 30 25.0215 29.2538 25.0215 28.3333C25.0215 27.422 24.2898 26.6816 23.3817 26.6669L23.3542 26.6667ZM3.34656 20.4167C4.02999 20.4167 4.58535 20.9652 4.59636 21.646L4.59656 21.6667V28.3333C4.59656 29.0237 4.03691 29.5833 3.34656 29.5833C2.66308 29.5833 2.10777 29.0348 2.09671 28.354L2.09656 28.3333V21.6667C2.09656 20.9763 2.65621 20.4167 3.34656 20.4167ZM36.6926 20.4167C37.376 20.4167 37.9314 20.9652 37.9424 21.646L37.9426 21.6667V28.3333C37.9426 29.0237 37.3829 29.5833 36.6926 29.5833C36.0091 29.5833 35.4538 29.0348 35.4428 28.354L35.4426 28.3333V21.6667C35.4426 20.9763 36.0022 20.4167 36.6926 20.4167ZM14.184 20C13.2632 20 12.5168 20.7462 12.5168 21.6667C12.5168 22.5871 13.2632 23.3333 14.1841 23.3333C15.1049 23.3333 15.8514 22.5871 15.8514 21.6667C15.8514 20.7462 15.1049 20 14.1841 20H14.184ZM25.8551 20C24.9343 20 24.1878 20.7462 24.1878 21.6667C24.1878 22.5871 24.9343 23.3333 25.8551 23.3333C26.776 23.3333 27.5224 22.5871 27.5224 21.6667C27.5224 20.7462 26.776 20 25.8551 20ZM20.0196 6.25C19.789 6.25 19.6023 6.43664 19.6023 6.66668C19.6023 6.89668 19.789 7.08332 20.0196 7.08332C20.2501 7.08332 20.4369 6.89668 20.4369 6.66668C20.4369 6.43664 20.2501 6.25 20.0196 6.25Z" fill="white"/>
</svg>
