<svg width="32" height="32" viewBox="0 0 32 32" fill="none" xmlns="http://www.w3.org/2000/svg">
<path d="M27.1393 9.94154C27.1393 9.66103 27.1347 9.38237 27.1229 9.10722C28.2446 8.21222 29.2174 7.09301 29.9873 5.81173C28.9577 6.30669 27.8524 6.63821 26.6905 6.776C27.8764 5.99596 28.7857 4.74708 29.2151 3.2486C28.1051 3.96882 26.8775 4.48527 25.5713 4.75213C24.525 3.47783 23.0323 2.66705 21.3819 2.6368C18.2125 2.58071 15.6434 5.44702 15.6434 9.03911C15.6434 9.54856 15.6931 10.0449 15.7923 10.5223C11.0194 10.1934 6.78991 7.53507 3.96105 3.5263C3.46749 4.48687 3.18401 5.60905 3.18401 6.8123C3.18401 9.08663 4.19698 11.1085 5.73699 12.3013C4.79469 12.256 3.91142 11.9508 3.1369 11.4501C3.1369 11.4776 3.1369 11.5053 3.1369 11.533C3.1369 14.7121 5.11601 17.3759 7.74152 17.9983C7.25999 18.1449 6.75211 18.2213 6.23016 18.2184C5.85938 18.2156 5.50064 18.1733 5.15112 18.092C5.88083 20.6977 8.00122 22.6011 10.5115 22.6639C8.54696 24.4085 6.072 25.4494 3.38483 25.4425C2.92178 25.4425 2.4635 25.4087 2.0152 25.3483C4.55616 27.2138 7.57188 28.2999 10.8142 28.2999C21.3677 28.3037 27.1393 18.4718 27.1393 9.94154Z" fill="white"/>
</svg>
