<svg width="70" height="70" viewBox="0 0 70 70" fill="none" xmlns="http://www.w3.org/2000/svg">
<path d="M62.9055 34.1522C63.8489 33.8585 64.5312 33.0433 64.5312 32.0552V27.3438C64.5312 24.9275 62.5725 22.9688 60.1562 22.9688H56.875V18.5938C56.875 15.5784 54.4216 13.125 51.4062 13.125H9.84375C6.82842 13.125 4.375 15.5784 4.375 18.5938V23.3052C4.375 24.7376 5.33736 26.0001 6.76922 26.4466C8.60795 27.019 9.84375 28.6981 9.84375 30.625C9.84375 32.5519 8.60795 34.231 6.76922 34.8035C5.33736 35.2499 4.375 36.5125 4.375 37.9448V42.6562C4.375 45.6716 6.82842 48.125 9.84375 48.125H14.2188V51.4062C14.2188 53.8225 16.1775 55.7812 18.5938 55.7812H52.5V48.125C52.5 47.5204 52.9892 47.0312 53.5938 47.0312C54.1983 47.0312 54.6875 47.5204 54.6875 48.125V55.7812H60.1562C62.5725 55.7812 64.5312 53.8225 64.5312 51.4062V46.6946C64.5312 45.7066 63.849 44.8913 62.9055 44.5978C60.6799 43.905 59.0625 41.8277 59.0625 39.375C59.0625 36.9223 60.6799 34.845 62.9055 34.1522ZM26.25 42.9297C26.25 43.5343 25.7603 44.0234 25.1562 44.0234C24.5522 44.0234 24.0625 43.5343 24.0625 42.9297V35.8203C24.0625 35.2157 24.5522 34.7266 25.1562 34.7266C25.7603 34.7266 26.25 35.2157 26.25 35.8203V42.9297ZM45.6314 40.6916L41.188 45.1835C40.1875 46.1949 38.5625 46.1949 37.562 45.1835L33.1186 40.6916C31.4985 39.0538 31.2197 36.422 32.6245 34.5933C34.3217 32.3837 37.482 32.2358 39.375 34.1496C41.2681 32.2358 44.4283 32.3836 46.1255 34.5933C47.5303 36.4219 47.2515 39.0537 45.6314 40.6916ZM54.6875 42.9297C54.6875 43.5343 54.1983 44.0234 53.5938 44.0234C52.9892 44.0234 52.5 43.5343 52.5 42.9297V35.8203C52.5 35.2157 52.9892 34.7266 53.5938 34.7266C54.1983 34.7266 54.6875 35.2157 54.6875 35.8203V42.9297ZM54.6875 30.625C54.6875 31.2296 54.1983 31.7188 53.5938 31.7188C52.9892 31.7188 52.5 31.2296 52.5 30.625V22.9688H18.5938C16.1775 22.9688 14.2188 24.9275 14.2188 27.3438V32.0552C14.2188 33.0433 14.901 33.8585 15.8445 34.1522C18.0701 34.845 19.6875 36.9223 19.6875 39.375C19.6875 41.8277 18.0701 43.905 15.8445 44.5978C15.1469 44.8149 14.5943 45.3182 14.3525 45.9646C14.3067 45.9586 14.2662 45.9375 14.2188 45.9375H9.84375C8.03441 45.9375 6.5625 44.4656 6.5625 42.6562V37.9448C6.5625 37.4674 6.89896 37.055 7.41973 36.8927C10.178 36.0329 12.0312 33.5143 12.0312 30.625C12.0312 27.7357 10.178 25.2171 7.41973 24.3573C6.89896 24.1948 6.5625 23.7826 6.5625 23.3052V18.5938C6.5625 16.7844 8.03441 15.3125 9.84375 15.3125H51.4062C53.2156 15.3125 54.6875 16.7844 54.6875 18.5938V22.9688V30.625Z" fill="white"/>
</svg>
