<svg width="138" viewBox="0 0 138 0" fill="none" xmlns="http://www.w3.org/2000/svg">
<path d="M-5.33333 0C-5.33333 2.94552 -2.94552 5.33333 0 5.33333C2.94552 5.33333 5.33333 2.94552 5.33333 0C5.33333 -2.94552 2.94552 -5.33333 0 -5.33333C-2.94552 -5.33333 -5.33333 -2.94552 -5.33333 0ZM132.667 0C132.667 2.94552 135.054 5.33333 138 5.33333C140.946 5.33333 143.333 2.94552 143.333 0C143.333 -2.94552 140.946 -5.33333 138 -5.33333C135.054 -5.33333 132.667 -2.94552 132.667 0ZM0 0V1H138V0V-1H0V0Z" fill="#191D22"/>
</svg>
