<svg width="70" height="70" viewBox="0 0 70 70" fill="none" xmlns="http://www.w3.org/2000/svg">
<path d="M62.3438 22.9688H61.25V16.8196C61.25 14.7651 59.3875 13.2349 57.407 13.5864L34.9999 17.4835L12.6016 13.5341C10.6039 13.1759 8.75 14.7186 8.75 16.7651V22.9688H7.65625C6.4482 22.9688 5.46875 23.9481 5.46875 25.1563V50.3125C5.46875 51.5205 6.4482 52.5 7.65625 52.5H25.5315C27.3912 52.5 28.2495 53.4058 29.3435 54.4998C30.164 55.3202 31.2769 55.7813 32.4371 55.7813C34.2918 55.7813 35.7079 55.7813 37.5627 55.7813C38.723 55.7813 39.8357 55.3202 40.6562 54.4998C41.7499 53.406 42.6069 52.5 44.4682 52.5H62.3438C63.5518 52.5 64.5312 51.5205 64.5312 50.3125V25.1563C64.5312 23.9481 63.5518 22.9688 62.3438 22.9688ZM57.7819 15.7419C58.431 15.626 59.0625 16.123 59.0625 16.8197V44.0416C59.0625 44.5736 58.6823 45.0264 58.1589 45.1194L36.0938 49.0094V19.5135L57.7819 15.7419ZM10.9375 16.7651C10.9375 16.0881 11.5454 15.5712 12.2214 15.6874L33.9062 19.5113V49.0094L11.8411 45.1194C11.3177 45.0264 10.9375 44.5736 10.9375 44.0416V16.7651ZM39.3921 36.6033C39.2864 36.0083 39.6837 35.4412 40.2786 35.3365L54.4973 32.8296C55.0901 32.7175 55.6594 33.1212 55.7642 33.7161C55.8698 34.3111 55.4725 34.8782 54.8777 34.9829L40.6589 37.4898C40.5948 37.5015 40.5307 37.5069 40.4678 37.5069C39.9465 37.5069 39.4851 37.134 39.3921 36.6033ZM39.3921 31.1346C39.2864 30.5396 39.6837 29.9724 40.2786 29.8677L54.4973 27.3608C55.0901 27.2508 55.6594 27.6525 55.7642 28.2473C55.8698 28.8423 55.4725 29.4094 54.8777 29.5142L40.6589 32.021C40.5948 32.0328 40.5307 32.0381 40.4678 32.0381C39.9465 32.0381 39.4851 31.6653 39.3921 31.1346ZM39.3921 25.6658C39.2864 25.0708 39.6837 24.5037 40.2786 24.399L54.4973 21.8921C55.0901 21.78 55.6594 22.1837 55.7642 22.7786C55.8698 23.3736 55.4725 23.9407 54.8777 24.0454L40.6589 26.5523C40.5948 26.564 40.5307 26.5694 40.4678 26.5694C39.9465 26.5694 39.4851 26.1965 39.3921 25.6658ZM39.3921 42.0721C39.2864 41.4771 39.6837 40.9099 40.2786 40.8052L54.4973 38.2983C55.0901 38.1883 55.6594 38.59 55.7642 39.1848C55.8698 39.7798 55.4725 40.3469 54.8777 40.4517L40.6589 42.9585C40.5948 42.9703 40.5307 42.9756 40.4678 42.9756C39.9465 42.9756 39.4851 42.6028 39.3921 42.0721ZM16.1655 29.8378C14.5454 27.9144 14.2666 25.2334 15.6714 23.6522C17.3686 21.742 20.5289 22.1513 22.4219 24.399C24.315 22.8189 27.4751 23.5241 29.1724 26.0329C30.5771 28.1094 30.2982 30.6921 28.6783 32.0441L24.2349 35.7526C23.2344 36.5877 21.6094 36.3012 20.6088 35.1132L16.1655 29.8378Z" fill="white"/>
</svg>
