<svg width="42" height="42" viewBox="0 0 42 42" fill="none" xmlns="http://www.w3.org/2000/svg">
<path d="M33.7803 9.33975C31.3623 8.22988 28.8087 7.4432 26.1853 7C25.851 7.57575 25.48 8.35625 25.2193 8.96875C22.4295 8.56023 19.5951 8.56023 16.8053 8.96875C16.5445 8.35625 16.1525 7.57575 15.8375 7C13.2118 7.43797 10.6563 8.22485 8.23903 9.33975C3.43178 16.4342 2.13153 23.3625 2.78253 30.1962C5.59934 32.2644 8.74598 33.8406 12.089 34.8582C12.84 33.8445 13.505 32.7698 14.077 31.6452C12.9798 31.2357 11.942 30.7353 10.9375 30.1402C11.1983 29.9548 11.4573 29.75 11.6988 29.5452C17.7538 32.3137 24.311 32.3137 30.2908 29.5452C30.5515 29.75 30.793 29.9548 31.052 30.1402C30.0493 30.7353 29.0098 31.2357 27.9143 31.6452C28.4857 32.7697 29.1501 33.8444 29.9005 34.8582C33.2448 33.8437 36.3919 32.2672 39.207 30.1962C40.0068 22.2862 37.9435 15.4122 33.782 9.33975H33.7803ZM14.91 25.9805C13.09 25.9805 11.6043 24.3267 11.6043 22.3038C11.6043 20.279 13.0533 18.6252 14.9118 18.6252C16.7493 18.6252 18.2543 20.279 18.2158 22.3038C18.2158 24.3267 16.7493 25.9787 14.91 25.9787V25.9805ZM27.1145 25.9805C25.2945 25.9805 23.807 24.3267 23.807 22.3038C23.807 20.279 25.256 18.6252 27.1145 18.6252C28.952 18.6252 30.457 20.279 30.4203 22.3038C30.4203 24.3267 28.9713 25.9787 27.1128 25.9787L27.1145 25.9805Z" fill="white"/>
</svg>
