<svg width="16" height="16" viewBox="0 0 16 16" fill="none" xmlns="http://www.w3.org/2000/svg">
<path fill-rule="evenodd" clip-rule="evenodd" d="M2.25638 1.38466C2.00702 1.28078 1.71961 1.33764 1.52859 1.52866C1.33758 1.71967 1.28071 2.00708 1.3846 2.25644L6.09794 13.5698C6.20459 13.8258 6.4586 13.989 6.73577 13.9797C7.01294 13.9703 7.25539 13.7904 7.34458 13.5278L8.67319 9.61606L12.1953 13.1381C12.4556 13.3985 12.8777 13.3985 13.1381 13.1381C13.3984 12.8778 13.3984 12.4557 13.1381 12.1953L9.616 8.67326L13.5277 7.34464C13.7903 7.25545 13.9703 7.01301 13.9796 6.73583C13.989 6.45866 13.8257 6.20465 13.5697 6.098L2.25638 1.38466ZM6.64982 11.4274L3.23797 3.23803L11.4274 6.64988L8.17226 7.75548C7.97609 7.82211 7.82205 7.97615 7.75542 8.17232L6.64982 11.4274Z" fill="#F38406"/>
</svg>
