<svg width="13" height="15" viewBox="0 0 13 15" fill="none" xmlns="http://www.w3.org/2000/svg">
<path d="M11.6769 3.8675L7.31 0.32937C7.05501 0.11687 6.72563 0 6.38563 0H1.45563C0.64813 0 0 0.64812 0 1.45562V13.4194C0 14.2269 0.65875 14.875 1.45563 14.875H10.7632C11.5707 14.875 12.2188 14.2269 12.2188 13.4194V5.0044C12.2188 4.56875 12.0169 4.14375 11.6769 3.8675ZM7.03376 1.45562L10.71 4.66437C10.8588 4.79187 10.7738 5.0362 10.5719 5.0362H7.42688C7.21438 5.0362 7.03376 4.86625 7.03376 4.64313V1.46625V1.45562ZM10.1682 13.4087H2.04C1.79563 13.4087 1.59376 13.2069 1.59376 12.9519V1.90188C1.59376 1.6575 1.79563 1.45562 2.04 1.45562H5.70563V5.0469C5.70563 5.78 6.30063 6.375 7.03376 6.375H10.6144V12.9625C10.6144 13.2069 10.4125 13.4087 10.1682 13.4087Z" fill="#F5A200"/>
<path d="M3.71875 8.37262H8.49997H3.71875Z" fill="black"/>
<path d="M3.71875 8.37262H8.49997" stroke="#F5A200" stroke-linecap="round" stroke-linejoin="round"/>
<path d="M3.71875 10.9121H8.49997H3.71875Z" fill="black"/>
<path d="M3.71875 10.9121H8.49997" stroke="#F5A200" stroke-linecap="round" stroke-linejoin="round"/>
</svg>
