<svg width="70" height="70" viewBox="0 0 70 70" fill="none" xmlns="http://www.w3.org/2000/svg">
<path d="M15.0295 15.8594C15.3318 15.3371 16.0014 15.1565 16.5238 15.4588L19.3661 17.0994C19.8894 17.4017 20.0689 18.0704 19.7667 18.5938C19.5638 18.9442 19.1963 19.1406 18.8181 19.1406C18.6323 19.1406 18.4443 19.0936 18.2723 18.9943L15.4301 17.3537C14.9066 17.0514 14.7272 16.3827 15.0295 15.8594ZM35.8694 19.1406C36.0552 19.1406 36.2432 19.0936 36.4152 18.9943L39.2574 17.3537C39.7808 17.0514 39.9603 16.3827 39.658 15.8594C39.3546 15.3371 38.685 15.1565 38.1637 15.4588L35.3214 17.0994C34.7981 17.4017 34.6186 18.0704 34.9208 18.5938C35.1239 18.9442 35.4914 19.1406 35.8694 19.1406ZM21.4744 14.9909C21.6773 15.3413 22.0448 15.5378 22.423 15.5378C22.6088 15.5378 22.7968 15.4908 22.9688 15.3915C23.4921 15.0892 23.6716 14.4205 23.3693 13.8972L22.8225 12.9497C22.5191 12.4275 21.8483 12.2479 21.3281 12.5491C20.8048 12.8514 20.6253 13.5201 20.9275 14.0435L21.4744 14.9909ZM16.4062 21.875C15.8017 21.875 15.3125 22.3642 15.3125 22.9688C15.3125 23.5733 15.8017 24.0625 16.4062 24.0625H17.5C18.1046 24.0625 18.5938 23.5733 18.5938 22.9688C18.5938 22.3642 18.1046 21.875 17.5 21.875H16.4062ZM31.7188 15.3915C31.8907 15.4909 32.0787 15.5378 32.2645 15.5378C32.6427 15.5378 33.0101 15.3412 33.2131 14.9909L33.76 14.0435C34.0622 13.5201 33.8827 12.8514 33.3594 12.5491C32.836 12.2479 32.1673 12.4273 31.865 12.9497L31.3182 13.8972C31.0159 14.4207 31.1954 15.0892 31.7188 15.3915ZM38.2812 21.875H37.1875C36.5829 21.875 36.0938 22.3642 36.0938 22.9688C36.0938 23.5733 36.5829 24.0625 37.1875 24.0625H38.2812C38.8858 24.0625 39.375 23.5733 39.375 22.9688C39.375 22.3642 38.8858 21.875 38.2812 21.875ZM55.7812 9.84375H49.2188C48.0107 9.84375 47.0312 10.8231 47.0312 12.0312V47.0312H55.7812C58.1975 47.0312 60.1562 45.0725 60.1562 42.6562V14.2188C60.1562 11.8025 58.1975 9.84375 55.7812 9.84375ZM27.3438 14.2188C27.9483 14.2188 28.4375 13.7296 28.4375 13.125V9.84375C28.4375 9.23918 27.9483 8.75 27.3438 8.75C26.7392 8.75 26.25 9.23918 26.25 9.84375V13.125C26.25 13.7296 26.7392 14.2188 27.3438 14.2188ZM23.8328 22.6496L26.5606 25.4469C26.9899 25.8871 27.6974 25.8871 28.1267 25.4469L30.8546 22.6496C31.8139 21.6658 32.0012 20.0863 31.1422 19.0138C30.1654 17.7939 28.405 17.7283 27.3436 18.8166C26.2823 17.7283 24.5217 17.7941 23.545 19.0138C22.6862 20.0863 22.8735 21.6658 23.8328 22.6496ZM9.84375 49.2188V50.3125C9.84375 50.9165 10.3335 51.4062 10.9375 51.4062H45.9375C46.5415 51.4062 47.0312 50.9165 47.0312 50.3125V47.0312H12.0312C10.8232 47.0312 9.84375 48.0106 9.84375 49.2188ZM45.9375 53.5938H10.9375C10.3335 53.5938 9.84375 54.0835 9.84375 54.6875V56.875C9.84375 59.2912 11.8025 61.25 14.2188 61.25H42.6562C45.0725 61.25 47.0312 59.2912 47.0312 56.875V54.6875C47.0312 54.0835 46.5415 53.5938 45.9375 53.5938ZM14.375 43.75V41.5625C14.375 39.1463 16.3338 37.1875 18.75 37.1875H20.4313C19.95 36.1922 19.6875 35.0766 19.6875 33.9062C19.6875 29.6844 23.1219 26.25 27.3438 26.25C31.5656 26.25 35 29.6844 35 33.9062C35 35.0766 34.7375 36.1922 34.2563 37.1875H36.0938C38.51 37.1875 40.4688 39.1463 40.4688 41.5625V43.75C40.4688 44.354 39.979 44.8438 39.375 44.8438H15.4688C14.8647 44.8438 14.375 44.354 14.375 43.75ZM27.3438 37.1875C29.1594 37.1875 30.625 35.7219 30.625 33.9062C30.625 32.0906 29.1594 30.625 27.3438 30.625C25.5281 30.625 24.0625 32.0906 24.0625 33.9062C24.0625 35.7219 25.5281 37.1875 27.3438 37.1875Z" fill="white"/>
</svg>
