<svg width="20" height="20" viewBox="0 0 20 20" fill="none" xmlns="http://www.w3.org/2000/svg">
<g clip-path="url(#clip0_54_327)">
<path d="M2.32166 15.5834L9.41166 19.54C9.65666 19.6775 9.90082 19.7459 10.145 19.7459C10.3967 19.7459 10.6467 19.6775 10.8975 19.54L17.9783 15.5834C18.4083 15.3392 18.7308 15.0617 18.945 14.7509C19.16 14.4342 19.2675 13.9634 19.2675 13.3367V6.09502C19.2675 5.61752 19.1758 5.22002 18.99 4.90336C18.805 4.58752 18.5125 4.31586 18.1125 4.08919L11.82 0.562524C11.27 0.245858 10.7158 0.0875244 10.155 0.0875244C9.59332 0.0875244 9.03582 0.245858 8.47999 0.562524L2.18833 4.08919C1.78833 4.31586 1.49666 4.58752 1.31083 4.90419C1.12499 5.22086 1.03333 5.61669 1.03333 6.09419V13.3359C1.03333 13.9634 1.14166 14.435 1.35583 14.7509C1.57666 15.0617 1.89916 15.3392 2.32249 15.5842L2.32166 15.5834ZM3.28833 14.205C3.04416 14.0617 2.87083 13.9125 2.76916 13.7575C2.67416 13.6025 2.62583 13.4075 2.62583 13.175V6.65002L9.32249 10.4275V17.6067L3.28833 14.205ZM17.0117 14.205L10.9783 17.6067V10.4275L17.6742 6.64919V13.175C17.6742 13.4084 17.6242 13.6025 17.5217 13.7575C17.4267 13.9125 17.2567 14.0617 17.0117 14.205ZM10.1542 8.95919L3.53916 5.25336L6.02749 3.83836L12.6525 7.55336L10.1542 8.95919ZM14.3533 6.61419L7.71083 2.89919L9.18749 2.06586C9.83832 1.70252 10.4792 1.70252 11.1125 2.06586L16.77 5.25336L14.3533 6.61419Z" fill="#FAA700"/>
</g>
<defs>
<clipPath id="clip0_54_327">
<rect width="20" height="20" fill="white"/>
</clipPath>
</defs>
</svg>
