<svg width="60" height="60" viewBox="0 0 60 60" fill="none" xmlns="http://www.w3.org/2000/svg">
<rect width="60" height="60" rx="30" fill="white"/>
<path d="M23.3782 42.9995C26.1785 42.9995 28.4485 40.7294 28.4485 37.9293C28.4485 35.129 26.1785 32.859 23.3782 32.859C20.5781 32.859 18.308 35.129 18.308 37.9293C18.308 40.7294 20.5781 42.9995 23.3782 42.9995Z" fill="#201D1D"/>
<path d="M36.6274 42.9995C39.4276 42.9995 41.6977 40.7294 41.6977 37.9293C41.6977 35.129 39.4276 32.859 36.6274 32.859C33.8271 32.859 31.5571 35.129 31.5571 37.9293C31.5571 40.7294 33.8271 42.9995 36.6274 42.9995Z" fill="#201D1D"/>
<path d="M29.9999 17.0005C16.2331 17.0005 5.07159 28.3747 5.0752 42.4011H11.4427C11.4427 31.8894 19.6853 23.3669 29.9999 23.3669C40.3147 23.3669 48.5573 31.8894 48.5573 42.4011H54.9249C54.9273 28.3747 43.7657 17.0005 29.9999 17.0005Z" fill="#201D1D"/>
</svg>
