<svg width="16" height="16" viewBox="0 0 16 16" fill="none" xmlns="http://www.w3.org/2000/svg">
<path fill-rule="evenodd" clip-rule="evenodd" d="M2.25644 1.38466C2.00708 1.28078 1.71967 1.33764 1.52866 1.52866C1.33764 1.71967 1.28078 2.00708 1.38466 2.25644L6.098 13.5698C6.20465 13.8258 6.45866 13.989 6.73583 13.9797C7.01301 13.9703 7.25545 13.7904 7.34464 13.5278L8.67326 9.61606L12.1953 13.1381C12.4557 13.3985 12.8778 13.3985 13.1381 13.1381C13.3985 12.8778 13.3985 12.4557 13.1381 12.1953L9.61606 8.67326L13.5278 7.34464C13.7904 7.25545 13.9703 7.01301 13.9797 6.73583C13.989 6.45866 13.8258 6.20465 13.5698 6.098L2.25644 1.38466ZM6.64988 11.4274L3.23803 3.23803L11.4274 6.64988L8.17232 7.75548C7.97615 7.82211 7.82211 7.97615 7.75548 8.17232L6.64988 11.4274Z" fill="#F38406"/>
</svg>
