<svg width="221" viewBox="0 0 221 0" fill="none" xmlns="http://www.w3.org/2000/svg">
<path d="M-5.33333 0C-5.33333 2.94552 -2.94552 5.33333 0 5.33333C2.94552 5.33333 5.33333 2.94552 5.33333 0C5.33333 -2.94552 2.94552 -5.33333 0 -5.33333C-2.94552 -5.33333 -5.33333 -2.94552 -5.33333 0ZM215.667 0C215.667 2.94552 218.054 5.33333 221 5.33333C223.946 5.33333 226.333 2.94552 226.333 0C226.333 -2.94552 223.946 -5.33333 221 -5.33333C218.054 -5.33333 215.667 -2.94552 215.667 0ZM0 0V1H221V0V-1H0V0Z" fill="#F38406"/>
</svg>
