<svg width="35" height="31" viewBox="0 0 35 31" fill="none" xmlns="http://www.w3.org/2000/svg">
<path d="M0 30.7241L0.841924 24.4833C2.68614 24.6433 4.14948 24.3433 5.23196 23.5832C6.31443 22.783 7.03608 21.6829 7.39691 20.2827C7.79782 18.8425 7.89805 17.2223 7.69759 15.4221H0V0H14.8539V16.0221C14.8539 21.2628 13.6111 25.2234 11.1254 27.9037C8.63975 30.5841 4.93127 31.5242 0 30.7241ZM20.146 30.7241L20.988 24.4833C22.8322 24.6433 24.2955 24.3433 25.378 23.5832C26.4605 22.783 27.1821 21.6829 27.543 20.2827C27.9439 18.8425 28.0441 17.2223 27.8436 15.4221H20.146V0H35V16.0221C35 21.2628 33.7572 25.2234 31.2715 27.9037C28.7858 30.5841 25.0773 31.5242 20.146 30.7241Z" fill="#DDE3E1"/>
</svg>
