<svg width="44" height="44" viewBox="0 0 44 44" fill="none" xmlns="http://www.w3.org/2000/svg">
<rect width="44" height="44" rx="20" fill="#8586FC"/>
<mask id="mask0_56_495" style="mask-type:alpha" maskUnits="userSpaceOnUse" x="10" y="10" width="24" height="24">
<rect x="10" y="10" width="24" height="24" fill="#D9D9D9"/>
</mask>
<g mask="url(#mask0_56_495)">
<path d="M19.675 23.7L20.55 20.85L18.25 19H21.1L22 16.2L22.9 19H25.75L23.425 20.85L24.3 23.7L22 21.925L19.675 23.7ZM16 33V25.275C15.3667 24.575 14.875 23.775 14.525 22.875C14.175 21.975 14 21.0167 14 20C14 17.7667 14.775 15.875 16.325 14.325C17.875 12.775 19.7667 12 22 12C24.2333 12 26.125 12.775 27.675 14.325C29.225 15.875 30 17.7667 30 20C30 21.0167 29.825 21.975 29.475 22.875C29.125 23.775 28.6333 24.575 28 25.275V33L22 31L16 33ZM22 26C23.6667 26 25.0833 25.4167 26.25 24.25C27.4167 23.0833 28 21.6667 28 20C28 18.3333 27.4167 16.9167 26.25 15.75C25.0833 14.5833 23.6667 14 22 14C20.3333 14 18.9167 14.5833 17.75 15.75C16.5833 16.9167 16 18.3333 16 20C16 21.6667 16.5833 23.0833 17.75 24.25C18.9167 25.4167 20.3333 26 22 26ZM18 30.025L22 29L26 30.025V26.925C25.4167 27.2583 24.7875 27.5208 24.1125 27.7125C23.4375 27.9042 22.7333 28 22 28C21.2667 28 20.5625 27.9042 19.8875 27.7125C19.2125 27.5208 18.5833 27.2583 18 26.925V30.025Z" fill="white"/>
</g>
</svg>
