<svg width="40" height="40" viewBox="0 0 40 40" fill="none" xmlns="http://www.w3.org/2000/svg">
<g clip-path="url(#clip0_840_1923)">
<path d="M12.2358 16.8075L20.0046 9.04194L27.7764 16.8138L32.2943 12.2929L20.0046 0L7.71484 12.2897L12.2358 16.8075Z" fill="#573F19"/>
<path d="M0 20.0016L4.51781 15.4806L9.03878 20.0016L4.51781 24.5194L0 20.0016Z" fill="#573F19"/>
<path d="M12.2358 23.1925L20.0046 30.9612L27.7765 23.1893L32.2974 27.704L20.0077 39.9968L7.71484 27.7135L12.2358 23.1925Z" fill="#573F19"/>
<path d="M30.9609 20.0016L35.4787 15.4806L39.9997 19.9984L35.4787 24.5225L30.9609 20.0016Z" fill="#573F19"/>
<path d="M24.5892 19.9984L20.0051 15.4111L16.6151 18.8011L16.2234 19.1897L15.4209 19.9921L20.0051 24.5731L24.5892 20.0016V19.9984Z" fill="#573F19"/>
</g>
<defs>
<clipPath id="clip0_840_1923">
<rect width="40" height="40" fill="white"/>
</clipPath>
</defs>
</svg>
