<svg width="36" height="36" viewBox="0 0 36 36" fill="none" xmlns="http://www.w3.org/2000/svg">
<path d="M18.0174 3.375C19.4674 3.375 20.643 4.55017 20.643 6.00001C20.643 7.04732 20.0296 7.95125 19.1425 8.3725L19.1424 12.375H27.7717C29.207 12.375 30.3732 13.5269 30.3964 14.9566L30.3967 15V30C30.3967 31.4352 29.2449 32.6015 27.8151 32.6246L27.7717 32.625H8.26315C6.82789 32.625 5.66166 31.4731 5.63849 30.0434L5.63814 30V15C5.63814 13.5648 6.79 12.3985 8.21973 12.3754L8.26315 12.375H16.8924V8.3725C16.0176 7.95709 15.4089 7.07224 15.3922 6.04339L15.3919 6.00001C15.3919 4.55017 16.5675 3.375 18.0174 3.375ZM21.0186 24H15.0163C14.1875 24 13.5157 24.6716 13.5157 25.5C13.5157 26.3202 14.1742 26.9866 14.9915 26.9998L15.0163 27H21.0186C21.8473 27 22.5191 26.3284 22.5191 25.5C22.5191 24.6798 21.8607 24.0134 21.0434 24.0002L21.0186 24ZM3.01172 18.375C3.62681 18.375 4.12663 18.8686 4.13654 19.4814L4.13672 19.5V25.5C4.13672 26.1213 3.63304 26.625 3.01172 26.625C2.39659 26.625 1.89681 26.1314 1.88686 25.5186L1.88672 25.5V19.5C1.88672 18.8787 2.3904 18.375 3.01172 18.375ZM33.0231 18.375C33.6383 18.375 34.138 18.8686 34.148 19.4814L34.1481 19.5V25.5C34.1481 26.1213 33.6444 26.625 33.0231 26.625C32.408 26.625 31.9082 26.1314 31.8983 25.5186L31.8981 25.5V19.5C31.8981 18.8787 32.4018 18.375 33.0231 18.375ZM12.7654 18C11.9367 18 11.2649 18.6716 11.2649 19.5C11.2649 20.3284 11.9367 21 12.7655 21C13.5942 21 14.266 20.3284 14.266 19.5C14.266 18.6716 13.5942 18 12.7655 18H12.7654ZM23.2695 18C22.4407 18 21.7689 18.6716 21.7689 19.5C21.7689 20.3284 22.4407 21 23.2695 21C24.0982 21 24.77 20.3284 24.77 19.5C24.77 18.6716 24.0982 18 23.2695 18ZM18.0174 5.625C17.8099 5.625 17.6419 5.79298 17.6419 6.00001C17.6419 6.20701 17.8099 6.37499 18.0174 6.37499C18.225 6.37499 18.393 6.20701 18.393 6.00001C18.393 5.79298 18.225 5.625 18.0174 5.625Z" fill="white"/>
</svg>
