<svg width="32" height="32" viewBox="0 0 32 32" fill="none" xmlns="http://www.w3.org/2000/svg">
<path d="M27.1392 9.94154C27.1392 9.66103 27.1346 9.38237 27.1228 9.10722C28.2445 8.21222 29.2174 7.09301 29.9872 5.81173C28.9576 6.30669 27.8523 6.63821 26.6904 6.776C27.8763 5.99596 28.7856 4.74708 29.215 3.2486C28.1051 3.96882 26.8774 4.48527 25.5712 4.75213C24.525 3.47783 23.0323 2.66705 21.3819 2.6368C18.2125 2.58071 15.6433 5.44702 15.6433 9.03911C15.6433 9.54856 15.693 10.0449 15.7922 10.5223C11.0193 10.1934 6.78985 7.53507 3.96099 3.5263C3.46743 4.48687 3.18394 5.60905 3.18394 6.8123C3.18394 9.08663 4.19692 11.1085 5.73693 12.3013C4.79463 12.256 3.91136 11.9508 3.13684 11.4501C3.13684 11.4776 3.13684 11.5053 3.13684 11.533C3.13684 14.7121 5.11595 17.3759 7.74146 17.9983C7.25993 18.1449 6.75205 18.2213 6.2301 18.2184C5.85931 18.2156 5.50058 18.1733 5.15106 18.092C5.88077 20.6977 8.00116 22.6011 10.5115 22.6639C8.5469 24.4085 6.07194 25.4494 3.38477 25.4425C2.92172 25.4425 2.46344 25.4087 2.01514 25.3483C4.5561 27.2138 7.57182 28.2999 10.8141 28.2999C21.3676 28.3037 27.1392 18.4718 27.1392 9.94154Z" fill="white"/>
</svg>
