<svg width="40" height="40" viewBox="0 0 40 40" fill="none" xmlns="http://www.w3.org/2000/svg">
<g clip-path="url(#clip0_822_1818)">
<path d="M12.2361 16.8075L20.0048 9.04194L27.7767 16.8138L32.2945 12.2929L20.0048 0L7.71509 12.2897L12.2361 16.8075Z" fill="#F3BA2F"/>
<path d="M0 20.0017L4.51781 15.4807L9.03878 20.0017L4.51781 24.5195L0 20.0017Z" fill="#F3BA2F"/>
<path d="M12.2361 23.1924L20.0048 30.9611L27.7767 23.1892L32.2977 27.7039L20.008 39.9967L7.71509 27.7133L12.2361 23.1924Z" fill="#F3BA2F"/>
<path d="M30.9612 20.0017L35.479 15.4807L40 19.9985L35.479 24.5227L30.9612 20.0017Z" fill="#F3BA2F"/>
<path d="M24.5888 19.9984L20.0047 15.4111L16.6148 18.8011L16.223 19.1897L15.4205 19.9921L20.0047 24.5731L24.5888 20.0016V19.9984Z" fill="#F3BA2F"/>
</g>
<defs>
<clipPath id="clip0_822_1818">
<rect width="40" height="40" fill="white"/>
</clipPath>
</defs>
</svg>
