<svg width="32" height="32" viewBox="0 0 32 32" fill="none" xmlns="http://www.w3.org/2000/svg">
<path d="M27.1397 9.94154C27.1397 9.66103 27.1351 9.38237 27.1233 9.10722C28.245 8.21222 29.2179 7.09301 29.9877 5.81173C28.9581 6.30669 27.8528 6.63821 26.6909 6.776C27.8768 5.99596 28.7861 4.74708 29.2155 3.2486C28.1056 3.96882 26.8779 4.48527 25.5717 4.75213C24.5255 3.47783 23.0328 2.66705 21.3824 2.6368C18.213 2.58071 15.6438 5.44702 15.6438 9.03911C15.6438 9.54856 15.6935 10.0449 15.7927 10.5223C11.0198 10.1934 6.79034 7.53507 3.96147 3.5263C3.46792 4.48687 3.18443 5.60905 3.18443 6.8123C3.18443 9.08663 4.19741 11.1085 5.73742 12.3013C4.79512 12.256 3.91184 11.9508 3.13733 11.4501C3.13733 11.4776 3.13733 11.5053 3.13733 11.533C3.13733 14.7121 5.11643 17.3759 7.74195 17.9983C7.26042 18.1449 6.75254 18.2213 6.23059 18.2184C5.8598 18.2156 5.50107 18.1733 5.15155 18.092C5.88126 20.6977 8.00165 22.6011 10.512 22.6639C8.54739 24.4085 6.07243 25.4494 3.38526 25.4425C2.92221 25.4425 2.46393 25.4087 2.01562 25.3483C4.55659 27.2138 7.57231 28.2999 10.8146 28.2999C21.3681 28.3037 27.1397 18.4718 27.1397 9.94154Z" fill="white"/>
</svg>
