<svg width="12" height="12" viewBox="0 0 12 12" fill="none" xmlns="http://www.w3.org/2000/svg">
<path d="M5.23 9.0001C5.07298 8.99917 4.91793 8.9651 4.775 8.9001C4.62041 8.83196 4.48871 8.72076 4.39561 8.57979C4.30252 8.43881 4.25197 8.27402 4.25 8.1051V3.8951C4.25197 3.72617 4.30252 3.56138 4.39561 3.42041C4.48871 3.27943 4.62041 3.16824 4.775 3.1001C4.95287 3.01608 5.15077 2.98372 5.34613 3.0067C5.5415 3.02969 5.72648 3.10709 5.88 3.2301L8.43 5.3351C8.53 5.4147 8.61075 5.51584 8.66626 5.63097C8.72176 5.74611 8.75059 5.87228 8.75059 6.0001C8.75059 6.12791 8.72176 6.25408 8.66626 6.36922C8.61075 6.48435 8.53 6.58549 8.43 6.6651L5.88 8.7701C5.69619 8.91916 5.46666 9.00038 5.23 9.0001Z" fill="white"/>
</svg>
