<svg width="32" height="32" viewBox="0 0 32 32" fill="none" xmlns="http://www.w3.org/2000/svg">
<path d="M25.7374 7.11592C23.8951 6.2703 21.9495 5.67093 19.9507 5.33325C19.6961 5.77192 19.4134 6.36659 19.2147 6.83325C17.0892 6.522 14.9296 6.522 12.8041 6.83325C12.6054 6.36659 12.3067 5.77192 12.0667 5.33325C10.0662 5.66695 8.11916 6.26647 6.2774 7.11592C2.61474 12.5213 1.62407 17.7999 2.12007 23.0066C4.26621 24.5823 6.66365 25.7833 9.21074 26.5586C9.78294 25.7862 10.2896 24.9674 10.7254 24.1106C9.8894 23.7986 9.09874 23.4173 8.3334 22.9639C8.53207 22.8226 8.7294 22.6666 8.9134 22.5106C13.5267 24.6199 18.5227 24.6199 23.0787 22.5106C23.2774 22.6666 23.4614 22.8226 23.6587 22.9639C22.8947 23.4173 22.1027 23.7986 21.2681 24.1106C21.7035 24.9673 22.2097 25.7862 22.7814 26.5586C25.3294 25.7856 27.7272 24.5844 29.8721 23.0066C30.4814 16.9799 28.9094 11.7426 25.7387 7.11592H25.7374ZM11.3601 19.7946C9.9734 19.7946 8.8414 18.5346 8.8414 16.9933C8.8414 15.4506 9.9454 14.1906 11.3614 14.1906C12.7614 14.1906 13.9081 15.4506 13.8787 16.9933C13.8787 18.5346 12.7614 19.7933 11.3601 19.7933V19.7946ZM20.6587 19.7946C19.2721 19.7946 18.1387 18.5346 18.1387 16.9933C18.1387 15.4506 19.2427 14.1906 20.6587 14.1906C22.0587 14.1906 23.2054 15.4506 23.1774 16.9933C23.1774 18.5346 22.0734 19.7933 20.6574 19.7933L20.6587 19.7946Z" fill="white"/>
</svg>
