<svg width="40" height="40" viewBox="0 0 40 40" fill="none" xmlns="http://www.w3.org/2000/svg">
<g clip-path="url(#clip0_674_1982)">
<path d="M12.2361 16.8075L20.0048 9.04194L27.7767 16.8138L32.2945 12.2929L20.0048 0L7.71509 12.2897L12.2361 16.8075Z" fill="#F3BA2F"/>
<path d="M0 20.0016L4.51781 15.4806L9.03878 20.0016L4.51781 24.5194L0 20.0016Z" fill="#F3BA2F"/>
<path d="M12.2361 23.1925L20.0048 30.9612L27.7767 23.1893L32.2977 27.704L20.008 39.9968L7.71509 27.7135L12.2361 23.1925Z" fill="#F3BA2F"/>
<path d="M30.9612 20.0016L35.479 15.4806L40 19.9984L35.479 24.5225L30.9612 20.0016Z" fill="#F3BA2F"/>
<path d="M24.589 19.9984L20.0048 15.4111L16.6149 18.8011L16.2231 19.1897L15.4207 19.9921L20.0048 24.5731L24.589 20.0016V19.9984Z" fill="#F3BA2F"/>
</g>
<defs>
<clipPath id="clip0_674_1982">
<rect width="40" height="40" fill="white"/>
</clipPath>
</defs>
</svg>
