<svg width="32" height="32" viewBox="0 0 32 32" fill="none" xmlns="http://www.w3.org/2000/svg">
<path d="M27.1393 9.94154C27.1393 9.66103 27.1347 9.38237 27.1229 9.10722C28.2446 8.21222 29.2175 7.09301 29.9874 5.81173C28.9578 6.30669 27.8524 6.63821 26.6905 6.776C27.8764 5.99596 28.7857 4.74708 29.2152 3.2486C28.1052 3.96882 26.8775 4.48527 25.5714 4.75213C24.5251 3.47783 23.0324 2.66705 21.382 2.6368C18.2126 2.58071 15.6435 5.44702 15.6435 9.03911C15.6435 9.54856 15.6931 10.0449 15.7924 10.5223C11.0195 10.1934 6.78997 7.53507 3.96111 3.5263C3.46755 4.48687 3.18407 5.60905 3.18407 6.8123C3.18407 9.08663 4.19704 11.1085 5.73706 12.3013C4.79475 12.256 3.91148 11.9508 3.13696 11.4501C3.13696 11.4776 3.13696 11.5053 3.13696 11.533C3.13696 14.7121 5.11607 17.3759 7.74158 17.9983C7.26005 18.1449 6.75218 18.2213 6.23023 18.2184C5.85944 18.2156 5.5007 18.1733 5.15118 18.092C5.88089 20.6977 8.00128 22.6011 10.5116 22.6639C8.54702 24.4085 6.07206 25.4494 3.38489 25.4425C2.92184 25.4425 2.46356 25.4087 2.01526 25.3483C4.55622 27.2138 7.57194 28.2999 10.8143 28.2999C21.3677 28.3037 27.1393 18.4718 27.1393 9.94154Z" fill="white"/>
</svg>
