<svg width="97" height="16" viewBox="0 0 97 16" fill="none" xmlns="http://www.w3.org/2000/svg">
<g clip-path="url(#clip0_840_1905)">
<path d="M11.2626 15.9989C12.9858 15.9989 14.3827 14.602 14.3827 12.8789C14.3827 11.1557 12.9858 9.75879 11.2626 9.75879C9.53948 9.75879 8.14258 11.1557 8.14258 12.8789C8.14258 14.602 9.53948 15.9989 11.2626 15.9989Z" fill="#573F19"/>
<path d="M19.416 15.9989C21.1392 15.9989 22.5361 14.602 22.5361 12.8789C22.5361 11.1557 21.1392 9.75879 19.416 9.75879C17.6928 9.75879 16.2959 11.1557 16.2959 12.8789C16.2959 14.602 17.6928 15.9989 19.416 15.9989Z" fill="#573F19"/>
<path d="M15.3379 0C6.86622 0 -0.002217 6.99928 5.36813e-07 15.6307H3.91838C3.91838 9.16211 8.99062 3.91764 15.3379 3.91764C21.6853 3.91764 26.7575 9.16211 26.7575 15.6307H30.6759C30.6774 6.99928 23.8089 0 15.3379 0Z" fill="#573F19"/>
<path d="M88.2709 12.7077C86.2071 12.7077 84.3732 11.2123 83.9009 9.14782H96.1542C96.1542 9.14782 96.22 8.39977 96.22 8.13514C96.22 3.75329 92.655 0.1875 88.2731 0.1875C83.8913 0.1875 80.3262 3.75256 80.3262 8.13514C80.3262 12.5177 83.8713 16 88.2731 16C92.6749 16 95.245 12.7572 95.8867 10.4096H92.1516C92.1516 10.4096 90.9637 12.7077 88.2709 12.7077ZM88.2731 3.47832C90.2519 3.47832 91.9697 4.78519 92.5581 6.73292H83.9881C84.5743 4.78519 86.2929 3.47832 88.2731 3.47832Z" fill="#573F19"/>
<path d="M41.5115 16C37.1296 16 33.6924 12.4719 33.6924 8.13514C33.6924 3.79838 37.2575 0.1875 41.6393 0.1875C46.0212 0.1875 49.5862 3.893 49.5862 8.09301C49.5862 9.88256 49.5862 15.606 49.5862 15.606H46.5009V13.0987L46.2762 13.0396C45.7329 14.3716 43.7653 16 41.5115 16ZM41.6393 3.47832C39.1646 3.47832 37.1503 5.55615 37.1503 8.11075C37.1503 10.6653 39.1638 12.7084 41.6393 12.7084C44.1148 12.7084 46.1284 10.6461 46.1284 8.11075C46.1284 5.57537 44.1148 3.47832 41.6393 3.47832Z" fill="#573F19"/>
<path d="M58.3893 16C54.0075 16 50.5703 12.4719 50.5703 8.13514C50.5703 3.79838 54.1354 0.1875 58.5172 0.1875C62.8991 0.1875 66.4641 3.893 66.4641 8.09301C66.4641 9.88256 66.4641 15.606 66.4641 15.606H63.3788V13.0987L63.1541 13.0396C62.6108 14.3716 60.643 16 58.3893 16ZM58.5172 3.47832C56.0424 3.47832 54.0282 5.55615 54.0282 8.11075C54.0282 10.6653 56.0417 12.7084 58.5172 12.7084C60.9927 12.7084 63.0062 10.6461 63.0062 8.11075C63.0062 5.57537 60.9927 3.47832 58.5172 3.47832Z" fill="#573F19"/>
<path d="M71.6431 15.6046L65.3105 0.583008H68.775L73.4164 11.6485L78.0584 0.583008H81.5221L75.1903 15.6046H71.6431Z" fill="#573F19"/>
</g>
<defs>
<clipPath id="clip0_840_1905">
<rect width="97" height="16" fill="white"/>
</clipPath>
</defs>
</svg>
