<svg width="40" height="40" viewBox="0 0 40 40" fill="none" xmlns="http://www.w3.org/2000/svg">
<path d="M35.1016 21.8164C35.1016 30.5195 28.1055 37.5781 19.4766 37.5781C10.8477 37.5781 3.85156 30.5234 3.85156 21.8164C3.85156 17.7812 4.83984 15.0234 6.27734 12.4883C7.5 10.3281 9.24219 8.50389 10.8555 7.68748C12.9453 6.63279 12.793 11.707 14.8047 10.2226C18.1289 7.77733 14.375 0.945294 17.3203 1.61717C22.0781 2.70311 23.625 7.68358 24.7734 8.23045C27.1992 9.38279 26.6953 3.47264 30.6992 8.50389C35.1016 14.0273 35.1016 18.3984 35.1016 21.8164Z" fill="#FF556E"/>
<path d="M19.6953 2.59768C19.0078 2.1719 18.2227 1.82424 17.3203 1.62112C16.4414 1.4219 16.1602 1.88674 16.1094 2.70706C16.8555 2.60159 17.6172 2.55081 18.3945 2.55081C18.832 2.5469 19.2656 2.56253 19.6953 2.59768ZM34.5781 16.0547C34.75 17.0078 34.8398 17.9883 34.8398 18.9922C34.8398 28.0742 27.4766 35.4375 18.3945 35.4375C13.457 35.4375 9.02734 33.2617 6.01562 29.8164C8.73047 34.4649 13.7422 37.5781 19.4766 37.5781C28.1055 37.5781 35.1016 30.5235 35.1016 21.8164C35.1016 20.1367 35.1016 18.2227 34.5781 16.0547Z" fill="#FF556E"/>
<path d="M22.0703 4.71484C21.4297 3.94922 20.6562 3.19141 19.6953 2.59766C19.2656 2.5625 18.832 2.54688 18.3945 2.54688C17.6211 2.54688 16.8594 2.60156 16.1094 2.70312C16.082 3.10156 16.1133 3.58203 16.1523 4.10938C16.6562 4.05469 17.1719 4.02734 17.6914 4.02734C19.2187 4.02734 20.6914 4.26953 22.0703 4.71484ZM18.3906 35.4375C27.4727 35.4375 34.8359 28.0742 34.8359 18.9922C34.8359 17.9883 34.7461 17.0078 34.5742 16.0547C34.0312 13.8164 32.9336 11.3086 30.6992 8.50391C28.3359 5.53516 27.543 6.37891 26.793 7.32813C29.9063 9.92969 31.8828 13.8438 31.8828 18.2188C31.8828 26.0586 25.5273 32.4102 17.6914 32.4102C10.9453 32.4102 5.29688 27.7031 3.85547 21.3906C3.85156 21.5312 3.85156 21.6719 3.85156 21.8164C3.85156 24.7383 4.64062 27.4727 6.01172 29.8164C9.02734 33.2617 13.457 35.4375 18.3906 35.4375Z" fill="#FF5F71"/>
<path d="M17.6914 32.4141C25.5312 32.4141 31.8828 26.0586 31.8828 18.2227C31.8828 13.8477 29.9023 9.9375 26.793 7.33203C26.2695 7.99219 25.7695 8.70703 24.7734 8.23438C24.1445 7.9375 23.3984 6.30859 22.0664 4.71875C20.6875 4.27344 19.2188 4.03125 17.6914 4.03125C17.1719 4.03125 16.6602 4.05859 16.1523 4.11328C16.1875 4.55859 16.2305 5.04297 16.2578 5.53516C16.5 5.51953 16.7422 5.51172 16.9883 5.51172C23.582 5.51172 28.9258 10.8555 28.9258 17.4492C28.9258 24.043 23.5859 29.3867 16.9922 29.3867C10.3984 29.3867 5.05078 24.0391 5.05078 17.4453C5.05078 16.1016 5.27344 14.8086 5.68359 13.6016C4.62109 15.7539 3.91016 18.1562 3.85547 21.3945C5.29688 27.7031 10.9453 32.4141 17.6914 32.4141Z" fill="#FF6974"/>
<path d="M16.9922 29.3867C23.5859 29.3867 28.9297 24.043 28.9297 17.4492C28.9297 10.8555 23.5859 5.50781 16.9922 5.50781C16.7461 5.50781 16.5039 5.51563 16.2617 5.53125C16.2891 6.01172 16.3008 6.50391 16.2734 6.98828H16.293C21.6406 6.98828 25.9805 11.3242 25.9805 16.6758C25.9805 22.0273 21.6445 26.3633 16.293 26.3633C10.9414 26.3633 6.60547 22.0273 6.60547 16.6758C6.60547 12.8125 8.86719 9.47656 12.1406 7.92188C11.8164 7.56641 11.418 7.40625 10.8555 7.69141C9.23828 8.50781 7.5 10.332 6.27735 12.4922C6.07031 12.8594 5.8711 13.2266 5.6875 13.6055C5.27735 14.8125 5.05469 16.1055 5.05469 17.4492C5.05078 24.0391 10.3984 29.3867 16.9922 29.3867Z" fill="#FF7377"/>
<path d="M6.60547 16.6719C6.60547 22.0195 10.9414 26.3594 16.293 26.3594C21.6445 26.3594 25.9805 22.0234 25.9805 16.6719C25.9805 11.3203 21.6445 6.98438 16.293 6.98438H16.2734C16.2422 7.5 16.168 8.00781 16.0195 8.47656C19.9258 8.69531 23.0273 11.9336 23.0273 15.8945C23.0273 20 19.6992 23.3281 15.5938 23.3281C11.4883 23.3281 8.16016 20.0039 8.16016 15.8984C8.16016 12.7773 10.082 10.1094 12.8047 9.00781C12.6016 8.60156 12.3945 8.19922 12.1406 7.91797C8.86719 9.47656 6.60547 12.8086 6.60547 16.6719Z" fill="#FF7E7A"/>
<path d="M8.16016 15.8984C8.16016 20.0039 11.4883 23.332 15.5938 23.332C19.6992 23.332 23.0234 20.0039 23.0234 15.8984C23.0234 11.9375 19.9219 8.69922 16.0156 8.48047C15.8398 9.03516 15.5586 9.53906 15.1289 9.95312C17.8789 10.0781 20.0703 12.3438 20.0703 15.125C20.0703 17.9844 17.75 20.3047 14.8906 20.3047C12.0313 20.3047 9.71094 17.9844 9.71094 15.125C9.71094 12.7578 11.3008 10.7617 13.4727 10.1445C13.2227 9.85938 13.0195 9.43359 12.8047 9.00781C10.082 10.1094 8.16016 12.7812 8.16016 15.8984Z" fill="#FF887D"/>
<path d="M9.71094 15.1289C9.71094 17.9883 12.0313 20.3086 14.8906 20.3086C17.75 20.3086 20.0703 17.9883 20.0703 15.1289C20.0703 12.3477 17.8789 10.0781 15.1289 9.95703C15.0312 10.0508 14.9219 10.1406 14.8086 10.2266C14.2109 10.6641 13.8047 10.5312 13.4727 10.1484C11.3008 10.7617 9.71094 12.7578 9.71094 15.1289Z" fill="#FF9280"/>
<path d="M16.9531 2.27734C17.0117 2.27734 17.082 2.28516 17.1641 2.30469C18.4922 2.60938 19.6641 3.26563 20.7422 4.3125C21.6836 5.22656 22.3828 6.27344 22.9414 7.11328C23.5234 7.98438 23.9453 8.61719 24.4727 8.86719C24.7813 9.01562 25.0859 9.08984 25.3789 9.08984C26.3047 9.08984 26.8477 8.40234 27.2813 7.84766C27.6133 7.42578 27.8477 7.14844 28.0664 7.14844C28.2617 7.14844 28.8594 7.32422 30.1484 8.94141C34.3945 14.2734 34.3945 18.457 34.3945 21.8203C34.3945 23.8555 34 25.8281 33.2227 27.6836C32.4727 29.4766 31.3945 31.0859 30.0234 32.4688C28.6523 33.8516 27.0586 34.9375 25.2813 35.6953C23.4414 36.4805 21.4883 36.8789 19.4766 36.8789C17.4648 36.8789 15.5078 36.4766 13.6719 35.6953C11.8945 34.9375 10.3008 33.8516 8.92969 32.4688C7.55859 31.0859 6.48047 29.4766 5.73047 27.6836C4.95312 25.8281 4.55859 23.8555 4.55859 21.8203C4.55859 19.9727 4.76953 18.3281 5.20703 16.7852C5.57813 15.4648 6.11719 14.2109 6.89453 12.8398C8.04688 10.8047 9.69141 9.07031 11.1797 8.32031C11.3008 8.25781 11.3711 8.25 11.4023 8.25C11.4766 8.25 11.5703 8.32422 11.6836 8.46875C11.8672 8.69922 12.043 9.05469 12.2148 9.39844C12.6172 10.2031 13.1172 11.207 14.1289 11.207C14.4883 11.207 14.8594 11.0703 15.2266 10.7969C17.2852 9.28125 17.0547 6.46875 16.8867 4.41797C16.8398 3.84375 16.7969 3.30469 16.8086 2.88281C16.8203 2.47266 16.8828 2.32422 16.9062 2.28516C16.9141 2.27734 16.9297 2.27734 16.9531 2.27734ZM16.9531 1.57422C14.7109 1.57422 17.9766 7.89453 14.8086 10.2266C14.5469 10.418 14.3242 10.5 14.125 10.5C12.9414 10.5 12.7148 7.54297 11.3945 7.54297C11.2305 7.54297 11.0547 7.58594 10.8555 7.6875C9.23828 8.50391 7.5 10.3281 6.27734 12.4883C4.83984 15.0234 3.85156 17.7812 3.85156 21.8164C3.85156 30.5195 10.8477 37.5781 19.4766 37.5781C28.1055 37.5781 35.1016 30.5234 35.1016 21.8164C35.1016 18.3945 35.1016 14.0273 30.7031 8.5C29.4688 6.95312 28.6641 6.44531 28.0664 6.44531C26.9062 6.44531 26.5469 8.38672 25.3789 8.38672C25.1992 8.38672 25 8.33984 24.7734 8.23438C23.625 7.6875 22.0781 2.71094 17.3203 1.62109C17.1836 1.58984 17.0625 1.57422 16.9531 1.57422Z" fill="#EF4868"/>
<path d="M27.2891 21.9961C27.2891 26.2657 23.793 29.7305 19.4766 29.7305C15.1602 29.7305 11.6641 26.2696 11.6641 21.9961C11.6641 20.0157 12.1562 18.6641 12.875 17.418C13.4883 16.3594 14.3398 15.4297 15.1641 15.0625C15.7109 14.8164 16.1328 17.0352 17.1406 16.3086C18.8008 15.1094 18.5352 11.0899 19.4766 11.4102C20.7188 11.8321 21.5508 15.0625 22.125 15.3321C23.3398 15.8985 23.0859 12.9961 25.0898 15.4649C27.2891 18.1719 27.2891 20.3164 27.2891 21.9961Z" fill="#FFC7C7"/>
<path d="M7.81256 15.5117C7.70709 15.5117 7.59771 15.4882 7.49615 15.4374C7.14849 15.2617 7.01177 14.8398 7.18756 14.4921C8.51177 11.8828 10.1446 10.2656 10.211 10.1992C10.4883 9.92572 10.9336 9.93354 11.2071 10.2109C11.4805 10.4882 11.4727 10.9335 11.1954 11.2031C11.168 11.2304 9.64849 12.7421 8.44146 15.1249C8.31646 15.371 8.07037 15.5117 7.81256 15.5117ZM6.77349 18.0937C6.69927 18.0937 6.62115 18.082 6.54302 18.0546C6.17584 17.9296 5.98052 17.5273 6.10943 17.1601L6.25396 16.746C6.37896 16.3788 6.78131 16.1835 7.14849 16.3124C7.51568 16.4374 7.71099 16.8398 7.58209 17.207L7.43756 17.621C7.33599 17.9101 7.06256 18.0937 6.77349 18.0937Z" fill="white"/>
</svg>
