<svg width="32" height="32" viewBox="0 0 32 32" fill="none" xmlns="http://www.w3.org/2000/svg">
<path d="M26.6669 5.98665L24.7202 5.78665C18.8956 5.18668 13.0248 5.18668 7.2002 5.78665L5.33353 5.98665C4.2212 6.11237 3.19547 6.64756 2.45607 7.48802C1.71666 8.32847 1.31651 9.41403 1.33353 10.5333V21.4667C1.31651 22.5859 1.71666 23.6715 2.45607 24.5119C3.19547 25.3524 4.2212 25.8876 5.33353 26.0133L7.2802 26.2133C13.1048 26.8133 18.9756 26.8133 24.8002 26.2133L26.6669 26.0133C27.7792 25.8876 28.8049 25.3524 29.5443 24.5119C30.2837 23.6715 30.6839 22.5859 30.6669 21.4667V10.5333C30.6839 9.41403 30.2837 8.32847 29.5443 7.48802C28.8049 6.64756 27.7792 6.11237 26.6669 5.98665ZM20.0002 16.8266L14.8135 20.2933C14.665 20.3749 14.4981 20.4173 14.3286 20.4167C14.1591 20.4161 13.9926 20.3724 13.8446 20.2898C13.6967 20.2071 13.5721 20.0882 13.4827 19.9442C13.3933 19.8003 13.342 19.6359 13.3335 19.4666V12.5333C13.3339 12.3519 13.3835 12.174 13.4772 12.0187C13.5709 11.8634 13.705 11.7365 13.8653 11.6515C14.0256 11.5666 14.2059 11.5269 14.387 11.5366C14.5682 11.5463 14.7433 11.6051 14.8935 11.7066L20.0802 15.1733C20.2178 15.2629 20.3308 15.3855 20.409 15.5298C20.4872 15.6742 20.5282 15.8358 20.5282 16C20.5282 16.1642 20.4872 16.3258 20.409 16.4701C20.3308 16.6145 20.2178 16.737 20.0802 16.8266H20.0002Z" fill="white"/>
</svg>
