<svg width="40" height="40" viewBox="0 0 40 40" fill="none" xmlns="http://www.w3.org/2000/svg">
<path d="M32.2461 10.1367C26.4258 4.32034 17.1055 4.14065 11.0742 9.59768C10.7383 9.90237 10.2188 9.88674 9.89455 9.56643L8.82815 8.50002C8.51565 8.19143 8.00784 8.20705 7.71487 8.53127C2.27737 14.5664 2.42971 23.8946 8.2383 29.7031C14.043 35.5078 23.3867 35.6524 29.418 30.211C29.7539 29.9063 30.2696 29.9219 30.5938 30.2422L31.6914 31.3281C32.0039 31.6367 32.5078 31.6172 32.8008 31.293C38.2461 25.2578 38.0586 15.9492 32.2461 10.1367Z" fill="#FF556E"/>
<path d="M8.98044 8.65234L8.8281 8.5C8.5156 8.19141 8.00779 8.20703 7.71482 8.53125C3.81638 12.8594 2.79294 18.8789 4.66794 24.082C4.27341 22.7344 4.06248 21.3086 4.06248 19.832C4.06248 15.4063 5.95701 11.4258 8.98044 8.65234ZM32.8008 31.293C38.2422 25.2578 38.0586 15.9492 32.2461 10.1367C30.5547 8.44531 28.5703 7.23438 26.457 6.49609C31.1875 9.0625 34.3984 14.0742 34.3984 19.832C34.3984 23.7891 32.8828 27.3945 30.3984 30.0977C30.4687 30.1367 30.5351 30.1836 30.5937 30.2422L31.6914 31.3281C32.0039 31.6367 32.5078 31.6172 32.8008 31.293Z" fill="#FF5F71"/>
<path d="M26.457 6.49612C23.6602 5.51956 20.6406 5.37503 17.7773 6.06253C18.0391 6.04691 18.3008 6.03909 18.5664 6.03909C25.793 6.03909 31.6484 11.8946 31.6484 19.1211C31.6484 26.3477 25.7891 32.1992 18.5664 32.1992C11.3438 32.1992 5.48437 26.3399 5.48437 19.1172C5.48437 15.2813 7.13672 11.8282 9.76562 9.43753L8.98047 8.65237C5.95703 11.4258 4.0625 15.4063 4.0625 19.8321C4.0625 21.3086 4.27344 22.7344 4.66797 24.086C5.40625 26.1367 6.59766 28.0586 8.23828 29.7032C14.043 35.5078 23.3867 35.6524 29.418 30.211C29.6914 29.9649 30.0859 29.9258 30.3984 30.0938C32.8828 27.3946 34.3984 23.7891 34.3984 19.8282C34.3984 14.0742 31.1875 9.06253 26.457 6.49612Z" fill="#FF5F71"/>
<path d="M5.48438 19.1172C5.48438 26.3438 11.3398 32.1992 18.5664 32.1992C25.793 32.1992 31.6484 26.3438 31.6484 19.1172C31.6484 11.8906 25.7891 6.03516 18.5664 6.03516C18.3008 6.03516 18.0391 6.04297 17.7773 6.05859C15.3516 6.64063 13.0391 7.82031 11.0742 9.59766C10.7383 9.90234 10.2188 9.88672 9.89453 9.56641L9.76563 9.4375C7.13672 11.8281 5.48438 15.2812 5.48438 19.1172ZM17.9023 7.40625C23.9766 7.40625 28.8984 12.3281 28.8984 18.4023C28.8984 24.4766 23.9766 29.3984 17.9023 29.3984C11.8281 29.3984 6.90625 24.4766 6.90625 18.4023C6.90625 12.3281 11.8281 7.40625 17.9023 7.40625Z" fill="#FF6974"/>
<path d="M17.9023 29.3945C23.9766 29.3945 28.8984 24.4727 28.8984 18.3984C28.8984 12.3242 23.9766 7.40234 17.9023 7.40234C11.8281 7.40234 6.90625 12.3242 6.90625 18.3984C6.90625 24.4727 11.8281 29.3945 17.9023 29.3945ZM17.2383 8.77734C22.1602 8.77734 26.1484 12.7656 26.1484 17.6875C26.1484 22.6094 22.1562 26.5938 17.2383 26.5938C12.3203 26.5938 8.32812 22.6055 8.32812 17.6836C8.32812 12.7617 12.3164 8.77734 17.2383 8.77734Z" fill="#FF7377"/>
<path d="M17.2383 26.5937C22.1602 26.5937 26.1484 22.6055 26.1484 17.6836C26.1484 12.7617 22.1562 8.77734 17.2383 8.77734C12.3203 8.77734 8.32812 12.7656 8.32812 17.6836C8.32812 22.6016 12.3164 26.5937 17.2383 26.5937ZM16.5742 10.1445C20.3438 10.1445 23.3984 13.1992 23.3984 16.9687C23.3984 20.7383 20.3438 23.793 16.5742 23.793C12.8047 23.793 9.75 20.7383 9.75 16.9687C9.75 13.1992 12.8047 10.1445 16.5742 10.1445Z" fill="#FF7E7A"/>
<path d="M16.5742 23.793C20.3437 23.793 23.3984 20.7383 23.3984 16.9687C23.3984 13.1992 20.3437 10.1445 16.5742 10.1445C12.8047 10.1445 9.75 13.1992 9.75 16.9687C9.75 20.7383 12.8047 23.793 16.5742 23.793ZM15.9102 11.5156C18.5273 11.5156 20.6484 13.6367 20.6484 16.2539C20.6484 18.8711 18.5273 20.9922 15.9102 20.9922C13.293 20.9922 11.1719 18.8711 11.1719 16.2539C11.1719 13.6367 13.293 11.5156 15.9102 11.5156Z" fill="#FF887D"/>
<path d="M12.5599 19.6047C12.9998 20.0447 13.5222 20.3937 14.0971 20.6318C14.672 20.87 15.2881 20.9925 15.9104 20.9925C16.5326 20.9925 17.1488 20.87 17.7237 20.6318C18.2986 20.3937 18.8209 20.0447 19.2609 19.6047C19.7009 19.1647 20.0499 18.6423 20.288 18.0674C20.5261 17.4925 20.6487 16.8763 20.6487 16.2541C20.6486 15.6318 20.526 15.0157 20.2879 14.4408C20.0497 13.8659 19.7007 13.3436 19.2607 12.9036C18.8207 12.4636 18.2983 12.1146 17.7234 11.8764C17.1486 11.6383 16.5324 11.5157 15.9101 11.5157C15.2879 11.5157 14.6717 11.6383 14.0969 11.8764C13.522 12.1146 12.9996 12.4636 12.5596 12.9036C12.1196 13.3436 11.7706 13.866 11.5325 14.4409C11.2944 15.0158 11.1719 15.6319 11.1719 16.2542C11.1719 16.8764 11.2945 17.4926 11.5326 18.0675C11.7708 18.6423 12.1198 19.1647 12.5599 19.6047Z" fill="#FF9280"/>
<path d="M19.082 34.5274C18.9687 34.5274 18.8515 34.5274 18.7382 34.5235C14.6718 34.4375 10.8554 32.8125 7.99213 29.9493C5.12885 27.086 3.49994 23.2696 3.4101 19.211C3.32025 15.168 4.75775 11.293 7.45307 8.30082C7.6601 8.07426 7.95307 7.93754 8.25775 7.92973C8.56635 7.92191 8.85541 8.0352 9.07416 8.25395L10.1445 9.31645C10.3359 9.50785 10.6406 9.51566 10.8398 9.33598C13.832 6.62895 17.707 5.19145 21.7499 5.2852C25.8085 5.37895 29.6249 7.01567 32.496 9.88676C35.3632 12.7539 36.9999 16.5664 37.0976 20.6211C37.1953 24.6602 35.7617 28.5352 33.0624 31.5274C32.8593 31.7539 32.5663 31.8907 32.2617 31.8985C31.9531 31.9102 31.664 31.793 31.4453 31.5782L30.3476 30.4922C30.1562 30.3047 29.8515 30.2969 29.6562 30.4727C26.7421 33.0977 22.9999 34.5274 19.082 34.5274ZM8.289 8.62895H8.27729C8.1601 8.63285 8.05463 8.67973 7.9765 8.76957C5.39838 11.6289 4.02729 15.3321 4.11322 19.1954C4.19916 23.0743 5.75385 26.7188 8.48822 29.4532C11.2226 32.1875 14.8671 33.7383 18.7538 33.8243C22.621 33.9063 26.3242 32.5313 29.1835 29.9532C29.6562 29.5274 30.3867 29.543 30.8398 29.9922L31.9374 31.0782C32.0195 31.1563 32.1249 31.1993 32.2382 31.1954C32.3554 31.1914 32.4609 31.1407 32.539 31.0547C35.1171 28.1954 36.4843 24.4961 36.3906 20.6368C36.2968 16.7657 34.7343 13.1211 31.996 10.3829C29.2538 7.64066 25.6054 6.07816 21.7304 5.98832C17.8671 5.89848 14.1679 7.26957 11.3085 9.85551C10.832 10.2852 10.1015 10.2657 9.64447 9.81254L8.57807 8.75004C8.49994 8.67191 8.39838 8.62895 8.289 8.62895Z" fill="#EF4868"/>
<path d="M6.76568 16.5195C6.59771 16.6406 6.37505 16.6836 6.16021 16.6211C5.78912 16.5117 5.57427 16.1211 5.67974 15.75C6.49615 12.9414 7.80084 11.0507 7.85943 10.9726C8.08209 10.6562 8.51959 10.5781 8.8399 10.7968C9.1563 11.0195 9.23443 11.457 9.01568 11.7773C8.99615 11.8086 7.7813 13.5781 7.03521 16.1445C6.98834 16.3007 6.89068 16.4297 6.76568 16.5195ZM6.22271 19.25C6.08209 19.3515 5.89849 19.3984 5.7149 19.3711C5.33209 19.3164 5.06646 18.957 5.12115 18.5742L5.18365 18.1406C5.23834 17.7578 5.59771 17.4922 5.98052 17.5468C6.36334 17.6015 6.62896 17.9609 6.57427 18.3437L6.51177 18.7773C6.48443 18.9765 6.37505 19.1406 6.22271 19.25Z" fill="white"/>
<path d="M22.6406 13.1094C24.0937 13.5898 25.3203 14.5078 26.1875 15.7617C26.664 16.4492 27.6054 16.6211 28.2929 16.1445C28.9804 15.668 29.1523 14.7266 28.6757 14.0391C27.4296 12.2422 25.6718 10.9258 23.5937 10.2383C21.0546 9.39844 18.3398 9.59766 15.9492 10.7969C14.9759 11.2813 14.089 11.9227 13.3242 12.6953C12.25 13.7813 11.2031 10.0586 10.6328 11.7813C10.3711 12.5742 10.3711 17.9922 12.1289 18.5742C12.9218 18.8359 13.5468 18.3399 13.8086 17.5469C15.0195 13.8906 18.9843 11.8984 22.6406 13.1094ZM28.6211 21.2383C27.8281 20.9766 27.2031 21.4727 26.9414 22.2656C25.7304 25.9219 21.7695 27.9141 18.1093 26.7031C16.6562 26.2227 15.4296 25.3047 14.5625 24.0508C14.0859 23.3633 13.1445 23.1914 12.457 23.668C11.7695 24.1445 11.5976 25.0859 12.0742 25.7734C13.3203 27.5703 15.0781 28.8867 17.1562 29.5742C19.6953 30.4141 22.4101 30.2148 24.8007 29.0156C25.7851 28.5195 26.6679 27.8789 27.4257 27.1172C28.5 26.0313 29.5468 29.7539 30.1171 28.0313C30.3789 27.2422 30.3789 21.8242 28.6211 21.2383Z" fill="#FFC7C7"/>
</svg>
