<svg width="24" height="25" viewBox="0 0 24 25" fill="none" xmlns="http://www.w3.org/2000/svg">
<g clip-path="url(#clip0_100_485)">
<rect x="6" y="6.95776" width="13" height="11" fill="black"/>
<path fill-rule="evenodd" clip-rule="evenodd" d="M12 22.9578C17.523 22.9578 22 18.4808 22 12.9578C22 7.43476 17.523 2.95776 12 2.95776C6.477 2.95776 2 7.43476 2 12.9578C2 18.4808 6.477 22.9578 12 22.9578ZM12.005 8.71576C11.8175 8.90329 11.7122 9.1576 11.7122 9.42276C11.7122 9.68793 11.8175 9.94224 12.005 10.1298L13.833 11.9578H7.757C7.49178 11.9578 7.23743 12.0631 7.04989 12.2507C6.86236 12.4382 6.757 12.6925 6.757 12.9578C6.757 13.223 6.86236 13.4773 7.04989 13.6649C7.23743 13.8524 7.49178 13.9578 7.757 13.9578H13.833L12.005 15.7868C11.8228 15.9754 11.722 16.228 11.7243 16.4902C11.7266 16.7524 11.8318 17.0032 12.0172 17.1886C12.2026 17.374 12.4534 17.4792 12.7156 17.4814C12.9778 17.4837 13.2304 17.3829 13.419 17.2008L16.954 13.6648C17.1415 13.4772 17.2468 13.2229 17.2468 12.9578C17.2468 12.6926 17.1415 12.4383 16.954 12.2508L13.42 8.71576C13.2325 8.52829 12.9782 8.42298 12.713 8.42298C12.4478 8.42298 12.1925 8.52829 12.005 8.71576Z" fill="white"/>
</g>
<defs>
<clipPath id="clip0_100_485">
<rect width="24" height="24" fill="white" transform="translate(0 0.957764)"/>
</clipPath>
</defs>
</svg>
