<svg width="33" height="33" viewBox="0 0 33 33" fill="none" xmlns="http://www.w3.org/2000/svg">
<path d="M26.5707 7.17061C24.7284 6.32499 22.7828 5.72561 20.784 5.38794C20.5294 5.82661 20.2467 6.42127 20.048 6.88794C17.9225 6.57669 15.7629 6.57669 13.6374 6.88794C13.4387 6.42127 13.14 5.82661 12.9 5.38794C10.8995 5.72163 8.95245 6.32116 7.11069 7.17061C3.44803 12.5759 2.45736 17.8546 2.95336 23.0613C5.0995 24.637 7.49694 25.838 10.044 26.6133C10.6162 25.8409 11.1229 25.022 11.5587 24.1653C10.7227 23.8533 9.93203 23.4719 9.16669 23.0186C9.36536 22.8773 9.56269 22.7213 9.74669 22.5653C14.36 24.6746 19.356 24.6746 23.912 22.5653C24.1107 22.7213 24.2947 22.8773 24.492 23.0186C23.728 23.4719 22.936 23.8533 22.1014 24.1653C22.5367 25.022 23.043 25.8408 23.6147 26.6133C26.1627 25.8403 28.5605 24.6391 30.7054 23.0613C31.3147 17.0346 29.7427 11.7973 26.572 7.17061H26.5707ZM12.1934 19.8493C10.8067 19.8493 9.67469 18.5893 9.67469 17.0479C9.67469 15.5053 10.7787 14.2453 12.1947 14.2453C13.5947 14.2453 14.7414 15.5053 14.712 17.0479C14.712 18.5893 13.5947 19.8479 12.1934 19.8479V19.8493ZM21.492 19.8493C20.1054 19.8493 18.972 18.5893 18.972 17.0479C18.972 15.5053 20.076 14.2453 21.492 14.2453C22.892 14.2453 24.0387 15.5053 24.0107 17.0479C24.0107 18.5893 22.9067 19.8479 21.4907 19.8479L21.492 19.8493Z" fill="white"/>
</svg>
