<svg width="24" height="25" viewBox="0 0 24 25" fill="none" xmlns="http://www.w3.org/2000/svg">
<g clip-path="url(#clip0_9_2509)">
<rect x="6" y="6.05457" width="13" height="11" fill="black"/>
<path fill-rule="evenodd" clip-rule="evenodd" d="M12 22.0546C17.523 22.0546 22 17.5776 22 12.0546C22 6.53157 17.523 2.05457 12 2.05457C6.477 2.05457 2 6.53157 2 12.0546C2 17.5776 6.477 22.0546 12 22.0546ZM12.005 7.81257C11.8175 8.00009 11.7122 8.2544 11.7122 8.51957C11.7122 8.78473 11.8175 9.03904 12.005 9.22657L13.833 11.0546H7.757C7.49178 11.0546 7.23743 11.1599 7.04989 11.3475C6.86236 11.535 6.757 11.7893 6.757 12.0546C6.757 12.3198 6.86236 12.5741 7.04989 12.7617C7.23743 12.9492 7.49178 13.0546 7.757 13.0546H13.833L12.005 14.8836C11.8228 15.0722 11.722 15.3248 11.7243 15.587C11.7266 15.8492 11.8318 16.1 12.0172 16.2854C12.2026 16.4708 12.4534 16.576 12.7156 16.5782C12.9778 16.5805 13.2304 16.4797 13.419 16.2976L16.954 12.7616C17.1415 12.574 17.2468 12.3197 17.2468 12.0546C17.2468 11.7894 17.1415 11.5351 16.954 11.3476L13.42 7.81257C13.2325 7.62509 12.9782 7.51978 12.713 7.51978C12.4478 7.51978 12.1925 7.62509 12.005 7.81257Z" fill="white"/>
</g>
<defs>
<clipPath id="clip0_9_2509">
<rect width="24" height="24" fill="white" transform="translate(0 0.0545654)"/>
</clipPath>
</defs>
</svg>
