<svg width="24" height="25" viewBox="0 0 24 25" fill="none" xmlns="http://www.w3.org/2000/svg">
<g clip-path="url(#clip0_9_2421)">
<path fill-rule="evenodd" clip-rule="evenodd" d="M12 22.0546C17.523 22.0546 22 17.5776 22 12.0546C22 6.53157 17.523 2.05457 12 2.05457C6.477 2.05457 2 6.53157 2 12.0546C2 17.5776 6.477 22.0546 12 22.0546ZM9.003 9.05157C9.003 9.31678 9.10836 9.57114 9.29589 9.75867C9.48343 9.94621 9.73778 10.0516 10.003 10.0516H12.589L8.293 14.3476C8.19749 14.4398 8.12131 14.5502 8.0689 14.6722C8.01649 14.7942 7.9889 14.9254 7.98775 15.0582C7.9866 15.1909 8.0119 15.3226 8.06218 15.4455C8.11246 15.5684 8.18671 15.6801 8.28061 15.774C8.3745 15.8679 8.48615 15.9421 8.60905 15.9924C8.73194 16.0427 8.86362 16.068 8.9964 16.0668C9.12918 16.0657 9.2604 16.0381 9.3824 15.9857C9.50441 15.9333 9.61475 15.8571 9.707 15.7616L14.003 11.4656V14.0516C14.003 14.3168 14.1084 14.5711 14.2959 14.7587C14.4834 14.9462 14.7378 15.0516 15.003 15.0516C15.2682 15.0516 15.5226 14.9462 15.7101 14.7587C15.8976 14.5711 16.003 14.3168 16.003 14.0516V9.05157C16.003 8.78635 15.8976 8.53199 15.7101 8.34446C15.5226 8.15692 15.2682 8.05157 15.003 8.05157H10.003C9.73778 8.05157 9.48343 8.15692 9.29589 8.34446C9.10836 8.53199 9.003 8.78635 9.003 9.05157Z" fill="white"/>
</g>
<defs>
<clipPath id="clip0_9_2421">
<rect width="24" height="24" fill="white" transform="translate(0 0.0545654)"/>
</clipPath>
</defs>
</svg>
