<svg width="37" height="37" viewBox="0 0 37 37" fill="none" xmlns="http://www.w3.org/2000/svg">
<path d="M18.851 3.42957C20.301 3.42957 21.4766 4.60473 21.4766 6.05458C21.4766 7.10188 20.8631 8.00582 19.976 8.42706L19.976 12.4296H28.6053C30.0405 12.4296 31.2068 13.5814 31.2299 15.0112L31.2303 15.0546V30.0546C31.2303 31.4898 30.0784 32.656 28.6487 32.6792L28.6053 32.6796H9.09671C7.66145 32.6796 6.49521 31.5277 6.47205 30.098L6.47169 30.0546V15.0546C6.47169 13.6193 7.62355 12.4531 9.05329 12.4299L9.09671 12.4296H17.726V8.42706C16.8511 8.01166 16.2425 7.12681 16.2258 6.09796L16.2254 6.05458C16.2254 4.60473 17.401 3.42957 18.851 3.42957ZM21.8521 24.0546H15.8498C15.0211 24.0546 14.3493 24.7261 14.3493 25.5546C14.3493 26.3748 15.0077 27.0411 15.825 27.0544L15.8498 27.0546H21.8521C22.6809 27.0546 23.3527 26.383 23.3527 25.5546C23.3527 24.7344 22.6942 24.068 21.877 24.0548L21.8521 24.0546ZM3.84528 18.4296C4.46037 18.4296 4.96019 18.9232 4.9701 19.5359L4.97028 19.5546V25.5546C4.97028 26.1759 4.46659 26.6796 3.84528 26.6796C3.23015 26.6796 2.73037 26.1859 2.72042 25.5732L2.72028 25.5546V19.5546C2.72028 18.9333 3.22396 18.4296 3.84528 18.4296ZM33.8567 18.4296C34.4718 18.4296 34.9716 18.9232 34.9815 19.5359L34.9817 19.5546V25.5546C34.9817 26.1759 34.478 26.6796 33.8567 26.6796C33.2416 26.6796 32.7418 26.1859 32.7319 25.5732L32.7317 25.5546V19.5546C32.7317 18.9333 33.2354 18.4296 33.8567 18.4296ZM13.599 18.0546C12.7703 18.0546 12.0985 18.7262 12.0985 19.5546C12.0985 20.383 12.7703 21.0546 13.599 21.0546C14.4278 21.0546 15.0996 20.383 15.0996 19.5546C15.0996 18.7262 14.4278 18.0546 13.599 18.0546H13.599ZM24.103 18.0546C23.2743 18.0546 22.6024 18.7262 22.6024 19.5546C22.6024 20.383 23.2743 21.0546 24.103 21.0546C24.9317 21.0546 25.6036 20.383 25.6036 19.5546C25.6036 18.7262 24.9317 18.0546 24.103 18.0546ZM18.851 5.67957C18.6435 5.67957 18.4754 5.84754 18.4754 6.05458C18.4754 6.26158 18.6435 6.42955 18.851 6.42955C19.0585 6.42955 19.2266 6.26158 19.2266 6.05458C19.2266 5.84754 19.0585 5.67957 18.851 5.67957Z" fill="white"/>
</svg>
